# SSTK version 0.8.0
# 60
mtllib original-60.mtl
o LT_11_BC1/LT_11_BC/mesh44/mesh44-geometry#mesh44-geometry
v -0.183266 -0.524846 0.343011
v -0.533802 -0.534483 0.343011
v -0.183266 -0.534483 0.343011
v -0.533802 -0.524846 0.343011
v -0.533802 -0.536290 0.342527
v -0.183266 -0.523039 0.342527
v -0.183266 -0.536290 0.342527
v -0.533802 -0.523039 0.342527
v -0.183266 -0.537612 0.341204
v -0.533802 -0.521717 0.341204
v -0.533802 -0.537612 0.341204
v -0.183266 -0.521717 0.341204
v -0.183266 -0.538096 0.339398
v -0.533802 -0.521233 0.339398
v -0.533802 -0.538096 0.339398
v -0.183266 -0.521233 0.339398
v -0.183266 -0.538096 0.317508
v -0.533802 -0.521233 0.337365
v -0.533802 -0.538096 0.317508
v -0.183266 -0.521233 0.337365
v -0.183266 -0.537612 0.315701
v -0.183266 -0.516418 0.337365
v -0.533802 -0.537612 0.315701
v -0.533802 -0.516418 0.337365
v -0.183266 -0.536290 0.314379
v -0.533802 -0.516418 0.339398
v -0.533802 -0.536290 0.314379
v -0.183266 -0.516418 0.339398
v -0.533802 -0.534483 0.313895
v -0.533802 -0.515934 0.341204
v -0.183266 -0.534483 0.313895
v -0.183266 -0.515934 0.341204
v -0.533802 -0.422541 0.313895
v -0.533802 -0.514611 0.342527
v -0.183266 -0.422541 0.313895
v -0.183266 -0.514611 0.342527
v -0.183266 -0.422541 0.315613
v -0.183266 -0.512805 0.343011
v -0.533802 -0.422541 0.315613
v -0.533802 -0.512805 0.343011
v -0.533802 -0.374475 0.315613
v -0.183266 -0.424235 0.343011
v -0.183266 -0.374475 0.315613
v -0.533802 -0.424235 0.343011
v -0.533802 -0.422541 0.341316
v -0.183266 -0.422541 0.341316
v -0.533802 -0.422541 0.333819
v -0.183266 -0.422541 0.333819
v -0.183266 -0.403282 0.334155
v -0.533802 -0.403282 0.334155
v -0.533802 -0.403282 0.336357
v -0.183266 -0.403282 0.336357
v -0.533802 -0.402959 0.337561
v -0.183266 -0.402959 0.337561
v -0.183266 -0.402078 0.338442
v -0.533802 -0.402078 0.338442
v -0.183266 -0.400874 0.338765
v -0.533802 -0.400874 0.338765
v -0.183266 -0.374475 0.338765
v -0.533802 -0.374475 0.338765
vt 0.061642 0.755281
vt 0.05647 0.913185
vt 0.05647 0.755281
vt 0.061642 0.913185
vt 0.0555 0.913185
vt 0.062611 0.755281
vt 0.0555 0.755281
vt 0.062611 0.913185
vt 0.054791 0.755281
vt 0.063321 0.913185
vt 0.054791 0.913185
vt 0.063321 0.755281
vt 0.054531 0.755281
vt 0.06358 0.913185
vt 0.054531 0.913185
vt 0.06358 0.755281
vt 0.066164 0.755281
vt 0.066164 0.913185
vt 0.066424 0.913185
vt 0.066424 0.755281
vt 0.116543 0.913185
vt 0.067134 0.913185
vt 0.116543 0.755281
vt 0.067134 0.755281
vt 0.068103 0.755281
vt 0.068103 0.913185
vt 0.09097 0.087806
vt 0.248874 0.062012
vt 0.09097 0.062012
vt 0.115633 0.755281
vt 0.248874 0.087806
vt 0.115633 0.913185
vt 0.248874 0.072347
vt 0.09097 0.072347
vt 0.09097 0.07252
vt 0.248874 0.07252
vt 0.248874 0.072993
vt 0.09097 0.072993
vt 0.248874 0.073639
vt 0.09097 0.073639
vn 0 0.130532012520631 0.9914440950993221
vn 0 -0.13052696829800559 0.9914447592009005
vn 0 -0.5000040408640822 0.8660230707779033
vn 0 0.5000090898813919 0.8660201556753644
vn 0 -0.866030449911163 0.4999912597502767
vn 0 0.8660277848787248 0.49999587580104
vn 0 -0.9914456820850615 0.13051995814773773
vn 0 0.9914450180195132 0.13052500237229214
vn 0 -0.9914448886106773 -0.13052598533534132
vn 0 1 0
vn 0 -0.8660253028382761 -0.500000174843842
vn 0 0 1
vn 0 -0.5000001748438415 -0.8660253028382763
vn 0 -1 0
vn 0 -0.9914448886106773 0.13052598533534088
vn 0 -0.13052598533534088 -0.9914448886106773
vn 0 -0.8660253028382763 0.5000001748438415
vn 0 0 -1
vn 0 -0.500000174843842 0.8660253028382761
vn 0 -0.13052598533534132 0.9914448886106773
vn 0 0.3826911406663822 0.9238763395906745
vn 0 0.9238826680189908 0.38267586249215063
vn 0 -0.01745199480447233 0.9998477023413839
vn 0 -0.9914423785382255 0.13054504984282733
vn 0 -0.866010294107538 0.5000261698149162
vn 0 -0.49998696068652704 0.8660329319046993
vn 0 -0.13052205348083523 0.9914454062403769
vn 0 0.13052696829800559 -0.9914447592009005
vn 0 -0.130532012520631 -0.9914440950993221
vn 0 0.5000040408640822 -0.8660230707779033
vn 0 -0.5000090898813919 -0.8660201556753644
vn 0 0.866030449911163 -0.4999912597502767
vn 0 -0.8660277848787248 -0.49999587580104
vn 0 0.9914456820850615 -0.13051995814773773
vn 0 -0.9914450180195132 -0.13052500237229214
vn 0 0.9914448886106773 0.13052598533534132
vn 0 0.8660253028382761 0.500000174843842
vn 0 0.5000001748438415 0.8660253028382763
vn 0 0.9914448886106773 -0.13052598533534088
vn 0 0.13052598533534088 0.9914448886106773
vn 0 0.8660253028382763 -0.5000001748438415
vn 0 0.500000174843842 -0.8660253028382761
vn 0 0.13052598533534132 -0.9914448886106773
vn 0 -0.3826911406663822 -0.9238763395906745
vn 0 -0.9238826680189908 -0.38267586249215063
vn 0 0.01745199480447233 -0.9998477023413839
vn 0 0.9914423785382255 -0.13054504984282733
vn 0 0.866010294107538 -0.5000261698149162
vn 0 0.49998696068652704 -0.8660329319046993
vn 0 0.13052205348083523 -0.9914454062403769
usemtl material_0_0
f 1/1/1 2/2/2 3/3/2
f 2/2/2 1/1/1 4/4/1
f 5/5/3 3/3/2 2/2/2
f 6/6/4 4/4/1 1/1/1
f 3/3/2 5/5/3 7/7/3
f 4/4/1 6/6/4 8/8/4
f 5/5/3 9/9/5 7/7/3
f 6/6/4 10/10/6 8/8/4
f 9/9/5 5/5/3 11/11/5
f 10/10/6 6/6/4 12/12/6
f 11/11/5 13/13/7 9/9/5
f 12/12/6 14/14/8 10/10/6
f 13/13/7 11/11/5 15/15/7
f 14/14/8 12/12/6 16/16/8
f 15/15/7 17/13/9 13/13/7
f 16/16/8 18/14/10 14/14/8
f 17/13/9 15/15/7 19/15/9
f 18/14/10 16/16/8 20/16/10
f 19/15/9 21/9/11 17/13/9
f 22/17/12 18/14/12 20/16/12
f 21/9/11 19/15/9 23/11/11
f 18/14/12 22/17/12 24/18/12
f 23/11/11 25/7/13 21/9/11
f 22/17/14 26/18/15 24/18/14
f 25/7/13 23/11/11 27/5/13
f 26/18/15 22/17/14 28/17/15
f 29/2/16 25/7/13 27/5/13
f 28/17/15 30/19/17 26/18/15
f 25/7/13 29/2/16 31/3/16
f 30/19/17 28/17/15 32/20/17
f 33/21/18 31/3/16 29/2/16
f 32/20/17 34/22/19 30/19/17
f 31/3/16 33/21/18 35/23/18
f 34/22/19 32/20/17 36/24/19
f 33/21/10 37/23/10 35/23/10
f 38/25/20 34/22/19 36/24/19
f 37/23/10 33/21/10 39/21/10
f 34/22/19 38/25/20 40/26/20
f 41/27/18 37/28/18 39/29/18
f 42/30/21 40/26/20 38/25/20
f 37/28/18 41/27/18 43/31/18
f 40/26/20 42/30/21 44/32/21
f 42/30/21 45/21/22 44/32/21
f 45/21/22 42/30/21 46/23/22
f 46/23/22 47/21/10 45/21/22
f 47/21/10 46/23/22 48/23/10
f 49/33/23 47/29/23 48/28/23
f 47/29/23 49/33/23 50/34/23
f 49/33/14 51/34/24 50/34/14
f 51/34/24 49/33/14 52/33/24
f 52/33/24 53/35/25 51/34/24
f 53/35/25 52/33/24 54/36/25
f 55/37/26 53/35/25 54/36/25
f 53/35/25 55/37/26 56/38/26
f 57/39/27 56/38/26 55/37/26
f 56/38/26 57/39/27 58/40/27
f 59/31/12 58/40/27 57/39/27
f 58/40/27 59/31/12 60/27/12
usemtl material_1_0
f 3//28 2//28 1//29
f 4//29 1//29 2//28
f 2//28 3//28 5//30
f 1//29 4//29 6//31
f 7//30 5//30 3//28
f 8//31 6//31 4//29
f 7//30 9//32 5//30
f 8//31 10//33 6//31
f 11//32 5//30 9//32
f 12//33 6//31 10//33
f 9//32 13//34 11//32
f 10//33 14//35 12//33
f 15//34 11//32 13//34
f 16//35 12//33 14//35
f 13//34 17//36 15//34
f 14//35 18//14 16//35
f 19//36 15//34 17//36
f 20//14 16//35 18//14
f 17//36 21//37 19//36
f 20//18 18//18 22//18
f 23//37 19//36 21//37
f 24//18 22//18 18//18
f 21//37 25//38 23//37
f 24//10 26//39 22//10
f 27//38 23//37 25//38
f 28//39 22//10 26//39
f 27//38 25//38 29//40
f 26//39 30//41 28//39
f 31//40 29//40 25//38
f 32//41 28//39 30//41
f 29//40 31//40 33//12
f 30//41 34//42 32//41
f 35//12 33//12 31//40
f 36//42 32//41 34//42
f 35//14 37//14 33//14
f 36//42 34//42 38//43
f 39//14 33//14 37//14
f 40//43 38//43 34//42
f 39//12 37//12 41//12
f 38//43 40//43 42//44
f 43//12 41//12 37//12
f 44//44 42//44 40//43
f 44//44 45//45 42//44
f 46//45 42//44 45//45
f 45//45 47//14 46//45
f 48//14 46//45 47//14
f 48//46 47//46 49//46
f 50//46 49//46 47//46
f 50//10 51//47 49//10
f 52//47 49//10 51//47
f 51//47 53//48 52//47
f 54//48 52//47 53//48
f 54//48 53//48 55//49
f 56//49 55//49 53//48
f 55//49 56//49 57//50
f 58//50 57//50 56//49
f 57//50 58//50 59//18
f 60//18 59//18 58//50
