# SSTK version 0.8.0
# 69
mtllib original-69.mtl
o RT_11_TL1/RT_11_TL/mesh50/mesh50-geometry#mesh50-geometry
v 0.013619 0.307056 0.342527
v 0.012296 0.166919 0.341204
v 0.013619 0.166919 0.342527
v 0.012296 0.308378 0.341204
v 0.015425 0.305249 0.343011
v 0.159651 0.308378 0.341204
v 0.011812 0.166919 0.339398
v 0.015425 0.166919 0.343011
v 0.159651 0.307056 0.342527
v 0.159651 0.308862 0.339398
v 0.011812 0.308862 0.339398
v 0.103994 0.216680 0.343011
v 0.159651 0.305249 0.343011
v 0.011812 0.166919 0.337365
v 0.103994 0.166919 0.343011
v 0.011812 0.308862 0.337365
v 0.105689 0.166919 0.341316
v 0.159651 0.216680 0.343011
v 0.159651 0.308862 0.337365
v 0.006997 0.166919 0.337365
v 0.105689 0.214985 0.341316
v 0.159651 0.313677 0.337365
v 0.006997 0.313677 0.337365
v 0.105689 0.166919 0.333819
v 0.159651 0.214985 0.341316
v 0.006997 0.313677 0.339398
v 0.105689 0.214985 0.333819
v 0.159651 0.214985 0.333819
v 0.006997 0.166919 0.339398
v 0.124948 0.195726 0.334155
v 0.159651 0.313677 0.339398
v 0.006513 0.314161 0.341204
v 0.124948 0.166919 0.334155
v 0.159651 0.314161 0.341204
v 0.006513 0.166919 0.341204
v 0.124948 0.195726 0.336357
v 0.159651 0.195726 0.334155
v 0.005191 0.315484 0.342527
v 0.159651 0.315484 0.342527
v 0.124948 0.166919 0.336357
v 0.159651 0.195726 0.336357
v 0.005191 0.166919 0.342527
v 0.125271 0.195403 0.337561
v 0.003384 0.166919 0.343011
v 0.159651 0.317290 0.343011
v 0.125271 0.166919 0.337561
v 0.159651 0.195403 0.337561
v 0.003384 0.317290 0.343011
v 0.126152 0.194522 0.338442
v -0.006253 0.166919 0.343011
v 0.159651 0.326927 0.343011
v 0.126152 0.166919 0.338442
v 0.159651 0.194522 0.338442
v -0.006253 0.326927 0.343011
v 0.127356 0.193318 0.338765
v -0.008060 0.166919 0.342527
v 0.159651 0.328734 0.342527
v 0.127356 0.166919 0.338765
v 0.159651 0.193318 0.338765
v -0.008060 0.328734 0.342527
v -0.009382 0.166919 0.341204
v 0.159651 0.330056 0.341204
v 0.159651 0.166919 0.338765
v -0.009382 0.330056 0.341204
v -0.009866 0.166919 0.339398
v 0.159651 0.330540 0.339398
v -0.009866 0.330540 0.339398
v -0.009866 0.166919 0.317508
v -0.009866 0.330540 0.317508
v 0.159651 0.330540 0.317508
v -0.009382 0.166919 0.315701
v -0.009382 0.330056 0.315701
v 0.159651 0.330056 0.315701
v -0.008060 0.166919 0.314379
v -0.008060 0.328734 0.314379
v 0.159651 0.328734 0.314379
v -0.006253 0.166919 0.313895
v 0.159651 0.326927 0.313895
v -0.006253 0.326927 0.313895
v 0.105689 0.166919 0.313895
v 0.159651 0.214985 0.313895
v 0.105689 0.214985 0.313895
v 0.105689 0.214985 0.315613
v 0.105689 0.166919 0.315613
v 0.159651 0.214985 0.315613
v 0.159651 0.166919 0.315613
vt 0.42927 0.469168
vt 0.42856 0.393965
vt 0.42927 0.393965
vt 0.42856 0.469878
vt 0.430239 0.468199
vt 0.346615 0.574885
vt 0.347325 0.496518
vt 0.347325 0.575595
vt 0.4283 0.393965
vt 0.430239 0.393965
vt 0.345646 0.573916
vt 0.346615 0.496518
vt 0.347585 0.496518
vt 0.4283 0.470137
vt 0.477769 0.420669
vt 0.345646 0.496518
vt 0.347585 0.575855
vt 0.477769 0.393965
vt 0.298116 0.526386
vt 0.478678 0.393965
vt 0.298116 0.496518
vt 0.425716 0.393965
vt 0.478678 0.419759
vt 0.297207 0.525477
vt 0.350169 0.496518
vt 0.425716 0.472721
vt 0.297207 0.496518
vt 0.350169 0.578439
vt 0.489014 0.409424
vt 0.425456 0.472981
vt 0.489014 0.393965
vt 0.507637 0.419759
vt 0.350429 0.496518
vt 0.425456 0.393965
vt 0.350429 0.578698
vt 0.507637 0.409424
vt 0.424747 0.473691
vt 0.351138 0.496518
vt 0.424747 0.393965
vt 0.351138 0.579408
vt 0.489187 0.409251
vt 0.423777 0.393965
vt 0.352108 0.496518
vt 0.489187 0.393965
vt 0.507637 0.409251
vt 0.423777 0.47466
vt 0.352108 0.580378
vt 0.48966 0.408778
vt 0.418606 0.393965
vt 0.357279 0.496518
vt 0.48966 0.393965
vt 0.507637 0.408778
vt 0.418606 0.479832
vt 0.357279 0.585549
vt 0.490306 0.408132
vt 0.417636 0.393965
vt 0.358249 0.496518
vt 0.490306 0.393965
vt 0.507637 0.408132
vt 0.417636 0.480801
vt 0.358249 0.586519
vt 0.416926 0.393965
vt 0.358959 0.496518
vt 0.507637 0.393965
vt 0.416926 0.481511
vt 0.358959 0.587228
vt 0.416667 0.393965
vt 0.359218 0.496518
vt 0.416667 0.481771
vt 0.359218 0.587488
vn -0.5000001748438417 0 0.8660253028382762
vn -0.8660253028382762 0 0.5000001748438417
vn -0.1305259853353411 0 0.9914448886106773
vn 0 0.5000001748438415 0.8660253028382763
vn 0 0.8660253028382761 0.500000174843842
vn -0.9914448886106773 0 0.1305259853353411
vn 0 0.13052598533534088 0.9914448886106773
vn 0 0.9914448886106773 0.13052598533534132
vn 0.38269114066638243 0 0.9238763395906744
vn -1 0 0
vn 0 -0.38269114066638266 0.9238763395906743
vn 0 1 0
vn 0.9238826680189909 0 0.3826758624921504
vn 0 0 1
vn 0 -0.9238826680189908 0.3826758624921501
vn 1 0 0
vn 0.9914450180195132 0 0.13052500237229192
vn 0 -1 0
vn 0 -0.9914450180195132 0.1305250023722917
vn -0.01745199480447211 0 0.9998477023413839
vn 0.8660277848787249 0 0.4999958758010398
vn 0 0.017451994804471887 0.9998477023413839
vn 0 -0.866027784878725 0.49999587580103966
vn -0.9914423785382255 0 0.13054504984282755
vn 0.5000090898813921 0 0.8660201556753643
vn 0 -0.5000090898813924 0.8660201556753642
vn 0 0.9914423785382253 0.13054504984282775
vn -0.8660102941075379 0 0.5000261698149164
vn 0 0.8660102941075378 0.5000261698149167
vn 0.13053201252063124 0 0.9914440950993221
vn 0 -0.13053201252063146 0.9914440950993221
vn -0.49998696068652676 0 0.8660329319046992
vn 0 0.4999869606865266 0.8660329319046993
vn -0.13052696829800536 0 0.9914447592009005
vn 0 0.13052696829800514 0.9914447592009005
vn -0.08759602388564325 0.08759602388564303 0.9922972705791605
vn -0.500004040864082 0 0.8660230707779034
vn 0 0.5000040408640818 0.8660230707779035
vn -0.130522053480835 0 0.9914454062403769
vn 0 0.13052205348083482 0.9914454062403771
vn -0.8660304499111627 0 0.49999125975027675
vn 0 0.8660304499111627 0.49999125975027703
vn -0.9914456820850615 0 0.13051995814773795
vn 0 0.9914456820850615 0.13051995814773817
vn -0.9914448886106773 0 -0.1305259853353411
vn 0 0.9914448886106773 -0.13052598533534088
vn -0.8660253028382762 0 -0.5000001748438417
vn 0 0.8660253028382763 -0.5000001748438415
vn -0.5000001748438417 0 -0.8660253028382762
vn 0 0.500000174843842 -0.8660253028382761
vn -0.1305259853353411 0 -0.9914448886106773
vn 0 0.13052598533534132 -0.9914448886106773
vn 0 0 -1
vn 0.5000001748438417 0 -0.8660253028382762
vn 0.8660253028382762 0 -0.5000001748438417
vn 0.1305259853353411 0 -0.9914448886106773
vn 0 -0.8660253028382761 -0.500000174843842
vn 0 -0.5000001748438415 -0.8660253028382763
vn 0.9914448886106773 0 -0.1305259853353411
vn 0 -0.13052598533534088 -0.9914448886106773
vn 0 -0.9914448886106773 -0.13052598533534132
vn -0.38269114066638243 0 -0.9238763395906744
vn 0 0.38269114066638266 -0.9238763395906743
vn -0.9238826680189909 0 -0.3826758624921504
vn 0 0.9238826680189908 -0.3826758624921501
vn -0.9914450180195132 0 -0.13052500237229192
vn 0 0.9914450180195132 -0.1305250023722917
vn 0.01745199480447211 0 -0.9998477023413839
vn -0.8660277848787249 0 -0.4999958758010398
vn 0 -0.017451994804471887 -0.9998477023413839
vn 0 0.866027784878725 -0.49999587580103966
vn 0.9914423785382255 0 -0.13054504984282755
vn -0.5000090898813921 0 -0.8660201556753643
vn 0 0.5000090898813924 -0.8660201556753642
vn 0 -0.9914423785382253 -0.13054504984282775
vn 0.8660102941075379 0 -0.5000261698149164
vn 0 -0.8660102941075378 -0.5000261698149167
vn -0.13053201252063124 0 -0.9914440950993221
vn 0 0.13053201252063146 -0.9914440950993221
vn 0.49998696068652676 0 -0.8660329319046992
vn 0 -0.4999869606865266 -0.8660329319046993
vn 0.13052696829800536 0 -0.9914447592009005
vn 0 -0.13052696829800514 -0.9914447592009005
vn 0.08759602388564325 -0.08759602388564303 -0.9922972705791605
vn 0.500004040864082 0 -0.8660230707779034
vn 0 -0.5000040408640818 -0.8660230707779035
vn 0.130522053480835 0 -0.9914454062403769
vn 0 -0.13052205348083482 -0.9914454062403771
vn 0.8660304499111627 0 -0.49999125975027675
vn 0 -0.8660304499111627 -0.49999125975027703
vn 0.9914456820850615 0 -0.13051995814773795
vn 0 -0.9914456820850615 -0.13051995814773817
vn 0.9914448886106773 0 0.1305259853353411
vn 0 -0.9914448886106773 0.13052598533534088
vn 0.8660253028382762 0 0.5000001748438417
vn 0 -0.8660253028382763 0.5000001748438415
vn 0.5000001748438417 0 0.8660253028382762
vn 0 -0.500000174843842 0.8660253028382761
vn 0.1305259853353411 0 0.9914448886106773
vn 0 -0.13052598533534132 0.9914448886106773
usemtl material_0_0
f 1/1/1 2/2/2 3/3/1
f 2/2/2 1/1/1 4/4/2
f 3/3/1 5/5/3 1/1/1
f 1/6/4 6/7/5 4/8/5
f 4/4/2 7/9/6 2/2/2
f 5/5/3 3/3/1 8/10/3
f 5/11/7 9/12/4 1/6/4
f 6/7/5 1/6/4 9/12/4
f 10/13/8 4/8/5 6/7/5
f 7/9/6 4/4/2 11/14/6
f 8/10/3 12/15/9 5/5/3
f 9/12/4 5/11/7 13/16/7
f 4/8/5 10/13/8 11/17/8
f 11/14/6 14/9/10 7/9/6
f 12/15/9 8/10/3 15/18/9
f 12/19/11 13/16/7 5/11/7
f 10/13/8 16/17/12 11/17/8
f 14/9/10 11/14/6 16/14/10
f 17/20/13 12/15/9 15/18/9
f 13/16/7 12/19/11 18/21/11
f 16/17/12 10/13/8 19/13/12
f 16/14/14 20/22/14 14/9/14
f 12/15/9 17/20/13 21/23/13
f 21/24/15 18/21/11 12/19/11
f 22/25/14 16/17/14 19/13/14
f 20/22/14 16/14/14 23/26/14
f 24/20/16 21/23/13 17/20/13
f 18/21/11 21/24/15 25/27/15
f 16/17/14 22/25/14 23/28/14
f 26/26/17 20/22/16 23/26/16
f 21/23/13 24/20/16 27/23/16
f 21/24/15 28/27/18 25/27/15
f 22/25/18 26/28/19 23/28/18
f 20/22/16 26/26/17 29/22/17
f 24/20/20 30/29/20 27/23/20
f 28/27/18 21/24/15 27/24/18
f 26/28/19 22/25/18 31/25/19
f 32/30/21 29/22/17 26/26/17
f 30/29/20 24/20/20 33/31/20
f 30/29/22 28/32/22 27/23/22
f 34/33/23 26/28/19 31/25/19
f 29/22/17 32/30/21 35/34/21
f 26/28/19 34/33/23 32/35/23
f 33/31/10 36/29/24 30/29/10
f 28/32/22 30/29/22 37/36/22
f 38/37/25 35/34/21 32/30/21
f 39/38/26 32/35/23 34/33/23
f 36/29/24 33/31/10 40/31/24
f 41/36/27 30/29/12 36/29/27
f 30/29/12 41/36/27 37/36/12
f 35/34/21 38/37/25 42/39/25
f 32/35/23 39/38/26 38/40/26
f 40/31/24 43/41/28 36/29/24
f 43/41/29 41/36/27 36/29/27
f 38/37/25 44/42/30 42/39/25
f 45/43/31 38/40/26 39/38/26
f 43/41/28 40/31/24 46/44/28
f 41/36/27 43/41/29 47/45/29
f 44/42/30 38/37/25 48/46/30
f 38/40/26 45/43/31 48/47/31
f 46/44/28 49/48/32 43/41/28
f 49/48/33 47/45/29 43/41/29
f 48/46/30 50/49/34 44/42/30
f 51/50/35 48/47/31 45/43/31
f 49/48/32 46/44/28 52/51/32
f 47/45/29 49/48/33 53/52/33
f 50/49/34 48/46/30 54/53/34
f 48/47/31 51/50/35 54/54/35
f 52/51/32 55/55/36 49/48/32
f 55/55/36 53/52/33 49/48/33
f 54/53/34 56/56/37 50/49/34
f 57/57/38 54/54/35 51/50/35
f 55/55/36 52/51/32 58/58/39
f 53/52/33 55/55/36 59/59/40
f 56/56/37 54/53/34 60/60/37
f 54/54/35 57/57/38 60/61/38
f 58/58/39 59/59/40 55/55/36
f 60/60/37 61/62/41 56/56/37
f 62/63/42 60/61/38 57/57/38
f 59/59/40 58/58/39 63/64/14
f 61/62/41 60/60/37 64/65/41
f 60/61/38 62/63/42 64/66/42
f 64/65/41 65/67/43 61/62/41
f 66/68/44 64/66/42 62/63/42
f 65/67/43 64/65/41 67/69/43
f 64/66/42 66/68/44 67/70/44
f 67/69/43 68/67/45 65/67/43
f 66/68/44 69/70/46 67/70/44
f 68/67/45 67/69/43 69/69/45
f 69/70/46 66/68/44 70/68/46
f 69/69/45 71/62/47 68/67/45
f 70/68/46 72/66/48 69/70/46
f 71/62/47 69/69/45 72/65/47
f 72/66/48 70/68/46 73/63/48
f 72/65/47 74/56/49 71/62/47
f 73/63/48 75/61/50 72/66/48
f 74/56/49 72/65/47 75/60/49
f 75/61/50 73/63/48 76/57/50
f 75/60/49 77/49/51 74/56/49
f 78/50/52 75/61/50 76/57/50
f 77/49/51 75/60/49 79/53/51
f 75/61/50 78/50/52 79/54/52
f 79/53/51 80/20/53 77/49/51
f 81/27/53 79/54/52 78/50/52
f 80/20/53 79/53/51 82/23/53
f 79/54/52 81/27/53 82/24/53
f 83/23/16 80/20/16 82/23/16
f 81/27/18 83/24/18 82/24/18
f 80/20/16 83/23/16 84/20/16
f 83/24/18 81/27/18 85/27/18
f 83/23/53 86/64/53 84/20/53
f 86/64/53 83/23/53 85/32/53
usemtl material_1_0
f 3//54 2//55 1//54
f 4//55 1//54 2//55
f 1//54 5//56 3//54
f 4//57 6//57 1//58
f 2//55 7//59 4//55
f 8//56 3//54 5//56
f 1//58 9//58 5//60
f 9//58 1//58 6//57
f 6//57 4//57 10//61
f 11//59 4//55 7//59
f 5//56 12//62 8//56
f 13//60 5//60 9//58
f 11//61 10//61 4//57
f 7//59 14//16 11//59
f 15//62 8//56 12//62
f 5//60 13//60 12//63
f 11//61 16//18 10//61
f 16//16 11//59 14//16
f 15//62 12//62 17//64
f 18//63 12//63 13//60
f 19//18 10//61 16//18
f 14//53 20//53 16//53
f 21//64 17//64 12//62
f 12//63 18//63 21//65
f 19//53 16//53 22//53
f 23//53 16//53 20//53
f 17//64 21//64 24//10
f 25//65 21//65 18//63
f 23//53 22//53 16//53
f 23//10 20//10 26//66
f 27//10 24//10 21//64
f 25//65 28//12 21//65
f 23//12 26//67 22//12
f 29//66 26//66 20//10
f 27//68 30//68 24//68
f 27//12 21//65 28//12
f 31//67 22//12 26//67
f 26//66 29//66 32//69
f 33//68 24//68 30//68
f 27//70 28//70 30//70
f 31//67 26//67 34//71
f 35//69 32//69 29//66
f 32//71 34//71 26//67
f 30//16 36//72 33//16
f 37//70 30//70 28//70
f 32//69 35//69 38//73
f 34//71 32//71 39//74
f 40//72 33//16 36//72
f 36//75 30//18 41//75
f 37//18 41//75 30//18
f 42//73 38//73 35//69
f 38//74 39//74 32//71
f 36//72 43//76 40//72
f 36//75 41//75 43//77
f 42//73 44//78 38//73
f 39//74 38//74 45//79
f 46//76 40//72 43//76
f 47//77 43//77 41//75
f 48//78 38//73 44//78
f 48//79 45//79 38//74
f 43//76 49//80 46//76
f 43//77 47//77 49//81
f 44//78 50//82 48//78
f 45//79 48//79 51//83
f 52//80 46//76 49//80
f 53//81 49//81 47//77
f 54//82 48//78 50//82
f 54//83 51//83 48//79
f 49//80 55//84 52//80
f 49//81 53//81 55//84
f 50//82 56//85 54//82
f 51//83 54//83 57//86
f 58//87 52//80 55//84
f 59//88 55//84 53//81
f 60//85 54//82 56//85
f 60//86 57//86 54//83
f 55//84 59//88 58//87
f 56//85 61//89 60//85
f 57//86 60//86 62//90
f 63//53 58//87 59//88
f 64//89 60//85 61//89
f 64//90 62//90 60//86
f 61//89 65//91 64//89
f 62//90 64//90 66//92
f 67//91 64//89 65//91
f 67//92 66//92 64//90
f 65//91 68//93 67//91
f 67//92 69//94 66//92
f 69//93 67//91 68//93
f 70//94 66//92 69//94
f 68//93 71//95 69//93
f 69//94 72//96 70//94
f 72//95 69//93 71//95
f 73//96 70//94 72//96
f 71//95 74//97 72//95
f 72//96 75//98 73//96
f 75//97 72//95 74//97
f 76//98 73//96 75//98
f 74//97 77//99 75//97
f 76//98 75//98 78//100
f 79//99 75//97 77//99
f 79//100 78//100 75//98
f 77//99 80//14 79//99
f 78//100 79//100 81//14
f 82//14 79//99 80//14
f 82//14 81//14 79//100
f 82//10 80//10 83//10
f 82//12 83//12 81//12
f 84//10 83//10 80//10
f 85//12 81//12 83//12
f 84//14 86//14 83//14
f 85//14 83//14 86//14
