# SSTK version 0.8.0
# 73
mtllib original-73.mtl
o RT_11_TC1/RT_11_TC/mesh54/mesh54-geometry#mesh54-geometry
v 0.510188 0.330540 0.339398
v 0.159651 0.330540 0.317508
v 0.159651 0.330540 0.339398
v 0.510188 0.330540 0.317508
v 0.510188 0.330056 0.341204
v 0.159651 0.330056 0.315701
v 0.159651 0.330056 0.341204
v 0.510188 0.330056 0.315701
v 0.510188 0.328734 0.342527
v 0.159651 0.328734 0.314379
v 0.159651 0.328734 0.342527
v 0.510188 0.328734 0.314379
v 0.159651 0.326927 0.343011
v 0.510188 0.326927 0.313895
v 0.510188 0.326927 0.343011
v 0.159651 0.326927 0.313895
v 0.159651 0.317290 0.343011
v 0.510188 0.214985 0.313895
v 0.510188 0.317290 0.343011
v 0.159651 0.214985 0.313895
v 0.159651 0.315484 0.342527
v 0.159651 0.214985 0.315613
v 0.510188 0.315484 0.342527
v 0.510188 0.214985 0.315613
v 0.510188 0.314161 0.341204
v 0.510188 0.166919 0.315613
v 0.159651 0.314161 0.341204
v 0.159651 0.166919 0.315613
v 0.510188 0.313677 0.339398
v 0.159651 0.313677 0.339398
v 0.510188 0.313677 0.337365
v 0.159651 0.313677 0.337365
v 0.159651 0.308862 0.337365
v 0.510188 0.308862 0.337365
v 0.510188 0.308862 0.339398
v 0.159651 0.308862 0.339398
v 0.510188 0.308378 0.341204
v 0.159651 0.308378 0.341204
v 0.510188 0.307056 0.342527
v 0.159651 0.307056 0.342527
v 0.159651 0.305249 0.343011
v 0.510188 0.305249 0.343011
v 0.159651 0.216680 0.343011
v 0.510188 0.216680 0.343011
v 0.510188 0.214985 0.341316
v 0.159651 0.214985 0.341316
v 0.510188 0.214985 0.333819
v 0.159651 0.214985 0.333819
v 0.159651 0.195726 0.334155
v 0.510188 0.195726 0.334155
v 0.510188 0.195726 0.336357
v 0.159651 0.195726 0.336357
v 0.510188 0.195403 0.337561
v 0.159651 0.195403 0.337561
v 0.159651 0.194522 0.338442
v 0.510188 0.194522 0.338442
v 0.159651 0.193318 0.338765
v 0.510188 0.193318 0.338765
v 0.159651 0.166919 0.338765
v 0.510188 0.166919 0.338765
vt 0.359218 0.338614
vt 0.359218 0.496518
vt 0.358959 0.338614
vt 0.358959 0.496518
vt 0.358958 0.338614
vt 0.358249 0.338614
vt 0.358249 0.496518
vt 0.357279 0.496518
vt 0.357279 0.338614
vt 0.352108 0.496518
vt 0.297207 0.338614
vt 0.352108 0.338614
vt 0.297207 0.496518
vt 0.351138 0.496518
vt 0.351138 0.338614
vt 0.350428 0.338614
vt 0.665541 0.393965
vt 0.507637 0.419759
vt 0.665541 0.419759
vt 0.350429 0.496518
vt 0.507637 0.393965
vt 0.350169 0.338614
vt 0.350169 0.496518
vt 0.347585 0.496518
vt 0.347585 0.338614
vt 0.347325 0.338614
vt 0.347325 0.496518
vt 0.346615 0.338614
vt 0.346615 0.496518
vt 0.345646 0.496518
vt 0.345646 0.338614
vt 0.298116 0.496518
vt 0.298116 0.338614
vt 0.507637 0.409424
vt 0.665541 0.409424
vt 0.665541 0.409251
vt 0.507637 0.409251
vt 0.507637 0.408778
vt 0.665541 0.408778
vt 0.507637 0.408132
vt 0.665541 0.408132
vn 0 0.9914456820850615 0.13051995814773817
vn 0 0.9914448886106773 -0.13052598533534088
vn 0 0.8660304499111627 0.49999125975027703
vn 0 0.8660253028382763 -0.5000001748438415
vn 0 0.5000040408640818 0.8660230707779035
vn 0 0.500000174843842 -0.8660253028382761
vn 0 0.13052696829800514 0.9914447592009005
vn 0 0.13052598533534132 -0.9914448886106773
vn 0 -0.13053201252063146 0.9914440950993221
vn 0 0 -1
vn 0 -0.5000090898813924 0.8660201556753642
vn 0 -1 0
vn 0 -0.866027784878725 0.49999587580103966
vn 0 -0.9914450180195132 0.1305250023722917
vn 0 0 1
vn 0 1 0
vn 0 0.9914448886106773 0.13052598533534132
vn 0 0.8660253028382761 0.500000174843842
vn 0 0.5000001748438415 0.8660253028382763
vn 0 0.13052598533534088 0.9914448886106773
vn 0 -0.38269114066638266 0.9238763395906743
vn 0 -0.9238826680189908 0.3826758624921501
vn 0 0.017451994804471887 0.9998477023413839
vn 0 0.9914423785382253 0.13054504984282775
vn 0 0.8660102941075378 0.5000261698149167
vn 0 0.4999869606865266 0.8660329319046993
vn 0 0.13052205348083482 0.9914454062403771
vn 0 -0.9914456820850615 -0.13051995814773817
vn 0 -0.9914448886106773 0.13052598533534088
vn 0 -0.8660304499111627 -0.49999125975027703
vn 0 -0.8660253028382763 0.5000001748438415
vn 0 -0.5000040408640818 -0.8660230707779035
vn 0 -0.500000174843842 0.8660253028382761
vn 0 -0.13052696829800514 -0.9914447592009005
vn 0 -0.13052598533534132 0.9914448886106773
vn 0 0.13053201252063146 -0.9914440950993221
vn 0 0.5000090898813924 -0.8660201556753642
vn 0 0.866027784878725 -0.49999587580103966
vn 0 0.9914450180195132 -0.1305250023722917
vn 0 -0.9914448886106773 -0.13052598533534132
vn 0 -0.8660253028382761 -0.500000174843842
vn 0 -0.5000001748438415 -0.8660253028382763
vn 0 -0.13052598533534088 -0.9914448886106773
vn 0 0.38269114066638266 -0.9238763395906743
vn 0 0.9238826680189908 -0.3826758624921501
vn 0 -0.017451994804471887 -0.9998477023413839
vn 0 -0.9914423785382253 -0.13054504984282775
vn 0 -0.8660102941075378 -0.5000261698149167
vn 0 -0.4999869606865266 -0.8660329319046993
vn 0 -0.13052205348083482 -0.9914454062403771
usemtl material_0_0
f 1/1/1 2/2/2 3/2/1
f 2/2/2 1/1/1 4/1/2
f 3/2/1 5/3/3 1/1/1
f 4/1/2 6/4/4 2/2/2
f 5/3/3 3/2/1 7/4/3
f 6/4/4 4/1/2 8/5/4
f 7/4/3 9/6/5 5/3/3
f 8/5/4 10/7/6 6/4/4
f 9/6/5 7/4/3 11/7/5
f 10/7/6 8/5/4 12/6/6
f 13/8/7 9/6/5 11/7/5
f 14/9/8 10/7/6 12/6/6
f 9/6/5 13/8/7 15/9/7
f 10/7/6 14/9/8 16/8/8
f 17/10/9 15/9/7 13/8/7
f 18/11/10 16/8/8 14/9/8
f 15/9/7 17/10/9 19/12/9
f 16/8/8 18/11/10 20/13/10
f 21/14/11 19/12/9 17/10/9
f 18/11/12 22/13/12 20/13/12
f 19/12/9 21/14/11 23/15/11
f 22/13/12 18/11/12 24/11/12
f 21/14/11 25/16/13 23/15/11
f 26/17/10 22/18/10 24/19/10
f 25/16/13 21/14/11 27/20/13
f 22/18/10 26/17/10 28/21/10
f 27/20/13 29/22/14 25/16/13
f 29/22/14 27/20/13 30/23/14
f 30/23/14 31/22/12 29/22/14
f 31/22/12 30/23/14 32/23/12
f 33/24/15 31/22/15 32/23/15
f 31/22/15 33/24/15 34/25/15
f 33/24/16 35/25/17 34/25/16
f 35/25/17 33/24/16 36/24/17
f 36/24/17 37/26/18 35/25/17
f 37/26/18 36/24/17 38/27/18
f 38/27/18 39/28/19 37/26/18
f 39/28/19 38/27/18 40/29/19
f 41/30/20 39/28/19 40/29/19
f 39/28/19 41/30/20 42/31/20
f 43/32/21 42/31/20 41/30/20
f 42/31/20 43/32/21 44/33/21
f 43/32/21 45/11/22 44/33/21
f 45/11/22 43/32/21 46/13/22
f 46/13/22 47/11/12 45/11/22
f 47/11/12 46/13/22 48/13/12
f 49/34/23 47/19/23 48/18/23
f 47/19/23 49/34/23 50/35/23
f 49/34/16 51/35/24 50/35/16
f 51/35/24 49/34/16 52/34/24
f 52/34/24 53/36/25 51/35/24
f 53/36/25 52/34/24 54/37/25
f 55/38/26 53/36/25 54/37/25
f 53/36/25 55/38/26 56/39/26
f 57/40/27 56/39/26 55/38/26
f 56/39/26 57/40/27 58/41/27
f 59/21/15 58/41/27 57/40/27
f 58/41/27 59/21/15 60/17/15
usemtl material_1_0
f 3//28 2//29 1//28
f 4//29 1//28 2//29
f 1//28 5//30 3//28
f 2//29 6//31 4//29
f 7//30 3//28 5//30
f 8//31 4//29 6//31
f 5//30 9//32 7//30
f 6//31 10//33 8//31
f 11//32 7//30 9//32
f 12//33 8//31 10//33
f 11//32 9//32 13//34
f 12//33 10//33 14//35
f 15//34 13//34 9//32
f 16//35 14//35 10//33
f 13//34 15//34 17//36
f 14//35 16//35 18//15
f 19//36 17//36 15//34
f 20//15 18//15 16//35
f 17//36 19//36 21//37
f 20//16 22//16 18//16
f 23//37 21//37 19//36
f 24//16 18//16 22//16
f 23//37 25//38 21//37
f 24//15 22//15 26//15
f 27//38 21//37 25//38
f 28//15 26//15 22//15
f 25//38 29//39 27//38
f 30//39 27//38 29//39
f 29//39 31//16 30//39
f 32//16 30//39 31//16
f 32//10 31//10 33//10
f 34//10 33//10 31//10
f 34//12 35//40 33//12
f 36//40 33//12 35//40
f 35//40 37//41 36//40
f 38//41 36//40 37//41
f 37//41 39//42 38//41
f 40//42 38//41 39//42
f 40//42 39//42 41//43
f 42//43 41//43 39//42
f 41//43 42//43 43//44
f 44//44 43//44 42//43
f 44//44 45//45 43//44
f 46//45 43//44 45//45
f 45//45 47//16 46//45
f 48//16 46//45 47//16
f 48//46 47//46 49//46
f 50//46 49//46 47//46
f 50//12 51//47 49//12
f 52//47 49//12 51//47
f 51//47 53//48 52//47
f 54//48 52//47 53//48
f 54//48 53//48 55//49
f 56//49 55//49 53//48
f 55//49 56//49 57//50
f 58//50 57//50 56//49
f 57//50 58//50 59//10
f 60//10 59//10 58//50
