# SSTK version 0.8.0
# 41
mtllib original-41.mtl
o DF_12_TC1/DF_12_TC/mesh28/mesh28-geometry#mesh28-geometry
v -0.567405 0.608386 0.313895
v 0.543791 0.527757 0.313895
v -0.567405 0.527757 0.313895
v 0.543791 0.608386 0.313895
v -0.567405 0.527757 0.315613
v -0.567405 0.610192 0.314379
v 0.543791 0.527757 0.315613
v 0.543791 0.610192 0.314379
v 0.543791 0.521522 0.315613
v -0.567405 0.611514 0.315701
v -0.567405 0.521522 0.315613
v 0.543791 0.611514 0.315701
v 0.543791 0.611998 0.317508
v -0.567405 0.611998 0.317508
v 0.543791 0.611998 0.339398
v -0.567405 0.611998 0.339398
v 0.543791 0.611514 0.341204
v -0.567405 0.611514 0.341204
v 0.543791 0.610192 0.342527
v -0.567405 0.610192 0.342527
v -0.567405 0.608386 0.343011
v 0.543791 0.608386 0.343011
v -0.567405 0.598750 0.343011
v 0.543791 0.598750 0.343011
v -0.567405 0.596944 0.342527
v 0.543791 0.596944 0.342527
v 0.543791 0.595622 0.341204
v -0.567405 0.595622 0.341204
v 0.543791 0.595138 0.339398
v -0.567405 0.595138 0.339398
v 0.543791 0.595138 0.337365
v -0.567405 0.595138 0.337365
v -0.567405 0.590324 0.337365
v 0.543791 0.590324 0.337365
v 0.543791 0.590324 0.339398
v -0.567405 0.590324 0.339398
v 0.543791 0.589840 0.341204
v -0.567405 0.589840 0.341204
v 0.543791 0.588518 0.342527
v -0.567405 0.588518 0.342527
v -0.567405 0.586712 0.343011
v 0.543791 0.586712 0.343011
v -0.567405 0.529451 0.343011
v 0.543791 0.529451 0.343011
v 0.543791 0.527757 0.341316
v -0.567405 0.527757 0.341316
v 0.543791 0.527757 0.333819
v -0.567405 0.527757 0.333819
v -0.567405 0.521522 0.333819
v 0.543791 0.521522 0.333819
vt 0.180196 0.413399
vt 0.136918 -0.057914
vt 0.136918 0.413399
vt 0.180196 -0.057914
vt 0.181165 0.413399
vt 0.181165 -0.057914
vt 0.133572 -0.057914
vt 0.181875 0.413399
vt 0.133572 0.413399
vt 0.181875 -0.057914
vt 0.182135 -0.057914
vt 0.182135 0.413399
vt 0.175024 0.413399
vt 0.175024 -0.057914
vt 0.174055 0.413399
vt 0.174055 -0.057914
vt 0.173345 -0.057914
vt 0.173345 0.413399
vt 0.173085 -0.057914
vt 0.173085 0.413399
vt 0.170502 0.413399
vt 0.170501 -0.057914
vt 0.170242 -0.057914
vt 0.170242 0.413399
vt 0.169532 -0.057914
vt 0.169532 0.413399
vt 0.168563 0.413399
vt 0.168562 -0.057914
vt 0.137828 0.413399
vt 0.137828 -0.057914
vn 0 0.1305524208971152 -0.991441407950012
vn 0 0 -1
vn 0 -1 0
vn 0 0.5000774347997029 -0.8659806921659103
vn 0 0.8660699020236944 -0.4999229188671672
vn 0 0.9914483678740943 -0.13049955494098292
vn 0 0.9914491610299504 0.13049352893154323
vn 0 0.8660750477711074 0.49991400423300203
vn 0 0.5000813010189711 0.8659784595307054
vn 0 0.13055340405195626 0.9914412784882655
vn 0 -0.13055844926076673 0.9914406141199904
vn 0 -0.5000863502961983 0.8659755436774342
vn 0 -0.8660723834249722 0.49991862004589116
vn 0 -0.9914484972309813 0.1304985721700778
vn 0 0 1
vn 0 1 0
vn 0 0.9914483678740941 0.1304995549409833
vn 0 0.8660699020236942 0.4999229188671676
vn 0 0.5000774347997025 0.8659806921659106
vn 0 0.13055242089711477 0.9914414079500122
vn 0 -0.3827584403673133 0.9238484596120631
vn 0 -0.9239105370003725 0.3826085723290622
vn 0 -0.1305524208971152 0.991441407950012
vn 0 -0.5000774347997029 0.8659806921659103
vn 0 -0.8660699020236944 0.4999229188671672
vn 0 -0.9914483678740943 0.13049955494098292
vn 0 -0.9914491610299504 -0.13049352893154323
vn 0 -0.8660750477711074 -0.49991400423300203
vn 0 -0.5000813010189711 -0.8659784595307054
vn 0 -0.13055340405195626 -0.9914412784882655
vn 0 0.13055844926076673 -0.9914406141199904
vn 0 0.5000863502961983 -0.8659755436774342
vn 0 0.8660723834249722 -0.49991862004589116
vn 0 0.9914484972309813 -0.1304985721700778
vn 0 -0.9914483678740941 -0.1304995549409833
vn 0 -0.8660699020236942 -0.4999229188671676
vn 0 -0.5000774347997025 -0.8659806921659106
vn 0 -0.13055242089711477 -0.9914414079500122
vn 0 0.3827584403673133 -0.9238484596120631
vn 0 0.9239105370003725 -0.3826085723290622
usemtl material_0_0
f 1/1/1 2/2/2 3/3/2
f 2/2/2 1/1/1 4/4/1
f 2/2/3 5/3/3 3/3/3
f 6/5/4 4/4/1 1/1/1
f 5/3/3 2/2/3 7/2/3
f 4/4/1 6/5/4 8/6/4
f 9/7/2 5/3/2 7/2/2
f 10/8/5 8/6/4 6/5/4
f 5/3/2 9/7/2 11/9/2
f 8/6/4 10/8/5 12/10/5
f 10/8/5 13/11/6 12/10/5
f 13/11/6 10/8/5 14/12/6
f 14/12/6 15/11/7 13/11/6
f 15/11/7 14/12/6 16/12/7
f 16/12/7 17/10/8 15/11/7
f 17/10/8 16/12/7 18/8/8
f 18/8/8 19/6/9 17/10/8
f 19/6/9 18/8/8 20/5/9
f 21/1/10 19/6/9 20/5/9
f 19/6/9 21/1/10 22/4/10
f 23/13/11 22/4/10 21/1/10
f 22/4/10 23/13/11 24/14/11
f 25/15/12 24/14/11 23/13/11
f 24/14/11 25/15/12 26/16/12
f 25/15/12 27/17/13 26/16/12
f 27/17/13 25/15/12 28/18/13
f 28/18/13 29/19/14 27/17/13
f 29/19/14 28/18/13 30/20/14
f 30/20/14 31/19/3 29/19/14
f 31/19/3 30/20/14 32/20/3
f 33/21/15 31/19/15 32/20/15
f 31/19/15 33/21/15 34/22/15
f 33/21/16 35/22/17 34/22/16
f 35/22/17 33/21/16 36/21/17
f 36/21/17 37/23/18 35/22/17
f 37/23/18 36/21/17 38/24/18
f 38/24/18 39/25/19 37/23/18
f 39/25/19 38/24/18 40/26/19
f 41/27/20 39/25/19 40/26/19
f 39/25/19 41/27/20 42/28/20
f 43/29/21 42/28/20 41/27/20
f 42/28/20 43/29/21 44/30/21
f 43/29/21 45/2/22 44/30/21
f 45/2/22 43/29/21 46/3/22
f 46/3/22 47/2/3 45/2/22
f 47/2/3 46/3/22 48/3/3
f 49/9/15 47/2/15 48/3/15
f 47/2/15 49/9/15 50/7/15
usemtl material_1_0
f 3//15 2//15 1//23
f 4//23 1//23 2//15
f 3//16 5//16 2//16
f 1//23 4//23 6//24
f 7//16 2//16 5//16
f 8//24 6//24 4//23
f 7//15 5//15 9//15
f 6//24 8//24 10//25
f 11//15 9//15 5//15
f 12//25 10//25 8//24
f 12//25 13//26 10//25
f 14//26 10//25 13//26
f 13//26 15//27 14//26
f 16//27 14//26 15//27
f 15//27 17//28 16//27
f 18//28 16//27 17//28
f 17//28 19//29 18//28
f 20//29 18//28 19//29
f 20//29 19//29 21//30
f 22//30 21//30 19//29
f 21//30 22//30 23//31
f 24//31 23//31 22//30
f 23//31 24//31 25//32
f 26//32 25//32 24//31
f 26//32 27//33 25//32
f 28//33 25//32 27//33
f 27//33 29//34 28//33
f 30//34 28//33 29//34
f 29//34 31//16 30//34
f 32//16 30//34 31//16
f 32//2 31//2 33//2
f 34//2 33//2 31//2
f 34//3 35//35 33//3
f 36//35 33//3 35//35
f 35//35 37//36 36//35
f 38//36 36//35 37//36
f 37//36 39//37 38//36
f 40//37 38//36 39//37
f 40//37 39//37 41//38
f 42//38 41//38 39//37
f 41//38 42//38 43//39
f 44//39 43//39 42//38
f 44//39 45//40 43//39
f 46//40 43//39 45//40
f 45//40 47//16 46//40
f 48//16 46//40 47//16
f 48//2 47//2 49//2
f 50//2 49//2 47//2
