# SSTK version 0.8.0
# 80
mtllib original-80.mtl
o _7085_86_87_88_RT_a1/_7085_86_87_88_RT_a/mesh60/mesh60-geometry#mesh60-geometry
v 0.616377 0.302117 0.391109
v 0.616377 0.303125 0.387347
v 0.614814 0.304645 0.387347
v 0.616377 0.302117 0.383585
v 0.614814 0.303433 0.382825
v 0.614814 0.303433 0.391869
v 0.616377 0.299363 0.393863
v 0.055025 0.303433 0.382825
v 0.055025 0.304645 0.387347
v 0.616377 0.299363 0.380831
v 0.614814 0.300123 0.379515
v 0.614814 0.300123 0.395179
v 0.055025 0.303433 0.391869
v 0.616377 0.295601 0.394871
v 0.053462 0.302117 0.383585
v 0.055025 0.300123 0.379515
v 0.055025 0.300123 0.395179
v 0.614814 0.295601 0.396391
v 0.053462 0.303125 0.387347
v 0.616377 0.295601 0.379823
v 0.053462 0.299363 0.380831
v 0.614814 0.295601 0.378303
v 0.055025 0.295601 0.396391
v 0.053462 0.302117 0.391109
v 0.616377 0.291839 0.393863
v 0.614814 0.291079 0.395179
v 0.053462 0.299363 0.393863
v 0.055025 0.295601 0.378303
v 0.053462 0.295601 0.394871
v 0.616377 0.291839 0.380831
v 0.614814 0.291079 0.379515
v 0.055025 0.291079 0.379515
v 0.053462 0.295601 0.379823
v 0.053462 0.291839 0.393863
v 0.055025 0.291079 0.395179
v 0.616377 0.289085 0.391109
v 0.053462 0.291839 0.380831
v 0.614814 0.287769 0.391869
v 0.616377 0.289085 0.383585
v 0.614814 0.287769 0.382825
v 0.055025 0.287769 0.382825
v 0.053462 0.289085 0.383585
v 0.055025 0.287769 0.391869
v 0.616377 0.288077 0.387347
v 0.053462 0.289085 0.391109
v 0.055025 0.286557 0.387347
v 0.614814 0.286557 0.387347
v 0.053462 0.288077 0.387347
vt 1 0.811361
vt 1 0.859529
vt 0.997223 0.932168
vt 0.997223 0.874268
vt 0.002777 0.874268
vt 1 0.679765
vt 0.002777 0.932168
vt 0.997223 0.716084
vt 0 0.811361
vt 0.002777 0.716084
vt 0.997223 0.5
vt 0 0.859529
vt 1 0.5
vt 0 0.679765
vt 0.002777 0.5
vt 0.997223 0.283916
vt 0 0.5
vt 1 0.320235
vt 0.002777 0.283916
vt 0 0.320235
vt 1 0.188639
vt 0.997223 0.125732
vt 0.002777 0.125732
vt 0 0.188639
vt 1 0.140471
vt 0.002777 0.067832
vt 0.997223 0.067832
vt 0 0.140471
vn 0.6956749738043594 0.6516019754639281 0.3024089886127897
vn 0.695675171018544 0.715508175894112 -0.06390701571032752
vn 0.695675171018544 0.715508175894112 0.06390701571032752
vn 0.6956749738043594 0.6516019754639281 -0.3024089886127897
vn 0.6956750339312028 0.5876950286645318 0.41309902014869865
vn 0.6956750339312028 0.5876950286645318 -0.41309902014869865
vn 0 0.8660253028382762 -0.5000001748438417
vn 0 1 0
vn 0.6970998250652608 0.3584869100389759 0.6209178441828598
vn 0 0.8660253028382762 0.5000001748438417
vn 0.6970998250652608 0.3584869100389759 -0.6209178441828598
vn 0 0.5000001748438417 -0.8660253028382762
vn -0.695675171018544 0.715508175894112 -0.06390701571032752
vn -0.6956750339312028 0.5876950286645318 -0.41309902014869865
vn -0.6956749738043594 0.6516019754639281 -0.3024089886127897
vn 0 0.5000001748438417 0.8660253028382762
vn 0.695675171018544 0.06390701571032752 0.715508175894112
vn -0.6956749738043594 0.6516019754639281 0.3024089886127897
vn -0.695675171018544 0.715508175894112 0.06390701571032752
vn 0.695675171018544 -0.06390701571032752 0.715508175894112
vn 0.6970999558470845 0 -0.7169739545883052
vn -0.6970998250652608 0.3584869100389759 -0.6209178441828598
vn 0 0 -1
vn 0 0 1
vn -0.6956750339312028 0.5876950286645318 0.41309902014869865
vn -0.6970998250652608 0.3584869100389759 0.6209178441828598
vn 0.6970998250652608 -0.3584869100389759 0.6209178441828598
vn -0.6970999558470845 0 -0.7169739545883052
vn -0.695675171018544 -0.06390701571032752 0.715508175894112
vn -0.695675171018544 0.06390701571032752 0.715508175894112
vn 0 -0.5000001748438417 0.8660253028382762
vn 0.6956749738043594 -0.3024089886127897 -0.6516019754639281
vn 0 -0.5000001748438417 -0.8660253028382762
vn -0.6970998250652608 -0.3584869100389759 0.6209178441828598
vn 0.6956750339312028 -0.41309902014869865 -0.5876950286645318
vn 0.6956750339312028 -0.5876950286645318 0.41309902014869865
vn -0.6956750339312028 -0.41309902014869865 -0.5876950286645318
vn -0.6956749738043594 -0.3024089886127897 -0.6516019754639281
vn 0 -0.8660253028382762 0.5000001748438417
vn 0.6956750339312028 -0.5876950286645318 -0.41309902014869865
vn 0.6956749738043594 -0.6516019754639281 0.3024089886127897
vn 0 -0.8660253028382762 -0.5000001748438417
vn -0.6956750339312028 -0.5876950286645318 -0.41309902014869865
vn -0.6956750339312028 -0.5876950286645318 0.41309902014869865
vn 0.6956749738043594 -0.6516019754639281 -0.3024089886127897
vn 0.695675171018544 -0.715508175894112 0.06390701571032752
vn -0.6956749738043594 -0.6516019754639281 -0.3024089886127897
vn -0.6956749738043594 -0.6516019754639281 0.3024089886127897
vn 0 -1 0
vn 0.695675171018544 -0.715508175894112 -0.06390701571032752
vn -0.695675171018544 -0.715508175894112 -0.06390701571032752
vn -0.695675171018544 -0.715508175894112 0.06390701571032752
vn -1 0 0
vn -0.6970998250652608 -0.3584869100389759 -0.6209178441828598
vn -0.695675171018544 -0.06390701571032752 -0.715508175894112
vn -0.695675171018544 0.06390701571032752 -0.715508175894112
vn -0.6970999558470845 0 0.7169739545883052
vn 0.6970998250652608 -0.3584869100389759 -0.6209178441828598
vn 1 0 0
vn 0.6970999558470845 0 0.7169739545883052
vn 0.695675171018544 -0.06390701571032752 -0.715508175894112
vn 0.695675171018544 0.06390701571032752 -0.715508175894112
vn -0.6956749738043594 0.3024089886127897 0.6516019754639281
vn -0.6956750339312028 0.41309902014869865 0.5876950286645318
vn 0.6956749738043594 0.3024089886127897 0.6516019754639281
vn 0.6956750339312028 0.41309902014869865 0.5876950286645318
usemtl material_0_0
f 1/1/1 2/2/2 3/3/3
f 3/3/3 2/2/2 5/4/4
f 6/4/5 1/1/1 3/3/3
f 2/2/2 4/1/6 5/4/4
f 8/5/7 3/3/8 5/4/7
f 6/4/5 7/6/9 1/1/1
f 9/7/8 6/4/10 3/3/8
f 5/4/4 4/1/6 11/8/11
f 3/3/8 8/5/7 9/7/8
f 11/8/12 8/5/7 5/4/7
f 6/4/5 12/8/9 7/6/9
f 6/4/10 9/7/8 13/5/10
f 4/1/6 10/6/11 11/8/11
f 9/7/13 8/5/14 15/9/15
f 8/5/7 11/8/12 16/10/12
f 6/4/10 17/10/16 12/8/16
f 7/6/9 12/8/9 18/11/17
f 13/5/18 9/7/13 19/12/19
f 17/10/16 6/4/10 13/5/10
f 14/13/20 7/6/9 18/11/17
f 10/6/11 20/13/21 11/8/11
f 8/5/14 21/14/22 15/9/15
f 9/7/13 15/9/15 19/12/19
f 22/11/23 16/10/12 11/8/12
f 8/5/14 16/10/22 21/14/22
f 23/15/24 12/8/16 17/10/16
f 12/8/16 23/15/24 18/11/24
f 13/5/18 19/12/19 24/9/25
f 13/5/18 24/9/25 17/10/26
f 14/13/20 18/11/17 26/16/27
f 20/13/21 22/11/21 11/8/11
f 16/10/12 22/11/23 28/15/23
f 16/10/22 28/15/28 21/14/22
f 23/15/29 17/10/26 29/17/30
f 23/15/24 26/16/31 18/11/24
f 24/9/25 27/14/26 17/10/26
f 14/13/20 26/16/27 25/18/27
f 20/13/21 31/16/32 22/11/21
f 22/11/23 32/19/33 28/15/23
f 28/15/28 33/17/28 21/14/22
f 17/10/26 27/14/26 29/17/30
f 23/15/29 29/17/30 34/20/34
f 26/16/31 23/15/24 35/19/31
f 30/18/35 31/16/32 20/13/21
f 25/18/27 26/16/27 36/21/36
f 32/19/33 22/11/23 31/16/33
f 32/19/37 37/20/38 28/15/28
f 28/15/28 37/20/38 33/17/28
f 23/15/29 34/20/34 35/19/34
f 35/19/31 38/22/39 26/16/31
f 30/18/35 40/22/40 31/16/32
f 26/16/27 38/22/41 36/21/36
f 31/16/33 41/23/42 32/19/33
f 37/20/38 32/19/37 42/24/43
f 34/20/34 43/23/44 35/19/34
f 38/22/39 35/19/31 43/23/39
f 30/18/35 39/21/45 40/22/40
f 41/23/42 31/16/33 40/22/42
f 38/22/41 44/25/46 36/21/36
f 32/19/37 41/23/47 42/24/43
f 34/20/34 45/24/48 43/23/44
f 46/26/49 38/22/39 43/23/39
f 47/27/50 39/21/45 44/25/46
f 47/27/50 40/22/40 39/21/45
f 47/27/49 41/23/42 40/22/42
f 38/22/41 47/27/50 44/25/46
f 48/28/51 42/24/43 41/23/47
f 43/23/44 45/24/48 46/26/52
f 38/22/39 46/26/49 47/27/49
f 41/23/42 47/27/49 46/26/49
f 46/26/52 48/28/51 41/23/47
f 45/24/48 48/28/51 46/26/52
usemtl material_1_0
f 3//51 2//52 1//47
f 2//53 4//53 1//53
f 5//48 2//52 3//51
f 3//51 1//47 6//43
f 1//53 4//53 7//53
f 5//48 4//44 2//52
f 5//39 3//49 8//39
f 1//47 7//54 6//43
f 3//49 6//42 9//49
f 4//53 10//53 7//53
f 11//34 4//44 5//48
f 9//49 8//39 3//49
f 5//39 8//39 11//31
f 7//54 12//54 6//43
f 13//42 9//49 6//42
f 7//53 10//53 14//53
f 11//34 10//34 4//44
f 15//41 8//36 9//46
f 16//31 11//31 8//39
f 12//33 17//33 6//42
f 18//55 12//54 7//54
f 19//50 9//46 13//45
f 13//42 6//42 17//33
f 10//53 20//53 14//53
f 18//55 7//54 14//56
f 11//34 20//57 10//34
f 15//41 21//27 8//36
f 19//50 15//41 9//46
f 11//31 16//31 22//24
f 21//27 16//27 8//36
f 17//33 12//33 23//23
f 18//23 23//23 12//33
f 24//40 19//50 13//45
f 17//58 24//40 13//45
f 14//53 20//53 25//53
f 26//22 18//55 14//56
f 11//34 22//57 20//57
f 15//59 27//59 21//59
f 19//59 24//59 15//59
f 28//24 22//24 16//31
f 21//27 28//60 16//27
f 29//61 17//58 23//62
f 18//23 26//12 23//23
f 17//58 27//58 24//40
f 20//53 30//53 25//53
f 25//22 26//22 14//56
f 22//57 31//63 20//57
f 27//59 29//59 21//59
f 24//59 27//59 15//59
f 28//24 32//16 22//24
f 21//27 33//60 28//60
f 29//61 27//58 17//58
f 34//11 29//61 23//62
f 35//12 23//23 26//12
f 25//53 30//53 36//53
f 20//57 31//63 30//64
f 36//14 26//22 25//22
f 31//16 22//24 32//16
f 21//59 29//59 33//59
f 28//60 37//65 32//66
f 33//60 37//65 28//60
f 29//59 34//59 33//59
f 35//11 34//11 23//62
f 26//12 38//7 35//12
f 30//53 39//53 36//53
f 31//63 40//25 30//64
f 36//14 38//15 26//22
f 32//16 41//10 31//16
f 42//5 32//66 37//65
f 33//59 34//59 37//59
f 35//11 43//6 34//11
f 43//7 35//12 38//7
f 44//53 36//53 39//53
f 40//25 39//18 30//64
f 40//10 31//16 41//10
f 36//14 44//13 38//15
f 42//5 41//1 32//66
f 37//59 45//59 42//59
f 34//59 45//59 37//59
f 43//6 45//4 34//11
f 43//7 38//7 46//8
f 44//13 39//18 47//19
f 39//18 40//25 47//19
f 40//10 41//10 47//8
f 44//13 47//19 38//15
f 41//1 42//5 48//3
f 48//59 42//59 45//59
f 46//2 45//4 43//6
f 47//8 46//8 38//7
f 46//8 47//8 41//10
f 41//1 48//3 46//2
f 46//2 48//3 45//4
usemtl material_2_0
f 1//59 4//59 2//59
f 7//59 4//59 1//59
f 7//59 10//59 4//59
f 14//59 10//59 7//59
f 14//59 20//59 10//59
f 25//59 20//59 14//59
f 21//53 27//53 15//53
f 15//53 24//53 19//53
f 25//59 30//59 20//59
f 21//53 29//53 27//53
f 15//53 27//53 24//53
f 36//59 30//59 25//59
f 33//53 29//53 21//53
f 33//53 34//53 29//53
f 36//59 39//59 30//59
f 37//53 34//53 33//53
f 39//59 36//59 44//59
f 42//53 45//53 37//53
f 37//53 45//53 34//53
f 45//53 42//53 48//53
