# SSTK version 0.8.0
# 53
mtllib original-53.mtl
o LT_11_BL1/LT_11_BL/mesh38/mesh38-geometry#mesh38-geometry
v -0.686456 -0.521233 0.339398
v -0.686456 -0.374475 0.337365
v -0.686456 -0.374475 0.339398
v -0.686456 -0.521233 0.337365
v -0.686940 -0.521717 0.341204
v -0.533802 -0.521233 0.339398
v -0.681641 -0.516418 0.337365
v -0.686940 -0.374475 0.341204
v -0.533802 -0.521717 0.341204
v -0.533802 -0.521233 0.337365
v -0.681641 -0.374475 0.337365
v -0.533802 -0.516418 0.337365
v -0.688263 -0.523039 0.342527
v -0.533802 -0.523039 0.342527
v -0.681641 -0.516418 0.339398
v -0.688263 -0.374475 0.342527
v -0.681641 -0.374475 0.339398
v -0.533802 -0.516418 0.339398
v -0.690069 -0.374475 0.343011
v -0.690069 -0.524846 0.343011
v -0.681157 -0.515934 0.341204
v -0.533802 -0.524846 0.343011
v -0.681157 -0.374475 0.341204
v -0.533802 -0.515934 0.341204
v -0.699707 -0.374475 0.343011
v -0.699707 -0.534483 0.343011
v -0.679835 -0.514611 0.342527
v -0.533802 -0.534483 0.343011
v -0.679835 -0.374475 0.342527
v -0.533802 -0.514611 0.342527
v -0.701513 -0.374475 0.342527
v -0.701513 -0.536290 0.342527
v -0.678028 -0.512805 0.343011
v -0.533802 -0.512805 0.343011
v -0.533802 -0.536290 0.342527
v -0.678028 -0.374475 0.343011
v -0.702835 -0.374475 0.341204
v -0.533802 -0.537612 0.341204
v -0.589459 -0.424235 0.343011
v -0.533802 -0.424235 0.343011
v -0.702835 -0.537612 0.341204
v -0.589459 -0.374475 0.343011
v -0.703320 -0.374475 0.339398
v -0.533802 -0.538096 0.339398
v -0.587764 -0.374475 0.341316
v -0.587764 -0.422541 0.341316
v -0.703320 -0.538096 0.339398
v -0.533802 -0.422541 0.341316
v -0.703320 -0.374475 0.317508
v -0.533802 -0.538096 0.317508
v -0.587764 -0.374475 0.333819
v -0.587764 -0.422541 0.333819
v -0.703320 -0.538096 0.317508
v -0.533802 -0.422541 0.333819
v -0.702835 -0.374475 0.315701
v -0.702835 -0.537612 0.315701
v -0.568505 -0.403282 0.334155
v -0.533802 -0.403282 0.334155
v -0.533802 -0.537612 0.315701
v -0.568505 -0.374475 0.334155
v -0.701513 -0.374475 0.314379
v -0.701513 -0.536290 0.314379
v -0.568505 -0.403282 0.336357
v -0.533802 -0.536290 0.314379
v -0.568505 -0.374475 0.336357
v -0.533802 -0.403282 0.336357
v -0.699707 -0.534483 0.313895
v -0.533802 -0.534483 0.313895
v -0.568182 -0.402959 0.337561
v -0.699707 -0.374475 0.313895
v -0.568182 -0.374475 0.337561
v -0.533802 -0.402959 0.337561
v -0.587764 -0.422541 0.313895
v -0.533802 -0.422541 0.313895
v -0.567301 -0.402078 0.338442
v -0.533802 -0.402078 0.338442
v -0.587764 -0.374475 0.313895
v -0.567301 -0.374475 0.338442
v -0.587764 -0.422541 0.315613
v -0.533802 -0.422541 0.315613
v -0.566097 -0.400874 0.338765
v -0.533802 -0.400874 0.338765
v -0.587764 -0.374475 0.315613
v -0.566097 -0.374475 0.338765
v -0.533802 -0.374475 0.315613
v -0.533802 -0.374475 0.338765
vt 0.00905 0.00905
vt 0.00905 0.087806
vt 0.00879 0.00879
vt 0.06358 0.913185
vt 0.06358 0.995105
vt 0.011633 0.011633
vt 0.00879 0.087806
vt 0.063321 0.913185
vt 0.063321 0.995365
vt 0.011633 0.087806
vt 0.066164 0.913185
vt 0.066164 0.992522
vt 0.00808 0.00808
vt 0.062611 0.913185
vt 0.00808 0.087806
vt 0.062611 0.996075
vt 0.007111 0.087806
vt 0.061642 0.997044
vt 0.011893 0.011893
vt 0.066424 0.992262
vt 0.007111 0.007111
vt 0.061642 0.913185
vt 0.011893 0.087806
vt 0.066424 0.913185
vt 0.001939 0.087806
vt 0.05647 1.002216
vt 0.012603 0.012603
vt 0.067134 0.991552
vt 0.001939 0.001939
vt 0.05647 0.913185
vt 0.012603 0.087806
vt 0.067134 0.913185
vt 0.000969 0.087806
vt 0.0555 1.003186
vt 0.013572 0.013572
vt 0.068103 0.913185
vt 0.000969 0.000969
vt 0.0555 0.913185
vt 0.013572 0.087806
vt 0.068103 0.990583
vt 0.00026 0.087806
vt 0.054791 0.913185
vt 0.061102 0.061102
vt 0.115633 0.913185
vt 0.00026 0.00026
vt 0.054791 1.003895
vt 0.061102 0.087806
vt 0.115633 0.943053
vt 0 0.087806
vt 0.054531 0.913185
vt 0.062012 0.087806
vt 0.116543 0.942143
vt 0 0
vt 0.054531 1.004155
vt 0.062012 0.062012
vt 0.116543 0.913185
vt 0.072347 0.072347
vt 0.09097 0.072347
vt 0.09097 0.062012
vt 0.072347 0.087806
vt 0.07252 0.07252
vt 0.07252 0.087806
vt 0.09097 0.07252
vt 0.072993 0.072993
vt 0.09097 0.072993
vt 0.072993 0.087806
vt 0.073639 0.073639
vt 0.09097 0.073639
vt 0.073639 0.087806
vt 0.09097 0.087806
vn 0.9914450180195132 0 0.13052500237229192
vn 1 0 0
vn 0.8660277848787249 0 0.4999958758010398
vn 0 0.9914450180195132 0.13052500237229214
vn 0 1 0
vn 0 0 1
vn 0 0.8660277848787248 0.49999587580104
vn 0.5000090898813921 0 0.8660201556753643
vn 0 0.5000090898813919 0.8660201556753644
vn -0.9914448886106773 0 0.1305259853353411
vn -1 0 0
vn 0 -1 0
vn 0 -0.9914448886106773 0.13052598533534088
vn 0.13053201252063124 0 0.9914440950993221
vn 0 0.130532012520631 0.9914440950993221
vn -0.8660253028382762 0 0.5000001748438417
vn 0 -0.8660253028382763 0.5000001748438415
vn -0.13052696829800536 0 0.9914447592009005
vn 0 -0.13052696829800559 0.9914447592009005
vn -0.5000001748438417 0 0.8660253028382762
vn 0 -0.500000174843842 0.8660253028382761
vn -0.500004040864082 0 0.8660230707779034
vn 0 -0.5000040408640822 0.8660230707779033
vn -0.1305259853353411 0 0.9914448886106773
vn 0 -0.13052598533534132 0.9914448886106773
vn -0.8660304499111627 0 0.49999125975027675
vn 0 -0.866030449911163 0.4999912597502767
vn 0.38269114066638243 0 0.9238763395906744
vn 0 0.3826911406663822 0.9238763395906745
vn -0.9914456820850615 0 0.13051995814773795
vn 0 -0.9914456820850615 0.13051995814773773
vn 0.9238826680189909 0 0.3826758624921504
vn 0 0.9238826680189908 0.38267586249215063
vn -0.9914448886106773 0 -0.1305259853353411
vn 0 -0.9914448886106773 -0.13052598533534132
vn -0.8660253028382762 0 -0.5000001748438417
vn 0 -0.8660253028382761 -0.500000174843842
vn -0.01745199480447211 0 0.9998477023413839
vn 0 -0.01745199480447233 0.9998477023413839
vn -0.5000001748438417 0 -0.8660253028382762
vn 0 -0.5000001748438415 -0.8660253028382763
vn -0.9914423785382255 0 0.13054504984282755
vn 0 -0.9914423785382255 0.13054504984282733
vn -0.1305259853353411 0 -0.9914448886106773
vn 0 -0.13052598533534088 -0.9914448886106773
vn -0.8660102941075379 0 0.5000261698149164
vn 0 -0.866010294107538 0.5000261698149162
vn 0 0 -1
vn -0.49998696068652676 0 0.8660329319046992
vn 0 -0.49998696068652704 0.8660329319046993
vn -0.08759602388564325 -0.08759602388564347 0.9922972705791605
vn 0 -0.13052205348083523 0.9914454062403769
vn -0.130522053480835 0 0.9914454062403769
vn -0.9914450180195132 0 -0.13052500237229192
vn -0.8660277848787249 0 -0.4999958758010398
vn 0 -0.9914450180195132 -0.13052500237229214
vn 0 -0.8660277848787248 -0.49999587580104
vn -0.5000090898813921 0 -0.8660201556753643
vn 0 -0.5000090898813919 -0.8660201556753644
vn 0.9914448886106773 0 -0.1305259853353411
vn 0 0.9914448886106773 -0.13052598533534088
vn -0.13053201252063124 0 -0.9914440950993221
vn 0 -0.130532012520631 -0.9914440950993221
vn 0.8660253028382762 0 -0.5000001748438417
vn 0 0.8660253028382763 -0.5000001748438415
vn 0.13052696829800536 0 -0.9914447592009005
vn 0 0.13052696829800559 -0.9914447592009005
vn 0.5000001748438417 0 -0.8660253028382762
vn 0 0.500000174843842 -0.8660253028382761
vn 0.500004040864082 0 -0.8660230707779034
vn 0 0.5000040408640822 -0.8660230707779033
vn 0.1305259853353411 0 -0.9914448886106773
vn 0 0.13052598533534132 -0.9914448886106773
vn 0.8660304499111627 0 -0.49999125975027675
vn 0 0.866030449911163 -0.4999912597502767
vn -0.38269114066638243 0 -0.9238763395906744
vn 0 -0.3826911406663822 -0.9238763395906745
vn 0.9914456820850615 0 -0.13051995814773795
vn 0 0.9914456820850615 -0.13051995814773773
vn -0.9238826680189909 0 -0.3826758624921504
vn 0 -0.9238826680189908 -0.38267586249215063
vn 0.9914448886106773 0 0.1305259853353411
vn 0 0.9914448886106773 0.13052598533534132
vn 0.8660253028382762 0 0.5000001748438417
vn 0 0.8660253028382761 0.500000174843842
vn 0.01745199480447211 0 -0.9998477023413839
vn 0 0.01745199480447233 -0.9998477023413839
vn 0.5000001748438417 0 0.8660253028382762
vn 0 0.5000001748438415 0.8660253028382763
vn 0.9914423785382255 0 -0.13054504984282755
vn 0 0.9914423785382255 -0.13054504984282733
vn 0.1305259853353411 0 0.9914448886106773
vn 0 0.13052598533534088 0.9914448886106773
vn 0.8660102941075379 0 -0.5000261698149164
vn 0 0.866010294107538 -0.5000261698149162
vn 0.49998696068652676 0 -0.8660329319046992
vn 0 0.49998696068652704 -0.8660329319046993
vn 0.08759602388564325 0.08759602388564347 -0.9922972705791605
vn 0 0.13052205348083523 -0.9914454062403769
vn 0.130522053480835 0 -0.9914454062403769
usemtl material_0_0
f 1/1/1 2/2/2 3/2/1
f 2/2/2 1/1/1 4/1/2
f 3/2/1 5/3/3 1/1/1
f 6/4/4 4/5/5 1/5/4
f 7/6/6 2/2/6 4/1/6
f 5/3/3 3/2/1 8/7/3
f 9/8/7 1/5/4 5/9/7
f 4/5/5 6/4/4 10/4/5
f 1/5/4 9/8/7 6/4/4
f 2/2/6 7/6/6 11/10/6
f 4/5/6 12/11/6 7/12/6
f 8/7/3 13/13/8 5/3/3
f 5/9/7 14/14/9 9/8/7
f 12/11/6 4/5/6 10/4/6
f 15/6/10 11/10/11 7/6/11
f 12/11/12 15/12/13 7/12/12
f 13/13/8 8/7/3 16/15/8
f 14/14/9 5/9/7 13/16/9
f 11/10/11 15/6/10 17/10/10
f 15/12/13 12/11/12 18/11/13
f 19/17/14 13/13/8 16/15/8
f 20/18/15 14/14/9 13/16/9
f 21/19/16 17/10/10 15/6/10
f 18/11/13 21/20/17 15/12/13
f 13/13/8 19/17/14 20/21/14
f 14/14/9 20/18/15 22/22/15
f 17/10/10 21/19/16 23/23/16
f 21/20/17 18/11/13 24/24/17
f 25/25/18 20/21/14 19/17/14
f 26/26/19 22/22/15 20/18/15
f 27/27/20 23/23/16 21/19/16
f 24/24/17 27/28/21 21/20/17
f 20/21/14 25/25/18 26/29/18
f 22/22/15 26/26/19 28/30/19
f 23/23/16 27/27/20 29/31/20
f 27/28/21 24/24/17 30/32/21
f 31/33/22 26/29/18 25/25/18
f 32/34/23 28/30/19 26/26/19
f 33/35/24 29/31/20 27/27/20
f 34/36/25 27/28/21 30/32/21
f 26/29/18 31/33/22 32/37/22
f 28/30/19 32/34/23 35/38/23
f 29/31/20 33/35/24 36/39/24
f 27/28/21 34/36/25 33/40/25
f 37/41/26 32/37/22 31/33/22
f 32/34/23 38/42/27 35/38/23
f 39/43/28 36/39/24 33/35/24
f 40/44/29 33/40/25 34/36/25
f 32/37/22 37/41/26 41/45/26
f 38/42/27 32/34/23 41/46/27
f 36/39/24 39/43/28 42/47/28
f 33/40/25 40/44/29 39/48/29
f 43/49/30 41/45/26 37/41/26
f 41/46/27 44/50/31 38/42/27
f 39/43/28 45/51/32 42/47/28
f 40/44/29 46/52/33 39/48/29
f 41/45/26 43/49/30 47/53/30
f 44/50/31 41/46/27 47/54/31
f 45/51/32 39/43/28 46/55/32
f 46/52/33 40/44/29 48/56/33
f 49/49/34 47/53/30 43/49/30
f 47/54/31 50/50/35 44/50/31
f 46/55/32 51/51/2 45/51/32
f 48/56/33 52/52/5 46/52/33
f 47/53/30 49/49/34 53/53/34
f 50/50/35 47/54/31 53/54/35
f 51/51/2 46/55/32 52/55/2
f 52/52/5 48/56/33 54/56/5
f 55/41/36 53/53/34 49/49/34
f 56/46/37 50/50/35 53/54/35
f 57/57/38 51/51/38 52/55/38
f 58/58/39 52/55/39 54/59/39
f 53/53/34 55/41/36 56/45/36
f 50/50/35 56/46/37 59/42/37
f 51/51/38 57/57/38 60/60/38
f 52/55/39 58/58/39 57/57/39
f 61/33/40 56/45/36 55/41/36
f 62/34/41 59/42/37 56/46/37
f 63/57/42 60/60/11 57/57/11
f 58/58/12 63/57/43 57/57/12
f 56/45/36 61/33/40 62/37/40
f 59/42/37 62/34/41 64/38/41
f 60/60/11 63/57/42 65/60/42
f 63/57/43 58/58/12 66/58/43
f 61/33/40 67/29/44 62/37/40
f 62/34/41 68/30/45 64/38/41
f 69/61/46 65/60/42 63/57/42
f 66/58/43 69/61/47 63/57/43
f 67/29/44 61/33/40 70/25/44
f 68/30/45 62/34/41 67/26/45
f 65/60/42 69/61/46 71/62/46
f 69/61/47 66/58/43 72/63/47
f 70/25/44 73/55/48 67/29/44
f 67/26/45 74/56/48 68/30/45
f 75/64/49 71/62/46 69/61/46
f 76/65/50 69/61/47 72/63/47
f 73/55/48 70/25/44 77/51/48
f 74/56/48 67/26/45 73/52/48
f 71/62/46 75/64/49 78/66/49
f 69/61/47 76/65/50 75/64/50
f 77/51/2 79/55/2 73/55/2
f 73/52/5 80/56/5 74/56/5
f 81/67/51 78/66/49 75/64/49
f 82/68/52 75/64/50 76/65/50
f 79/55/2 77/51/2 83/51/2
f 80/56/5 73/52/5 79/52/5
f 78/66/49 81/67/51 84/69/53
f 75/64/50 82/68/52 81/67/51
f 85/70/48 79/55/48 83/51/48
f 79/55/48 85/70/48 80/59/48
f 81/67/51 86/70/6 84/69/53
f 86/70/6 81/67/51 82/68/52
usemtl material_1_0
f 3//54 2//11 1//54
f 4//11 1//54 2//11
f 1//54 5//55 3//54
f 1//56 4//12 6//56
f 4//48 2//48 7//48
f 8//55 3//54 5//55
f 5//57 1//56 9//57
f 10//12 6//56 4//12
f 6//56 9//57 1//56
f 11//48 7//48 2//48
f 7//48 12//48 4//48
f 5//55 13//58 8//55
f 9//57 14//59 5//57
f 10//48 4//48 12//48
f 7//2 11//2 15//60
f 7//5 15//61 12//5
f 16//58 8//55 13//58
f 13//59 5//57 14//59
f 17//60 15//60 11//2
f 18//61 12//5 15//61
f 16//58 13//58 19//62
f 13//59 14//59 20//63
f 15//60 17//60 21//64
f 15//61 21//65 18//61
f 20//62 19//62 13//58
f 22//63 20//63 14//59
f 23//64 21//64 17//60
f 24//65 18//61 21//65
f 19//62 20//62 25//66
f 20//63 22//63 26//67
f 21//64 23//64 27//68
f 21//65 27//69 24//65
f 26//66 25//66 20//62
f 28//67 26//67 22//63
f 29//68 27//68 23//64
f 30//69 24//65 27//69
f 25//66 26//66 31//70
f 26//67 28//67 32//71
f 27//68 29//68 33//72
f 30//69 27//69 34//73
f 32//70 31//70 26//66
f 35//71 32//71 28//67
f 36//72 33//72 29//68
f 33//73 34//73 27//69
f 31//70 32//70 37//74
f 35//71 38//75 32//71
f 33//72 36//72 39//76
f 34//73 33//73 40//77
f 41//74 37//74 32//70
f 41//75 32//71 38//75
f 42//76 39//76 36//72
f 39//77 40//77 33//73
f 37//74 41//74 43//78
f 38//75 44//79 41//75
f 42//76 45//80 39//76
f 39//77 46//81 40//77
f 47//78 43//78 41//74
f 47//79 41//75 44//79
f 46//80 39//76 45//80
f 48//81 40//77 46//81
f 43//78 47//78 49//82
f 44//79 50//83 47//79
f 45//80 51//11 46//80
f 46//81 52//12 48//81
f 53//82 49//82 47//78
f 53//83 47//79 50//83
f 52//11 46//80 51//11
f 54//12 48//81 52//12
f 49//82 53//82 55//84
f 53//83 50//83 56//85
f 52//86 51//86 57//86
f 54//87 52//87 58//87
f 56//84 55//84 53//82
f 59//85 56//85 50//83
f 60//86 57//86 51//86
f 57//87 58//87 52//87
f 55//84 56//84 61//88
f 56//85 59//85 62//89
f 57//2 60//2 63//90
f 57//5 63//91 58//5
f 62//88 61//88 56//84
f 64//89 62//89 59//85
f 65//90 63//90 60//2
f 66//91 58//5 63//91
f 62//88 67//92 61//88
f 64//89 68//93 62//89
f 63//90 65//90 69//94
f 63//91 69//95 66//91
f 70//92 61//88 67//92
f 67//93 62//89 68//93
f 71//94 69//94 65//90
f 72//95 66//91 69//95
f 67//92 73//6 70//92
f 68//93 74//6 67//93
f 69//94 71//94 75//96
f 72//95 69//95 76//97
f 77//6 70//92 73//6
f 73//6 67//93 74//6
f 78//96 75//96 71//94
f 75//97 76//97 69//95
f 73//11 79//11 77//11
f 74//12 80//12 73//12
f 75//96 78//96 81//98
f 76//97 75//97 82//99
f 83//11 77//11 79//11
f 79//12 73//12 80//12
f 84//100 81//98 78//96
f 81//98 82//99 75//97
f 83//6 79//6 85//6
f 80//6 85//6 79//6
f 84//100 86//48 81//98
f 82//99 81//98 86//48
