# SSTK version 0.8.0
# 37
mtllib original-37.mtl
o DF_12_BL1/DF_12_BL/mesh25/mesh25-geometry#mesh25-geometry
v -0.686456 0.361962 0.339398
v -0.686940 0.435574 0.341204
v -0.686940 0.361478 0.341204
v -0.686456 0.435574 0.339398
v -0.688263 0.435574 0.342527
v -0.567405 0.361478 0.341204
v -0.686456 0.361962 0.337365
v -0.688263 0.360155 0.342527
v -0.567405 0.361962 0.339398
v -0.567405 0.360155 0.342527
v -0.686456 0.435574 0.337365
v -0.690069 0.435574 0.343011
v -0.681641 0.366777 0.337365
v -0.567405 0.361962 0.337365
v -0.690069 0.358349 0.343011
v -0.681641 0.435574 0.337365
v -0.567405 0.366777 0.337365
v -0.699707 0.435574 0.343011
v -0.567405 0.358349 0.343011
v -0.681641 0.366777 0.339398
v -0.699707 0.348712 0.343011
v -0.681641 0.435574 0.339398
v -0.567405 0.366777 0.339398
v -0.701513 0.435574 0.342527
v -0.567405 0.348712 0.343011
v -0.681157 0.367261 0.341204
v -0.701513 0.346905 0.342527
v -0.681157 0.435574 0.341204
v -0.567405 0.367261 0.341204
v -0.702835 0.435574 0.341204
v -0.567405 0.346905 0.342527
v -0.679835 0.368583 0.342527
v -0.702835 0.345583 0.341204
v -0.567405 0.345583 0.341204
v -0.679835 0.435574 0.342527
v -0.567405 0.368583 0.342527
v -0.703320 0.435574 0.339398
v -0.678028 0.370390 0.343011
v -0.567405 0.370390 0.343011
v -0.703320 0.345099 0.339398
v -0.567405 0.345099 0.339398
v -0.678028 0.435574 0.343011
v -0.703320 0.435574 0.317508
v -0.620756 0.427644 0.343011
v -0.567405 0.427644 0.343011
v -0.703320 0.345099 0.317508
v -0.567405 0.345099 0.317508
v -0.620756 0.435574 0.343011
v -0.702835 0.435574 0.315701
v -0.619061 0.429339 0.341316
v -0.702835 0.345583 0.315701
v -0.619061 0.435574 0.341316
v -0.567405 0.429339 0.341316
v -0.701513 0.346905 0.314379
v -0.567405 0.345583 0.315701
v -0.619061 0.429339 0.333819
v -0.701513 0.435574 0.314379
v -0.619061 0.435574 0.333819
v -0.567405 0.429339 0.333819
v -0.699707 0.348712 0.313895
v -0.567405 0.346905 0.314379
v -0.567405 0.435574 0.333819
v -0.699707 0.435574 0.313895
v -0.619061 0.429339 0.313895
v -0.567405 0.348712 0.313895
v -0.619061 0.435574 0.313895
v -0.619061 0.435574 0.315613
v -0.567405 0.429339 0.313895
v -0.619061 0.429339 0.315613
v -0.567405 0.429339 0.315613
v -0.567405 0.435574 0.315613
vt 0.06358 0.477287
vt 0.103084 0.477546
vt 0.063321 0.477546
vt 0.103084 0.477287
vt 0.103084 0.478256
vt 0.063321 0.413399
vt 0.062611 0.478256
vt 0.06358 0.413399
vt 0.062611 0.413399
vt 0.103084 0.479226
vt 0.066164 0.474703
vt 0.061641 0.479226
vt 0.103084 0.474703
vt 0.066164 0.413399
vt 0.103084 0.484397
vt 0.061641 0.413399
vt 0.05647 0.484397
vt 0.103084 0.485367
vt 0.05647 0.413399
vt 0.066424 0.474443
vt 0.0555 0.485367
vt 0.103084 0.474443
vt 0.066424 0.413399
vt 0.103084 0.486076
vt 0.0555 0.413399
vt 0.067134 0.473733
vt 0.05479 0.486076
vt 0.05479 0.413399
vt 0.103084 0.473733
vt 0.067134 0.413399
vt 0.103084 0.486336
vt 0.068103 0.472764
vt 0.068103 0.413399
vt 0.054531 0.486336
vt 0.054531 0.413399
vt 0.103084 0.472764
vt 0.098828 0.442029
vt 0.098828 0.413399
vt 0.103084 0.442029
vt 0.099737 0.44112
vt 0.054791 0.486076
vt 0.103084 0.44112
vt 0.099737 0.413399
vt 0.103084 0.413399
vn 0.9914450180195132 0 0.13052500237229192
vn 0.8660277848787249 0 0.4999958758010398
vn 0.5000090898813921 0 0.8660201556753643
vn 0 0.8660277848787248 0.49999587580104
vn 0 0.9914450180195132 0.13052500237229214
vn 1 0 0
vn 0 0.5000090898813919 0.8660201556753644
vn 0 1 0
vn 0.13053201252063124 0 0.9914440950993221
vn 0 0 1
vn 0 0.130532012520631 0.9914440950993221
vn -0.13052696829800536 0 0.9914447592009005
vn -0.9914448886106773 0 0.1305259853353411
vn -1 0 0
vn 0 -1 0
vn 0 -0.9914448886106773 0.13052598533534088
vn 0 -0.13052696829800559 0.9914447592009005
vn -0.500004040864082 0 0.8660230707779034
vn -0.8660253028382762 0 0.5000001748438417
vn 0 -0.8660253028382763 0.5000001748438415
vn 0 -0.5000040408640822 0.8660230707779033
vn -0.8660304499111627 0 0.49999125975027675
vn -0.5000001748438417 0 0.8660253028382762
vn 0 -0.500000174843842 0.8660253028382761
vn 0 -0.866030449911163 0.4999912597502767
vn -0.9914456820850615 0 0.13051995814773795
vn -0.1305259853353411 0 0.9914448886106773
vn 0 -0.13052598533534132 0.9914448886106773
vn 0 -0.9914456820850615 0.13051995814773773
vn -0.9914448886106773 0 -0.1305259853353411
vn 0.38269114066638243 0 0.9238763395906744
vn 0 0.3826911406663822 0.9238763395906745
vn 0 -0.9914448886106773 -0.13052598533534132
vn -0.8660253028382762 0 -0.5000001748438417
vn 0.9238826680189909 0 0.3826758624921504
vn 0 0.9238826680189908 0.38267586249215063
vn 0 -0.8660253028382761 -0.500000174843842
vn -0.5000001748438417 0 -0.8660253028382762
vn 0 -0.5000001748438415 -0.8660253028382763
vn -0.1305259853353411 0 -0.9914448886106773
vn 0 -0.13052598533534088 -0.9914448886106773
vn 0 0 -1
vn -0.8660277848787249 0 -0.4999958758010398
vn -0.9914450180195132 0 -0.13052500237229192
vn -0.5000090898813921 0 -0.8660201556753643
vn 0 -0.8660277848787248 -0.49999587580104
vn 0 -0.9914450180195132 -0.13052500237229214
vn 0 -0.5000090898813919 -0.8660201556753644
vn -0.13053201252063124 0 -0.9914440950993221
vn 0 -0.130532012520631 -0.9914440950993221
vn 0.13052696829800536 0 -0.9914447592009005
vn 0.9914448886106773 0 -0.1305259853353411
vn 0 0.9914448886106773 -0.13052598533534088
vn 0 0.13052696829800559 -0.9914447592009005
vn 0.500004040864082 0 -0.8660230707779034
vn 0.8660253028382762 0 -0.5000001748438417
vn 0 0.8660253028382763 -0.5000001748438415
vn 0 0.5000040408640822 -0.8660230707779033
vn 0.8660304499111627 0 -0.49999125975027675
vn 0.5000001748438417 0 -0.8660253028382762
vn 0 0.500000174843842 -0.8660253028382761
vn 0 0.866030449911163 -0.4999912597502767
vn 0.9914456820850615 0 -0.13051995814773795
vn 0.1305259853353411 0 -0.9914448886106773
vn 0 0.13052598533534132 -0.9914448886106773
vn 0 0.9914456820850615 -0.13051995814773773
vn 0.9914448886106773 0 0.1305259853353411
vn -0.38269114066638243 0 -0.9238763395906744
vn 0 -0.3826911406663822 -0.9238763395906745
vn 0 0.9914448886106773 0.13052598533534132
vn 0.8660253028382762 0 0.5000001748438417
vn -0.9238826680189909 0 -0.3826758624921504
vn 0 -0.9238826680189908 -0.38267586249215063
vn 0 0.8660253028382761 0.500000174843842
vn 0.5000001748438417 0 0.8660253028382762
vn 0 0.5000001748438415 0.8660253028382763
vn 0.1305259853353411 0 0.9914448886106773
vn 0 0.13052598533534088 0.9914448886106773
usemtl material_0_0
f 1/1/1 2/2/2 3/3/2
f 2/2/2 1/1/1 4/4/1
f 5/5/3 3/3/2 2/2/2
f 6/6/4 1/1/5 3/3/4
f 7/1/6 4/4/1 1/1/1
f 3/3/2 5/5/3 8/7/3
f 1/1/5 6/6/4 9/8/5
f 3/3/4 10/9/7 6/6/4
f 4/4/1 7/1/6 11/4/6
f 9/8/5 7/1/8 1/1/5
f 12/10/9 8/7/3 5/5/3
f 10/9/7 3/3/4 8/7/7
f 13/11/10 11/4/10 7/1/10
f 7/1/8 9/8/5 14/8/8
f 8/7/3 12/10/9 15/12/9
f 15/12/11 10/9/7 8/7/7
f 11/4/10 13/11/10 16/13/10
f 7/1/10 17/14/10 13/11/10
f 17/14/10 7/1/10 14/8/10
f 18/15/12 15/12/9 12/10/9
f 10/9/7 15/12/11 19/16/11
f 20/11/13 16/13/14 13/11/14
f 17/14/15 20/11/16 13/11/15
f 15/12/9 18/15/12 21/17/12
f 21/17/17 19/16/11 15/12/11
f 16/13/14 20/11/13 22/13/13
f 20/11/16 17/14/15 23/14/16
f 24/18/18 21/17/12 18/15/12
f 19/16/11 21/17/17 25/19/17
f 26/20/19 22/13/13 20/11/13
f 23/14/16 26/20/20 20/11/16
f 21/17/12 24/18/18 27/21/18
f 27/21/21 25/19/17 21/17/17
f 22/13/13 26/20/19 28/22/19
f 26/20/20 23/14/16 29/23/20
f 30/24/22 27/21/18 24/18/18
f 25/19/17 27/21/21 31/25/21
f 32/26/23 28/22/19 26/20/19
f 29/23/20 32/26/24 26/20/20
f 27/21/18 30/24/22 33/27/22
f 27/21/21 34/28/25 31/25/21
f 28/22/19 32/26/23 35/29/23
f 32/26/24 29/23/20 36/30/24
f 37/31/26 33/27/22 30/24/22
f 34/28/25 27/21/21 33/27/25
f 38/32/27 35/29/23 32/26/23
f 39/33/28 32/26/24 36/30/24
f 33/27/22 37/31/26 40/34/26
f 33/27/25 41/35/29 34/28/25
f 35/29/23 38/32/27 42/36/27
f 32/26/24 39/33/28 38/32/28
f 43/31/30 40/34/26 37/31/26
f 41/35/29 33/27/25 40/34/29
f 44/37/31 42/36/27 38/32/27
f 45/38/32 38/32/28 39/33/28
f 40/34/26 43/31/30 46/34/30
f 40/34/29 47/35/33 41/35/29
f 42/36/27 44/37/31 48/39/31
f 38/32/28 45/38/32 44/37/32
f 49/24/34 46/34/30 43/31/30
f 47/35/33 40/34/29 46/34/33
f 50/40/35 48/39/31 44/37/31
f 45/38/32 50/40/36 44/37/32
f 46/34/30 49/24/34 51/41/34
f 51/41/37 47/35/33 46/34/33
f 48/39/31 50/40/35 52/42/35
f 50/40/36 45/38/32 53/43/36
f 49/24/34 54/21/38 51/41/34
f 47/35/33 51/41/37 55/28/37
f 56/40/6 52/42/35 50/40/35
f 53/43/36 56/40/8 50/40/36
f 54/21/38 49/24/34 57/18/38
f 54/21/39 55/28/37 51/41/37
f 52/42/35 56/40/6 58/42/6
f 56/40/8 53/43/36 59/43/8
f 57/18/38 60/17/40 54/21/38
f 55/28/37 54/21/39 61/25/39
f 56/40/10 62/44/10 58/42/10
f 62/44/10 56/40/10 59/43/10
f 60/17/40 57/18/38 63/15/40
f 60/17/41 61/25/39 54/21/39
f 63/15/40 64/40/42 60/17/40
f 61/25/39 60/17/41 65/19/41
f 64/40/42 63/15/40 66/42/42
f 64/40/42 65/19/41 60/17/41
f 67/42/6 64/40/6 66/42/6
f 65/19/41 64/40/42 68/43/42
f 64/40/6 67/42/6 69/40/6
f 64/40/8 70/43/8 68/43/8
f 67/42/42 70/43/42 69/40/42
f 70/43/8 64/40/8 69/40/8
f 70/43/42 67/42/42 71/44/42
usemtl material_1_0
f 3//43 2//43 1//44
f 4//44 1//44 2//43
f 2//43 3//43 5//45
f 3//46 1//47 6//46
f 1//44 4//44 7//14
f 8//45 5//45 3//43
f 9//47 6//46 1//47
f 6//46 10//48 3//46
f 11//14 7//14 4//44
f 1//47 7//15 9//47
f 5//45 8//45 12//49
f 8//48 3//46 10//48
f 7//42 11//42 13//42
f 14//15 9//47 7//15
f 15//49 12//49 8//45
f 8//48 10//48 15//50
f 16//42 13//42 11//42
f 13//42 17//42 7//42
f 14//42 7//42 17//42
f 12//49 15//49 18//51
f 19//50 15//50 10//48
f 13//6 16//6 20//52
f 13//8 20//53 17//8
f 21//51 18//51 15//49
f 15//50 19//50 21//54
f 22//52 20//52 16//6
f 23//53 17//8 20//53
f 18//51 21//51 24//55
f 25//54 21//54 19//50
f 20//52 22//52 26//56
f 20//53 26//57 23//53
f 27//55 24//55 21//51
f 21//54 25//54 27//58
f 28//56 26//56 22//52
f 29//57 23//53 26//57
f 24//55 27//55 30//59
f 31//58 27//58 25//54
f 26//56 28//56 32//60
f 26//57 32//61 29//57
f 33//59 30//59 27//55
f 31//58 34//62 27//58
f 35//60 32//60 28//56
f 36//61 29//57 32//61
f 30//59 33//59 37//63
f 33//62 27//58 34//62
f 32//60 35//60 38//64
f 36//61 32//61 39//65
f 40//63 37//63 33//59
f 34//62 41//66 33//62
f 42//64 38//64 35//60
f 38//65 39//65 32//61
f 37//63 40//63 43//67
f 40//66 33//62 41//66
f 38//64 42//64 44//68
f 39//65 38//65 45//69
f 46//67 43//67 40//63
f 41//66 47//70 40//66
f 48//68 44//68 42//64
f 44//69 45//69 38//65
f 43//67 46//67 49//71
f 46//70 40//66 47//70
f 44//68 48//68 50//72
f 44//69 50//73 45//69
f 51//71 49//71 46//67
f 46//70 47//70 51//74
f 52//72 50//72 48//68
f 53//73 45//69 50//73
f 51//71 54//75 49//71
f 55//74 51//74 47//70
f 50//72 52//72 56//14
f 50//73 56//15 53//73
f 57//75 49//71 54//75
f 51//74 55//74 54//76
f 58//14 56//14 52//72
f 59//15 53//73 56//15
f 54//75 60//77 57//75
f 61//76 54//76 55//74
f 58//42 62//42 56//42
f 59//42 56//42 62//42
f 63//77 57//75 60//77
f 54//76 61//76 60//78
f 60//77 64//10 63//77
f 65//78 60//78 61//76
f 66//10 63//77 64//10
f 60//78 65//78 64//10
f 66//14 64//14 67//14
f 68//10 64//10 65//78
f 69//14 67//14 64//14
f 68//15 70//15 64//15
f 69//10 70//10 67//10
f 69//15 64//15 70//15
f 71//10 67//10 70//10
