# SSTK version 0.8.0
# 43
mtllib original-43.mtl
o DF_12_CR1/DF_12_CR/mesh30/mesh30-geometry#mesh30-geometry
v 0.658027 0.435574 0.339398
v 0.657543 0.521522 0.341204
v 0.657543 0.435574 0.341204
v 0.658027 0.521522 0.339398
v 0.656220 0.521522 0.342527
v 0.658027 0.435574 0.337365
v 0.656220 0.435574 0.342527
v 0.658027 0.521522 0.337365
v 0.654414 0.435574 0.343011
v 0.662842 0.521522 0.337365
v 0.654414 0.521522 0.343011
v 0.662842 0.435574 0.337365
v 0.597141 0.435574 0.343011
v 0.662842 0.435574 0.339398
v 0.597141 0.521522 0.343011
v 0.662842 0.521522 0.339398
v 0.595446 0.521522 0.341316
v 0.663326 0.435574 0.341204
v 0.595446 0.435574 0.341316
v 0.663326 0.521522 0.341204
v 0.595446 0.521522 0.333819
v 0.664648 0.435574 0.342527
v 0.595446 0.435574 0.333819
v 0.664648 0.521522 0.342527
v 0.543791 0.435574 0.333819
v 0.666455 0.521522 0.343011
v 0.543791 0.521522 0.333819
v 0.666455 0.435574 0.343011
v 0.676092 0.521522 0.343011
v 0.676092 0.435574 0.343011
v 0.677899 0.521522 0.342527
v 0.677899 0.435574 0.342527
v 0.679221 0.435574 0.341204
v 0.679221 0.521522 0.341204
v 0.679705 0.435574 0.339398
v 0.679705 0.521522 0.339398
v 0.679705 0.435574 0.317508
v 0.679705 0.521522 0.317508
v 0.679221 0.435574 0.315701
v 0.679221 0.521522 0.315701
v 0.677899 0.521522 0.314379
v 0.677899 0.435574 0.314379
v 0.676092 0.521522 0.313895
v 0.676092 0.435574 0.313895
v 0.595446 0.521522 0.313895
v 0.595446 0.435574 0.313895
v 0.595446 0.435574 0.315613
v 0.595446 0.521522 0.315613
v 0.543791 0.521522 0.315613
v 0.543791 0.435574 0.315613
vt 0.103067 -0.119218
vt 0.133572 -0.118958
vt 0.103067 -0.118958
vt 0.133572 -0.119218
vt 0.133572 -0.118248
vt 0.103067 -0.118248
vt 0.103067 -0.117279
vt 0.133572 -0.121802
vt 0.133572 -0.117279
vt 0.103067 -0.121802
vt 0.103067 -0.086544
vt 0.133572 -0.086544
vt 0.133572 -0.085635
vt 0.103067 -0.122061
vt 0.103067 -0.085635
vt 0.133572 -0.122061
vt 0.103067 -0.122771
vt 0.133572 -0.122771
vt 0.103067 -0.057914
vt 0.133572 -0.123741
vt 0.133572 -0.057914
vt 0.103067 -0.123741
vt 0.133572 -0.128912
vt 0.103067 -0.128912
vt 0.133572 -0.129882
vt 0.103067 -0.129882
vt 0.103067 -0.130592
vt 0.133572 -0.130592
vt 0.103067 -0.130851
vt 0.133572 -0.130851
vn 0.9914448886106773 0 0.1305259853353411
vn 0.8660253028382762 0 0.5000001748438417
vn 0.5000001748438417 0 0.8660253028382762
vn 1 0 0
vn 0.1305259853353411 0 0.9914448886106773
vn 0 0 1
vn -0.38269114066638243 0 0.9238763395906744
vn -0.9914450180195132 0 0.13052500237229192
vn -1 0 0
vn -0.9238826680189909 0 0.3826758624921504
vn -0.8660277848787249 0 0.4999958758010398
vn -0.5000090898813921 0 0.8660201556753643
vn -0.13053201252063124 0 0.9914440950993221
vn 0.13052696829800536 0 0.9914447592009005
vn 0.500004040864082 0 0.8660230707779034
vn 0.8660304499111627 0 0.49999125975027675
vn 0.9914456820850615 0 0.13051995814773795
vn 0.9914448886106773 0 -0.1305259853353411
vn 0.8660253028382762 0 -0.5000001748438417
vn 0.5000001748438417 0 -0.8660253028382762
vn 0.1305259853353411 0 -0.9914448886106773
vn 0 0 -1
vn -0.8660253028382762 0 -0.5000001748438417
vn -0.9914448886106773 0 -0.1305259853353411
vn -0.5000001748438417 0 -0.8660253028382762
vn -0.1305259853353411 0 -0.9914448886106773
vn 0.38269114066638243 0 -0.9238763395906744
vn 0.9914450180195132 0 -0.13052500237229192
vn 0.9238826680189909 0 -0.3826758624921504
vn 0.8660277848787249 0 -0.4999958758010398
vn 0.5000090898813921 0 -0.8660201556753643
vn 0.13053201252063124 0 -0.9914440950993221
vn -0.13052696829800536 0 -0.9914447592009005
vn -0.500004040864082 0 -0.8660230707779034
vn -0.8660304499111627 0 -0.49999125975027675
vn -0.9914456820850615 0 -0.13051995814773795
vn -0.9914448886106773 0 0.1305259853353411
vn -0.8660253028382762 0 0.5000001748438417
vn -0.5000001748438417 0 0.8660253028382762
vn -0.1305259853353411 0 0.9914448886106773
usemtl material_0_0
f 1/1/1 2/2/2 3/3/2
f 2/2/2 1/1/1 4/4/1
f 5/5/3 3/3/2 2/2/2
f 6/1/4 4/4/1 1/1/1
f 3/3/2 5/5/3 7/6/3
f 4/4/1 6/1/4 8/4/4
f 5/5/3 9/7/5 7/6/3
f 6/1/6 10/8/6 8/4/6
f 9/7/5 5/5/3 11/9/5
f 10/8/6 6/1/6 12/10/6
f 11/9/5 13/11/7 9/7/5
f 14/10/8 10/8/9 12/10/9
f 13/11/7 11/9/5 15/12/7
f 10/8/9 14/10/8 16/8/8
f 17/13/10 13/11/7 15/12/7
f 18/14/11 16/8/8 14/10/8
f 13/11/7 17/13/10 19/15/10
f 16/8/8 18/14/11 20/16/11
f 21/13/9 19/15/10 17/13/10
f 22/17/12 20/16/11 18/14/11
f 19/15/10 21/13/9 23/15/9
f 20/16/11 22/17/12 24/18/12
f 21/13/6 25/19/6 23/15/6
f 22/17/12 26/20/13 24/18/12
f 25/19/6 21/13/6 27/21/6
f 26/20/13 22/17/12 28/22/13
f 28/22/13 29/23/14 26/20/13
f 29/23/14 28/22/13 30/24/14
f 30/24/14 31/25/15 29/23/14
f 31/25/15 30/24/14 32/26/15
f 33/27/16 31/25/15 32/26/15
f 31/25/15 33/27/16 34/28/16
f 35/29/17 34/28/16 33/27/16
f 34/28/16 35/29/17 36/30/17
f 37/29/18 36/30/17 35/29/17
f 36/30/17 37/29/18 38/30/18
f 39/27/19 38/30/18 37/29/18
f 38/30/18 39/27/19 40/28/19
f 39/27/19 41/25/20 40/28/19
f 41/25/20 39/27/19 42/26/20
f 42/26/20 43/23/21 41/25/20
f 43/23/21 42/26/20 44/24/21
f 44/24/21 45/13/22 43/23/21
f 45/13/22 44/24/21 46/15/22
f 47/15/9 45/13/9 46/15/9
f 45/13/9 47/15/9 48/13/9
f 47/15/22 49/21/22 48/13/22
f 49/21/22 47/15/22 50/19/22
usemtl material_1_0
f 3//23 2//23 1//24
f 4//24 1//24 2//23
f 2//23 3//23 5//25
f 1//24 4//24 6//9
f 7//25 5//25 3//23
f 8//9 6//9 4//24
f 7//25 9//26 5//25
f 8//22 10//22 6//22
f 11//26 5//25 9//26
f 12//22 6//22 10//22
f 9//26 13//27 11//26
f 12//4 10//4 14//28
f 15//27 11//26 13//27
f 16//28 14//28 10//4
f 15//27 13//27 17//29
f 14//28 16//28 18//30
f 19//29 17//29 13//27
f 20//30 18//30 16//28
f 17//29 19//29 21//4
f 18//30 20//30 22//31
f 23//4 21//4 19//29
f 24//31 22//31 20//30
f 23//22 25//22 21//22
f 24//31 26//32 22//31
f 27//22 21//22 25//22
f 28//32 22//31 26//32
f 26//32 29//33 28//32
f 30//33 28//32 29//33
f 29//33 31//34 30//33
f 32//34 30//33 31//34
f 32//34 31//34 33//35
f 34//35 33//35 31//34
f 33//35 34//35 35//36
f 36//36 35//36 34//35
f 35//36 36//36 37//37
f 38//37 37//37 36//36
f 37//37 38//37 39//38
f 40//38 39//38 38//37
f 40//38 41//39 39//38
f 42//39 39//38 41//39
f 41//39 43//40 42//39
f 44//40 42//39 43//40
f 43//40 45//6 44//40
f 46//6 44//40 45//6
f 46//4 45//4 47//4
f 48//4 47//4 45//4
f 48//6 49//6 47//6
f 50//6 47//6 49//6
