# SSTK version 0.8.0
# 57
mtllib original-57.mtl
o LT_11_TC1/LT_11_TC/mesh41/mesh41-geometry#mesh41-geometry
v -0.183266 0.194522 0.338442
v -0.533802 0.193318 0.338765
v -0.183266 0.193318 0.338765
v -0.533802 0.194522 0.338442
v -0.533802 0.166919 0.338765
v -0.183266 0.195403 0.337561
v -0.183266 0.166919 0.338765
v -0.533802 0.195403 0.337561
v -0.533802 0.195726 0.336357
v -0.183266 0.195726 0.336357
v -0.533802 0.195726 0.334155
v -0.183266 0.195726 0.334155
v -0.183266 0.214985 0.333819
v -0.533802 0.214985 0.333819
v -0.533802 0.214985 0.341316
v -0.183266 0.214985 0.341316
v -0.533802 0.216680 0.343011
v -0.183266 0.216680 0.343011
v -0.183266 0.305249 0.343011
v -0.533802 0.305249 0.343011
v -0.183266 0.307056 0.342527
v -0.533802 0.307056 0.342527
v -0.533802 0.308378 0.341204
v -0.183266 0.308378 0.341204
v -0.533802 0.308862 0.339398
v -0.183266 0.308862 0.339398
v -0.533802 0.308862 0.337365
v -0.183266 0.308862 0.337365
v -0.183266 0.313677 0.337365
v -0.533802 0.313677 0.337365
v -0.533802 0.313677 0.339398
v -0.183266 0.313677 0.339398
v -0.533802 0.314161 0.341204
v -0.183266 0.314161 0.341204
v -0.533802 0.315484 0.342527
v -0.183266 0.315484 0.342527
v -0.183266 0.317290 0.343011
v -0.533802 0.317290 0.343011
v -0.183266 0.326927 0.343011
v -0.533802 0.326927 0.343011
v -0.183266 0.328734 0.342527
v -0.533802 0.328734 0.342527
v -0.533802 0.330056 0.341204
v -0.183266 0.330056 0.341204
v -0.533802 0.330540 0.339398
v -0.183266 0.330540 0.339398
v -0.533802 0.330540 0.317508
v -0.183266 0.330540 0.317508
v -0.533802 0.330056 0.315701
v -0.183266 0.330056 0.315701
v -0.533802 0.328734 0.314379
v -0.183266 0.328734 0.314379
v -0.183266 0.326927 0.313895
v -0.533802 0.326927 0.313895
v -0.183266 0.214985 0.313895
v -0.533802 0.214985 0.313895
v -0.533802 0.214985 0.315613
v -0.183266 0.214985 0.315613
v -0.183266 0.166919 0.315613
v -0.533802 0.166919 0.315613
vt 0.248874 0.408778
vt 0.09097 0.408132
vt 0.248874 0.408132
vt 0.09097 0.408778
vt 0.09097 0.393965
vt 0.248874 0.409251
vt 0.248874 0.393965
vt 0.09097 0.409251
vt 0.09097 0.409424
vt 0.248874 0.409424
vt 0.248874 0.419759
vt 0.09097 0.419759
vt 0.297207 0.755281
vt 0.297207 0.913185
vt 0.298116 0.913185
vt 0.298116 0.755281
vt 0.345646 0.755281
vt 0.345646 0.913185
vt 0.346616 0.755281
vt 0.346616 0.913185
vt 0.347325 0.913185
vt 0.347325 0.755281
vt 0.347585 0.913185
vt 0.347585 0.755281
vt 0.350169 0.755281
vt 0.350169 0.913185
vt 0.350429 0.913185
vt 0.350429 0.755281
vt 0.351138 0.913185
vt 0.351138 0.755281
vt 0.352108 0.755281
vt 0.352108 0.913185
vt 0.35728 0.755281
vt 0.35728 0.913185
vt 0.358249 0.755281
vt 0.358249 0.913185
vt 0.358959 0.913185
vt 0.358959 0.755281
vt 0.359218 0.913185
vt 0.359218 0.755281
vn 0 0.4999869606865266 0.8660329319046993
vn 0 0.13052205348083482 0.9914454062403771
vn 0 0 1
vn 0 0.8660102941075378 0.5000261698149167
vn 0 0.9914423785382253 0.13054504984282775
vn 0 1 0
vn 0 0.017451994804471887 0.9998477023413839
vn 0 -1 0
vn 0 -0.9238826680189908 0.3826758624921501
vn 0 -0.38269114066638266 0.9238763395906743
vn 0 0.13052598533534088 0.9914448886106773
vn 0 0.5000001748438415 0.8660253028382763
vn 0 0.8660253028382761 0.500000174843842
vn 0 0.9914448886106773 0.13052598533534132
vn 0 -0.9914450180195132 0.1305250023722917
vn 0 -0.866027784878725 0.49999587580103966
vn 0 -0.5000090898813924 0.8660201556753642
vn 0 -0.13053201252063146 0.9914440950993221
vn 0 0.13052696829800514 0.9914447592009005
vn 0 0.5000040408640818 0.8660230707779035
vn 0 0.8660304499111627 0.49999125975027703
vn 0 0.9914456820850615 0.13051995814773817
vn 0 0.9914448886106773 -0.13052598533534088
vn 0 0.8660253028382763 -0.5000001748438415
vn 0 0.500000174843842 -0.8660253028382761
vn 0 0.13052598533534132 -0.9914448886106773
vn 0 0 -1
vn 0 -0.13052205348083482 -0.9914454062403771
vn 0 -0.4999869606865266 -0.8660329319046993
vn 0 -0.8660102941075378 -0.5000261698149167
vn 0 -0.9914423785382253 -0.13054504984282775
vn 0 -0.017451994804471887 -0.9998477023413839
vn 0 0.9238826680189908 -0.3826758624921501
vn 0 0.38269114066638266 -0.9238763395906743
vn 0 -0.13052598533534088 -0.9914448886106773
vn 0 -0.5000001748438415 -0.8660253028382763
vn 0 -0.8660253028382761 -0.500000174843842
vn 0 -0.9914448886106773 -0.13052598533534132
vn 0 0.9914450180195132 -0.1305250023722917
vn 0 0.866027784878725 -0.49999587580103966
vn 0 0.5000090898813924 -0.8660201556753642
vn 0 0.13053201252063146 -0.9914440950993221
vn 0 -0.13052696829800514 -0.9914447592009005
vn 0 -0.5000040408640818 -0.8660230707779035
vn 0 -0.8660304499111627 -0.49999125975027703
vn 0 -0.9914456820850615 -0.13051995814773817
vn 0 -0.9914448886106773 0.13052598533534088
vn 0 -0.8660253028382763 0.5000001748438415
vn 0 -0.500000174843842 0.8660253028382761
vn 0 -0.13052598533534132 0.9914448886106773
usemtl material_0_0
f 1/1/1 2/2/2 3/3/2
f 2/2/2 1/1/1 4/4/1
f 5/5/3 3/3/2 2/2/2
f 6/6/4 4/4/1 1/1/1
f 3/3/2 5/5/3 7/7/3
f 4/4/1 6/6/4 8/8/4
f 6/6/4 9/9/5 8/8/4
f 9/9/5 6/6/4 10/10/5
f 10/10/5 11/9/6 9/9/5
f 11/9/6 10/10/5 12/10/6
f 13/11/7 11/9/7 12/10/7
f 11/9/7 13/11/7 14/12/7
f 13/13/8 15/14/9 14/14/8
f 15/14/9 13/13/8 16/13/9
f 16/13/9 17/15/10 15/14/9
f 17/15/10 16/13/9 18/16/10
f 19/17/11 17/15/10 18/16/10
f 17/15/10 19/17/11 20/18/11
f 21/19/12 20/18/11 19/17/11
f 20/18/11 21/19/12 22/20/12
f 21/19/12 23/21/13 22/20/12
f 23/21/13 21/19/12 24/22/13
f 24/22/13 25/23/14 23/21/13
f 25/23/14 24/22/13 26/24/14
f 26/24/14 27/23/6 25/23/14
f 27/23/6 26/24/14 28/24/6
f 29/25/3 27/23/3 28/24/3
f 27/23/3 29/25/3 30/26/3
f 29/25/8 31/26/15 30/26/8
f 31/26/15 29/25/8 32/25/15
f 32/25/15 33/27/16 31/26/15
f 33/27/16 32/25/15 34/28/16
f 34/28/16 35/29/17 33/27/16
f 35/29/17 34/28/16 36/30/17
f 37/31/18 35/29/17 36/30/17
f 35/29/17 37/31/18 38/32/18
f 39/33/19 38/32/18 37/31/18
f 38/32/18 39/33/19 40/34/19
f 41/35/20 40/34/19 39/33/19
f 40/34/19 41/35/20 42/36/20
f 41/35/20 43/37/21 42/36/20
f 43/37/21 41/35/20 44/38/21
f 44/38/21 45/39/22 43/37/21
f 45/39/22 44/38/21 46/40/22
f 46/40/22 47/39/23 45/39/22
f 47/39/23 46/40/22 48/40/23
f 48/40/23 49/37/24 47/39/23
f 49/37/24 48/40/23 50/38/24
f 50/38/24 51/36/25 49/37/24
f 51/36/25 50/38/24 52/35/25
f 53/33/26 51/36/25 52/35/25
f 51/36/25 53/33/26 54/34/26
f 55/13/27 54/34/26 53/33/26
f 54/34/26 55/13/27 56/14/27
f 55/13/8 57/14/8 56/14/8
f 57/14/8 55/13/8 58/13/8
f 59/7/27 57/12/27 58/11/27
f 57/12/27 59/7/27 60/5/27
usemtl material_1_0
f 3//28 2//28 1//29
f 4//29 1//29 2//28
f 2//28 3//28 5//27
f 1//29 4//29 6//30
f 7//27 5//27 3//28
f 8//30 6//30 4//29
f 8//30 9//31 6//30
f 10//31 6//30 9//31
f 9//31 11//8 10//31
f 12//8 10//31 11//8
f 12//32 11//32 13//32
f 14//32 13//32 11//32
f 14//6 15//33 13//6
f 16//33 13//6 15//33
f 15//33 17//34 16//33
f 18//34 16//33 17//34
f 18//34 17//34 19//35
f 20//35 19//35 17//34
f 19//35 20//35 21//36
f 22//36 21//36 20//35
f 22//36 23//37 21//36
f 24//37 21//36 23//37
f 23//37 25//38 24//37
f 26//38 24//37 25//38
f 25//38 27//8 26//38
f 28//8 26//38 27//8
f 28//27 27//27 29//27
f 30//27 29//27 27//27
f 30//6 31//39 29//6
f 32//39 29//6 31//39
f 31//39 33//40 32//39
f 34//40 32//39 33//40
f 33//40 35//41 34//40
f 36//41 34//40 35//41
f 36//41 35//41 37//42
f 38//42 37//42 35//41
f 37//42 38//42 39//43
f 40//43 39//43 38//42
f 39//43 40//43 41//44
f 42//44 41//44 40//43
f 42//44 43//45 41//44
f 44//45 41//44 43//45
f 43//45 45//46 44//45
f 46//46 44//45 45//46
f 45//46 47//47 46//46
f 48//47 46//46 47//47
f 47//47 49//48 48//47
f 50//48 48//47 49//48
f 49//48 51//49 50//48
f 52//49 50//48 51//49
f 52//49 51//49 53//50
f 54//50 53//50 51//49
f 53//50 54//50 55//3
f 56//3 55//3 54//50
f 56//6 57//6 55//6
f 58//6 55//6 57//6
f 58//3 57//3 59//3
f 60//3 59//3 57//3
