# SSTK version 0.8.0
# 36
mtllib original-36.mtl
o DF_12_BR1/DF_12_BR/mesh24/mesh24-geometry#mesh24-geometry
v 0.666455 0.435574 0.343011
v 0.664648 0.360155 0.342527
v 0.666455 0.358349 0.343011
v 0.664648 0.435574 0.342527
v 0.543791 0.358349 0.343011
v 0.676092 0.435574 0.343011
v 0.663326 0.435574 0.341204
v 0.543791 0.360155 0.342527
v 0.543791 0.348712 0.343011
v 0.676092 0.348712 0.343011
v 0.663326 0.361478 0.341204
v 0.543791 0.361478 0.341204
v 0.677899 0.435574 0.342527
v 0.662842 0.435574 0.339398
v 0.543791 0.346905 0.342527
v 0.677899 0.346905 0.342527
v 0.662842 0.361962 0.339398
v 0.543791 0.361962 0.339398
v 0.679221 0.345583 0.341204
v 0.662842 0.435574 0.337365
v 0.679221 0.435574 0.341204
v 0.662842 0.361962 0.337365
v 0.543791 0.361962 0.337365
v 0.543791 0.345583 0.341204
v 0.679705 0.345099 0.339398
v 0.658027 0.366777 0.337365
v 0.679705 0.435574 0.339398
v 0.658027 0.435574 0.337365
v 0.543791 0.345099 0.339398
v 0.679705 0.345099 0.317508
v 0.658027 0.435574 0.339398
v 0.543791 0.366777 0.337365
v 0.679705 0.435574 0.317508
v 0.658027 0.366777 0.339398
v 0.543791 0.366777 0.339398
v 0.543791 0.345099 0.317508
v 0.679221 0.345583 0.315701
v 0.657543 0.435574 0.341204
v 0.679221 0.435574 0.315701
v 0.657543 0.367261 0.341204
v 0.543791 0.367261 0.341204
v 0.543791 0.345583 0.315701
v 0.677899 0.346905 0.314379
v 0.656220 0.435574 0.342527
v 0.677899 0.435574 0.314379
v 0.656220 0.368583 0.342527
v 0.543791 0.368583 0.342527
v 0.543791 0.346905 0.314379
v 0.676092 0.348712 0.313895
v 0.654414 0.370390 0.343011
v 0.543791 0.348712 0.313895
v 0.676092 0.435574 0.313895
v 0.654414 0.435574 0.343011
v 0.595446 0.429339 0.313895
v 0.543791 0.429339 0.313895
v 0.597141 0.427644 0.343011
v 0.543791 0.370390 0.343011
v 0.595446 0.435574 0.313895
v 0.597141 0.435574 0.343011
v 0.595446 0.429339 0.315613
v 0.595446 0.435574 0.341316
v 0.543791 0.427644 0.343011
v 0.595446 0.435574 0.315613
v 0.543791 0.429339 0.315613
v 0.595446 0.429339 0.341316
v 0.543791 0.429339 0.341316
v 0.543791 0.435574 0.315613
v 0.595446 0.435574 0.333819
v 0.595446 0.429339 0.333819
v 0.543791 0.429339 0.333819
v 0.543791 0.435574 0.333819
vt 0.103067 -0.123741
vt 0.062586 -0.122771
vt 0.061616 -0.123741
vt 0.103067 -0.122771
vt 0.061616 -0.057914
vt 0.103067 -0.128912
vt 0.103067 -0.122061
vt 0.062586 -0.057914
vt 0.056444 -0.057914
vt 0.056444 -0.128912
vt 0.063296 -0.122061
vt 0.063296 -0.057914
vt 0.103067 -0.129882
vt 0.103067 -0.121802
vt 0.055474 -0.057914
vt 0.055474 -0.129882
vt 0.063556 -0.121802
vt 0.063556 -0.057914
vt 0.054764 -0.130592
vt 0.103067 -0.130592
vt 0.054764 -0.057914
vt 0.054504 -0.130851
vt 0.06614 -0.119218
vt 0.103067 -0.130851
vt 0.103067 -0.119218
vt 0.054504 -0.057914
vt 0.06614 -0.057914
vt 0.103067 -0.118958
vt 0.0664 -0.118958
vt 0.0664 -0.057914
vt 0.103067 -0.118248
vt 0.06711 -0.118248
vt 0.06711 -0.057914
vt 0.068079 -0.117279
vt 0.103067 -0.117279
vt 0.09972 -0.085635
vt 0.09972 -0.057914
vt 0.098811 -0.086544
vt 0.068079 -0.057914
vt 0.103067 -0.085635
vt 0.103067 -0.086544
vt 0.098811 -0.057914
vt 0.103067 -0.057914
vn -0.13053201252063124 0 0.9914440950993221
vn -0.5000090898813921 0 0.8660201556753643
vn 0 0.5000090898813919 0.8660201556753644
vn 0 0.130532012520631 0.9914440950993221
vn 0.13052696829800536 0 0.9914447592009005
vn -0.8660277848787249 0 0.4999958758010398
vn 0 -0.13052696829800559 0.9914447592009005
vn 0 0.8660277848787248 0.49999587580104
vn 0.500004040864082 0 0.8660230707779034
vn -0.9914450180195132 0 0.13052500237229192
vn 0 -0.5000040408640822 0.8660230707779033
vn 0 0.9914450180195132 0.13052500237229214
vn 0.8660304499111627 0 0.49999125975027675
vn -1 0 0
vn 0 -0.866030449911163 0.4999912597502767
vn 0 1 0
vn 0.9914456820850615 0 0.13051995814773795
vn 0 0 1
vn 0 -0.9914456820850615 0.13051995814773773
vn 0.9914448886106773 0 -0.1305259853353411
vn 0.9914448886106773 0 0.1305259853353411
vn 1 0 0
vn 0 -0.9914448886106773 -0.13052598533534132
vn 0 -1 0
vn 0 -0.9914448886106773 0.13052598533534088
vn 0.8660253028382762 0 -0.5000001748438417
vn 0.8660253028382762 0 0.5000001748438417
vn 0 -0.8660253028382761 -0.500000174843842
vn 0 -0.8660253028382763 0.5000001748438415
vn 0.5000001748438417 0 -0.8660253028382762
vn 0.5000001748438417 0 0.8660253028382762
vn 0 -0.5000001748438415 -0.8660253028382763
vn 0 -0.500000174843842 0.8660253028382761
vn 0.1305259853353411 0 -0.9914448886106773
vn 0.1305259853353411 0 0.9914448886106773
vn 0 -0.13052598533534088 -0.9914448886106773
vn 0 -0.13052598533534132 0.9914448886106773
vn 0 0 -1
vn -0.38269114066638243 0 0.9238763395906744
vn 0 0.3826911406663822 0.9238763395906745
vn -0.9238826680189909 0 0.3826758624921504
vn 0 0.9238826680189908 0.38267586249215063
vn 0.13053201252063124 0 -0.9914440950993221
vn 0.5000090898813921 0 -0.8660201556753643
vn 0 -0.130532012520631 -0.9914440950993221
vn 0 -0.5000090898813919 -0.8660201556753644
vn -0.13052696829800536 0 -0.9914447592009005
vn 0.8660277848787249 0 -0.4999958758010398
vn 0 0.13052696829800559 -0.9914447592009005
vn 0 -0.8660277848787248 -0.49999587580104
vn -0.500004040864082 0 -0.8660230707779034
vn 0.9914450180195132 0 -0.13052500237229192
vn 0 0.5000040408640822 -0.8660230707779033
vn 0 -0.9914450180195132 -0.13052500237229214
vn -0.8660304499111627 0 -0.49999125975027675
vn 0 0.866030449911163 -0.4999912597502767
vn -0.9914456820850615 0 -0.13051995814773795
vn 0 0.9914456820850615 -0.13051995814773773
vn -0.9914448886106773 0 0.1305259853353411
vn -0.9914448886106773 0 -0.1305259853353411
vn 0 0.9914448886106773 0.13052598533534132
vn 0 0.9914448886106773 -0.13052598533534088
vn -0.8660253028382762 0 0.5000001748438417
vn -0.8660253028382762 0 -0.5000001748438417
vn 0 0.8660253028382761 0.500000174843842
vn 0 0.8660253028382763 -0.5000001748438415
vn -0.5000001748438417 0 0.8660253028382762
vn -0.5000001748438417 0 -0.8660253028382762
vn 0 0.5000001748438415 0.8660253028382763
vn 0 0.500000174843842 -0.8660253028382761
vn -0.1305259853353411 0 0.9914448886106773
vn -0.1305259853353411 0 -0.9914448886106773
vn 0 0.13052598533534088 0.9914448886106773
vn 0 0.13052598533534132 -0.9914448886106773
vn 0.38269114066638243 0 -0.9238763395906744
vn 0 -0.3826911406663822 -0.9238763395906745
vn 0.9238826680189909 0 -0.3826758624921504
vn 0 -0.9238826680189908 -0.38267586249215063
usemtl material_0_0
f 1/1/1 2/2/2 3/3/1
f 2/2/2 1/1/1 4/4/2
f 2/2/3 5/5/4 3/3/4
f 3/3/1 6/6/5 1/1/1
f 7/7/6 2/2/2 4/4/2
f 5/5/4 2/2/3 8/8/3
f 9/9/7 3/3/4 5/5/4
f 6/6/5 3/3/1 10/10/5
f 2/2/2 7/7/6 11/11/6
f 2/2/3 12/12/8 8/8/3
f 3/3/4 9/9/7 10/10/7
f 10/10/5 13/13/9 6/6/5
f 14/14/10 11/11/6 7/7/6
f 12/12/8 2/2/3 11/11/8
f 15/15/11 10/10/7 9/9/7
f 13/13/9 10/10/5 16/16/9
f 11/11/6 14/14/10 17/17/10
f 11/11/8 18/18/12 12/12/8
f 10/10/7 15/15/11 16/16/11
f 19/19/13 13/13/9 16/16/9
f 20/14/14 17/17/10 14/14/10
f 18/18/12 11/11/8 17/17/12
f 15/15/11 19/19/15 16/16/11
f 13/13/9 19/19/13 21/20/13
f 17/17/10 20/14/14 22/17/14
f 17/17/12 23/18/16 18/18/12
f 19/19/15 15/15/11 24/21/15
f 25/22/17 21/20/13 19/19/13
f 20/14/18 26/23/18 22/17/18
f 23/18/16 17/17/12 22/17/16
f 24/21/15 25/22/19 19/19/15
f 21/20/13 25/22/17 27/24/17
f 26/23/18 20/14/18 28/25/18
f 26/23/18 23/18/18 22/17/18
f 25/22/19 24/21/15 29/26/19
f 30/22/20 27/24/17 25/22/17
f 31/25/21 26/23/22 28/25/22
f 23/18/18 26/23/18 32/27/18
f 29/26/19 30/22/23 25/22/19
f 27/24/17 30/22/20 33/24/20
f 26/23/22 31/25/21 34/23/21
f 26/23/24 35/27/25 32/27/24
f 30/22/23 29/26/19 36/26/23
f 37/19/26 33/24/20 30/22/20
f 38/28/27 34/23/21 31/25/21
f 35/27/25 26/23/24 34/23/25
f 36/26/23 37/19/28 30/22/23
f 33/24/20 37/19/26 39/20/26
f 34/23/21 38/28/27 40/29/27
f 34/23/25 41/30/29 35/27/25
f 37/19/28 36/26/23 42/21/28
f 43/16/30 39/20/26 37/19/26
f 44/31/31 40/29/27 38/28/27
f 41/30/29 34/23/25 40/29/29
f 42/21/28 43/16/32 37/19/28
f 39/20/26 43/16/30 45/13/30
f 40/29/27 44/31/31 46/32/31
f 40/29/29 47/33/33 41/30/29
f 43/16/32 42/21/28 48/15/32
f 49/10/34 45/13/30 43/16/30
f 44/31/31 50/34/35 46/32/31
f 47/33/33 40/29/29 46/32/33
f 51/9/36 43/16/32 48/15/32
f 45/13/30 49/10/34 52/6/34
f 43/16/32 51/9/36 49/10/36
f 50/34/35 44/31/31 53/35/35
f 50/34/37 47/33/33 46/32/33
f 54/36/38 52/6/34 49/10/34
f 55/37/38 49/10/36 51/9/36
f 53/35/35 56/38/39 50/34/35
f 47/33/33 50/34/37 57/39/37
f 52/6/34 54/36/38 58/40/38
f 49/10/36 55/37/38 54/36/38
f 56/38/39 53/35/35 59/41/39
f 56/38/40 57/39/37 50/34/37
f 60/36/14 58/40/14 54/36/14
f 55/37/16 60/36/16 54/36/16
f 61/40/41 56/38/39 59/41/39
f 57/39/37 56/38/40 62/42/40
f 58/40/14 60/36/14 63/40/14
f 60/36/16 55/37/16 64/37/16
f 56/38/39 61/40/41 65/36/41
f 56/38/40 66/37/42 62/42/40
f 60/36/38 67/43/38 63/40/38
f 67/43/38 60/36/38 64/37/38
f 68/40/14 65/36/41 61/40/41
f 66/37/42 56/38/40 65/36/42
f 65/36/41 68/40/14 69/36/14
f 65/36/42 70/37/16 66/37/42
f 68/40/18 70/37/18 69/36/18
f 70/37/16 65/36/42 69/36/16
f 70/37/18 68/40/18 71/43/18
usemtl material_1_0
f 3//43 2//44 1//43
f 4//44 1//43 2//44
f 3//45 5//45 2//46
f 1//43 6//47 3//43
f 4//44 2//44 7//48
f 8//46 2//46 5//45
f 5//45 3//45 9//49
f 10//47 3//43 6//47
f 11//48 7//48 2//44
f 8//46 12//50 2//46
f 10//49 9//49 3//45
f 6//47 13//51 10//47
f 7//48 11//48 14//52
f 11//50 2//46 12//50
f 9//49 10//49 15//53
f 16//51 10//47 13//51
f 17//52 14//52 11//48
f 12//50 18//54 11//50
f 16//53 15//53 10//49
f 16//51 13//51 19//55
f 14//52 17//52 20//22
f 17//54 11//50 18//54
f 16//53 19//56 15//53
f 21//55 19//55 13//51
f 22//22 20//22 17//52
f 18//54 23//24 17//54
f 24//56 15//53 19//56
f 19//55 21//55 25//57
f 22//38 26//38 20//38
f 22//24 17//54 23//24
f 19//56 25//58 24//56
f 27//57 25//57 21//55
f 28//38 20//38 26//38
f 22//38 23//38 26//38
f 29//58 24//56 25//58
f 25//57 27//57 30//59
f 28//14 26//14 31//60
f 32//38 26//38 23//38
f 25//58 30//61 29//58
f 33//59 30//59 27//57
f 34//60 31//60 26//14
f 32//16 35//62 26//16
f 36//61 29//58 30//61
f 30//59 33//59 37//63
f 31//60 34//60 38//64
f 34//62 26//16 35//62
f 30//61 37//65 36//61
f 39//63 37//63 33//59
f 40//64 38//64 34//60
f 35//62 41//66 34//62
f 42//65 36//61 37//65
f 37//63 39//63 43//67
f 38//64 40//64 44//68
f 40//66 34//62 41//66
f 37//65 43//69 42//65
f 45//67 43//67 39//63
f 46//68 44//68 40//64
f 41//66 47//70 40//66
f 48//69 42//65 43//69
f 43//67 45//67 49//71
f 46//68 50//72 44//68
f 46//70 40//66 47//70
f 48//69 43//69 51//73
f 52//71 49//71 45//67
f 49//73 51//73 43//69
f 53//72 44//68 50//72
f 46//70 47//70 50//74
f 49//71 52//71 54//18
f 51//73 49//73 55//18
f 50//72 56//75 53//72
f 57//74 50//74 47//70
f 58//18 54//18 52//71
f 54//18 55//18 49//73
f 59//75 53//72 56//75
f 50//74 57//74 56//76
f 54//22 58//22 60//22
f 54//24 60//24 55//24
f 59//75 56//75 61//77
f 62//76 56//76 57//74
f 63//22 60//22 58//22
f 64//24 55//24 60//24
f 65//77 61//77 56//75
f 62//76 66//78 56//76
f 63//18 67//18 60//18
f 64//18 60//18 67//18
f 61//77 65//77 68//22
f 65//78 56//76 66//78
f 69//22 68//22 65//77
f 66//78 70//24 65//78
f 69//38 70//38 68//38
f 69//24 65//78 70//24
f 71//38 68//38 70//38
