# SSTK version 0.8.0
# 51
mtllib original-51.mtl
o LT_11_TR1/LT_11_TR/mesh36/mesh36-geometry#mesh36-geometry
v -0.149767 0.194522 0.338442
v -0.150970 0.166919 0.338765
v -0.149767 0.166919 0.338442
v -0.150970 0.193318 0.338765
v -0.148885 0.195403 0.337561
v -0.183266 0.194522 0.338442
v -0.183266 0.166919 0.338765
v -0.148885 0.166919 0.337561
v -0.183266 0.195403 0.337561
v -0.183266 0.193318 0.338765
v -0.148563 0.166919 0.336357
v -0.183266 0.195726 0.336357
v -0.148563 0.195726 0.336357
v -0.148563 0.166919 0.334155
v -0.183266 0.195726 0.334155
v -0.148563 0.195726 0.334155
v -0.129304 0.214985 0.333819
v -0.183266 0.214985 0.333819
v -0.129304 0.166919 0.333819
v -0.129304 0.214985 0.341316
v -0.183266 0.214985 0.341316
v -0.129304 0.166919 0.341316
v -0.127609 0.216680 0.343011
v -0.183266 0.216680 0.343011
v -0.127609 0.166919 0.343011
v -0.039040 0.305249 0.343011
v -0.183266 0.305249 0.343011
v -0.039040 0.166919 0.343011
v -0.037233 0.307056 0.342527
v -0.037233 0.166919 0.342527
v -0.183266 0.307056 0.342527
v -0.035911 0.166919 0.341204
v -0.183266 0.308378 0.341204
v -0.035911 0.308378 0.341204
v -0.035427 0.166919 0.339398
v -0.183266 0.308862 0.339398
v -0.035427 0.308862 0.339398
v -0.035427 0.166919 0.337365
v -0.183266 0.308862 0.337365
v -0.035427 0.308862 0.337365
v -0.030612 0.313677 0.337365
v -0.030612 0.166919 0.337365
v -0.183266 0.313677 0.337365
v -0.030612 0.313677 0.339398
v -0.183266 0.313677 0.339398
v -0.030612 0.166919 0.339398
v -0.030128 0.314161 0.341204
v -0.183266 0.314161 0.341204
v -0.030128 0.166919 0.341204
v -0.028805 0.315484 0.342527
v -0.183266 0.315484 0.342527
v -0.028805 0.166919 0.342527
v -0.026999 0.317290 0.343011
v -0.026999 0.166919 0.343011
v -0.183266 0.317290 0.343011
v -0.017361 0.326927 0.343011
v -0.017361 0.166919 0.343011
v -0.183266 0.326927 0.343011
v -0.015555 0.328734 0.342527
v -0.015555 0.166919 0.342527
v -0.183266 0.328734 0.342527
v -0.014232 0.166919 0.341204
v -0.183266 0.330056 0.341204
v -0.014232 0.330056 0.341204
v -0.013748 0.166919 0.339398
v -0.183266 0.330540 0.339398
v -0.013748 0.330540 0.339398
v -0.013748 0.166919 0.317508
v -0.183266 0.330540 0.317508
v -0.013748 0.330540 0.317508
v -0.014232 0.166919 0.315701
v -0.183266 0.330056 0.315701
v -0.014232 0.330056 0.315701
v -0.015555 0.166919 0.314379
v -0.183266 0.328734 0.314379
v -0.015555 0.328734 0.314379
v -0.017361 0.326927 0.313895
v -0.017361 0.166919 0.313895
v -0.183266 0.326927 0.313895
v -0.129304 0.214985 0.313895
v -0.129304 0.166919 0.313895
v -0.183266 0.214985 0.313895
v -0.129304 0.214985 0.315613
v -0.183266 0.214985 0.315613
v -0.129304 0.166919 0.315613
v -0.183266 0.166919 0.315613
vt 0.266851 0.408778
vt 0.266205 0.393965
vt 0.266851 0.393965
vt 0.266205 0.408132
vt 0.267324 0.409251
vt 0.248874 0.408778
vt 0.248874 0.393965
vt 0.267324 0.393965
vt 0.248874 0.409251
vt 0.248874 0.408132
vt 0.267497 0.393965
vt 0.248874 0.409424
vt 0.267497 0.409424
vt 0.277832 0.419759
vt 0.248874 0.419759
vt 0.277832 0.393965
vt 0.297207 0.726323
vt 0.297207 0.755281
vt 0.278742 0.420669
vt 0.298116 0.755281
vt 0.278742 0.393965
vt 0.298116 0.725413
vt 0.326271 0.468199
vt 0.345646 0.755281
vt 0.326271 0.393965
vt 0.345646 0.677883
vt 0.327241 0.469168
vt 0.346616 0.676914
vt 0.327241 0.393965
vt 0.346616 0.755281
vt 0.327951 0.393965
vt 0.347325 0.755281
vt 0.327951 0.469878
vt 0.347325 0.676204
vt 0.32821 0.393965
vt 0.347585 0.755281
vt 0.32821 0.470137
vt 0.347585 0.675945
vt 0.330794 0.472721
vt 0.350169 0.673361
vt 0.330794 0.393965
vt 0.350169 0.755281
vt 0.331054 0.472981
vt 0.350429 0.755281
vt 0.331054 0.393965
vt 0.350429 0.673101
vt 0.331764 0.473691
vt 0.351138 0.755281
vt 0.331764 0.393965
vt 0.351138 0.672391
vt 0.332733 0.47466
vt 0.352108 0.671422
vt 0.332733 0.393965
vt 0.352108 0.755281
vt 0.337905 0.479832
vt 0.357279 0.66625
vt 0.337905 0.393965
vt 0.35728 0.755281
vt 0.338874 0.480801
vt 0.358249 0.665281
vt 0.338874 0.393965
vt 0.358249 0.755281
vt 0.339584 0.393965
vt 0.358959 0.755281
vt 0.339584 0.481511
vt 0.358959 0.664571
vt 0.339844 0.393965
vt 0.359218 0.755281
vt 0.339844 0.481771
vt 0.359218 0.664311
vn 0.49998696068652676 0 0.8660329319046992
vn 0.130522053480835 0 0.9914454062403769
vn 0.08759602388564325 0.08759602388564303 0.9922972705791605
vn 0.8660102941075379 0 0.5000261698149164
vn 0 0.4999869606865266 0.8660329319046993
vn 0 0 1
vn 0 0.8660102941075378 0.5000261698149167
vn 0 0.13052205348083482 0.9914454062403771
vn 0.9914423785382255 0 0.13054504984282755
vn 0 0.9914423785382253 0.13054504984282775
vn 1 0 0
vn 0 1 0
vn 0.01745199480447211 0 0.9998477023413839
vn 0 0.017451994804471887 0.9998477023413839
vn -1 0 0
vn -0.9238826680189909 0 0.3826758624921504
vn 0 -1 0
vn 0 -0.9238826680189908 0.3826758624921501
vn -0.38269114066638243 0 0.9238763395906744
vn 0 -0.38269114066638266 0.9238763395906743
vn 0.1305259853353411 0 0.9914448886106773
vn 0 0.13052598533534088 0.9914448886106773
vn 0.5000001748438417 0 0.8660253028382762
vn 0 0.5000001748438415 0.8660253028382763
vn 0.8660253028382762 0 0.5000001748438417
vn 0 0.8660253028382761 0.500000174843842
vn 0.9914448886106773 0 0.1305259853353411
vn 0 0.9914448886106773 0.13052598533534132
vn -0.9914450180195132 0 0.13052500237229192
vn 0 -0.9914450180195132 0.1305250023722917
vn -0.8660277848787249 0 0.4999958758010398
vn 0 -0.866027784878725 0.49999587580103966
vn -0.5000090898813921 0 0.8660201556753643
vn 0 -0.5000090898813924 0.8660201556753642
vn -0.13053201252063124 0 0.9914440950993221
vn 0 -0.13053201252063146 0.9914440950993221
vn 0.13052696829800536 0 0.9914447592009005
vn 0 0.13052696829800514 0.9914447592009005
vn 0.500004040864082 0 0.8660230707779034
vn 0 0.5000040408640818 0.8660230707779035
vn 0.8660304499111627 0 0.49999125975027675
vn 0 0.8660304499111627 0.49999125975027703
vn 0.9914456820850615 0 0.13051995814773795
vn 0 0.9914456820850615 0.13051995814773817
vn 0.9914448886106773 0 -0.1305259853353411
vn 0 0.9914448886106773 -0.13052598533534088
vn 0.8660253028382762 0 -0.5000001748438417
vn 0 0.8660253028382763 -0.5000001748438415
vn 0.5000001748438417 0 -0.8660253028382762
vn 0 0.500000174843842 -0.8660253028382761
vn 0.1305259853353411 0 -0.9914448886106773
vn 0 0.13052598533534132 -0.9914448886106773
vn 0 0 -1
vn -0.49998696068652676 0 -0.8660329319046992
vn -0.130522053480835 0 -0.9914454062403769
vn -0.08759602388564325 -0.08759602388564303 -0.9922972705791605
vn -0.8660102941075379 0 -0.5000261698149164
vn 0 -0.4999869606865266 -0.8660329319046993
vn 0 -0.8660102941075378 -0.5000261698149167
vn 0 -0.13052205348083482 -0.9914454062403771
vn -0.9914423785382255 0 -0.13054504984282755
vn 0 -0.9914423785382253 -0.13054504984282775
vn -0.01745199480447211 0 -0.9998477023413839
vn 0 -0.017451994804471887 -0.9998477023413839
vn 0.9238826680189909 0 -0.3826758624921504
vn 0 0.9238826680189908 -0.3826758624921501
vn 0.38269114066638243 0 -0.9238763395906744
vn 0 0.38269114066638266 -0.9238763395906743
vn -0.1305259853353411 0 -0.9914448886106773
vn 0 -0.13052598533534088 -0.9914448886106773
vn -0.5000001748438417 0 -0.8660253028382762
vn 0 -0.5000001748438415 -0.8660253028382763
vn -0.8660253028382762 0 -0.5000001748438417
vn 0 -0.8660253028382761 -0.500000174843842
vn -0.9914448886106773 0 -0.1305259853353411
vn 0 -0.9914448886106773 -0.13052598533534132
vn 0.9914450180195132 0 -0.13052500237229192
vn 0 0.9914450180195132 -0.1305250023722917
vn 0.8660277848787249 0 -0.4999958758010398
vn 0 0.866027784878725 -0.49999587580103966
vn 0.5000090898813921 0 -0.8660201556753643
vn 0 0.5000090898813924 -0.8660201556753642
vn 0.13053201252063124 0 -0.9914440950993221
vn 0 0.13053201252063146 -0.9914440950993221
vn -0.13052696829800536 0 -0.9914447592009005
vn 0 -0.13052696829800514 -0.9914447592009005
vn -0.500004040864082 0 -0.8660230707779034
vn 0 -0.5000040408640818 -0.8660230707779035
vn -0.8660304499111627 0 -0.49999125975027675
vn 0 -0.8660304499111627 -0.49999125975027703
vn -0.9914456820850615 0 -0.13051995814773795
vn 0 -0.9914456820850615 -0.13051995814773817
vn -0.9914448886106773 0 0.1305259853353411
vn 0 -0.9914448886106773 0.13052598533534088
vn -0.8660253028382762 0 0.5000001748438417
vn 0 -0.8660253028382763 0.5000001748438415
vn -0.5000001748438417 0 0.8660253028382762
vn 0 -0.500000174843842 0.8660253028382761
vn -0.1305259853353411 0 0.9914448886106773
vn 0 -0.13052598533534132 0.9914448886106773
usemtl material_0_0
f 1/1/1 2/2/2 3/3/1
f 2/2/2 1/1/1 4/4/3
f 3/3/1 5/5/4 1/1/1
f 6/6/5 4/4/3 1/1/5
f 4/4/3 7/7/6 2/2/2
f 5/5/4 3/3/1 8/8/4
f 9/9/7 1/1/5 5/5/7
f 4/4/3 6/6/5 10/10/8
f 1/1/5 9/9/7 6/6/5
f 7/7/6 4/4/3 10/10/8
f 11/11/9 5/5/4 8/8/4
f 5/5/7 12/12/10 9/9/7
f 5/5/4 11/11/9 13/13/9
f 12/12/10 5/5/7 13/13/10
f 14/11/11 13/13/9 11/11/9
f 13/13/10 15/12/12 12/12/10
f 13/13/9 14/11/11 16/13/11
f 15/12/12 13/13/10 16/13/12
f 14/11/13 17/14/13 16/13/13
f 16/13/14 18/15/14 15/12/14
f 17/14/13 14/11/13 19/16/13
f 18/15/14 16/13/14 17/14/14
f 19/16/15 20/14/16 17/14/15
f 17/17/17 21/18/18 18/18/17
f 20/14/16 19/16/15 22/16/16
f 21/18/18 17/17/17 20/17/18
f 22/16/16 23/19/19 20/14/16
f 20/17/18 24/20/20 21/18/18
f 23/19/19 22/16/16 25/21/19
f 24/20/20 20/17/18 23/22/20
f 25/21/19 26/23/21 23/19/19
f 23/22/20 27/24/22 24/20/20
f 26/23/21 25/21/19 28/25/21
f 27/24/22 23/22/20 26/26/22
f 28/25/21 29/27/23 26/23/21
f 29/28/24 27/24/22 26/26/22
f 29/27/23 28/25/21 30/29/23
f 27/24/22 29/28/24 31/30/24
f 32/31/25 29/27/23 30/29/23
f 29/28/24 33/32/26 31/30/24
f 29/27/23 32/31/25 34/33/25
f 33/32/26 29/28/24 34/34/26
f 35/35/27 34/33/25 32/31/25
f 34/34/26 36/36/28 33/32/26
f 34/33/25 35/35/27 37/37/27
f 36/36/28 34/34/26 37/38/28
f 38/35/11 37/37/27 35/35/27
f 37/38/28 39/36/12 36/36/28
f 37/37/27 38/35/11 40/37/11
f 39/36/12 37/38/28 40/38/12
f 38/35/6 41/39/6 40/37/6
f 41/40/6 39/36/6 40/38/6
f 41/39/6 38/35/6 42/41/6
f 39/36/6 41/40/6 43/42/6
f 42/41/15 44/39/29 41/39/15
f 41/40/17 45/42/30 43/42/17
f 44/39/29 42/41/15 46/41/29
f 45/42/30 41/40/17 44/40/30
f 46/41/29 47/43/31 44/39/29
f 44/40/30 48/44/32 45/42/30
f 47/43/31 46/41/29 49/45/31
f 48/44/32 44/40/30 47/46/32
f 49/45/31 50/47/33 47/43/31
f 47/46/32 51/48/34 48/44/32
f 50/47/33 49/45/31 52/49/33
f 51/48/34 47/46/32 50/50/34
f 52/49/33 53/51/35 50/47/33
f 53/52/36 51/48/34 50/50/34
f 53/51/35 52/49/33 54/53/35
f 51/48/34 53/52/36 55/54/36
f 54/53/35 56/55/37 53/51/35
f 56/56/38 55/54/36 53/52/36
f 56/55/37 54/53/35 57/57/37
f 55/54/36 56/56/38 58/58/38
f 57/57/37 59/59/39 56/55/37
f 59/60/40 58/58/38 56/56/38
f 59/59/39 57/57/37 60/61/39
f 58/58/38 59/60/40 61/62/40
f 62/63/41 59/59/39 60/61/39
f 59/60/40 63/64/42 61/62/40
f 59/59/39 62/63/41 64/65/41
f 63/64/42 59/60/40 64/66/42
f 65/67/43 64/65/41 62/63/41
f 64/66/42 66/68/44 63/64/42
f 64/65/41 65/67/43 67/69/43
f 66/68/44 64/66/42 67/70/44
f 68/67/45 67/69/43 65/67/43
f 67/70/44 69/68/46 66/68/44
f 67/69/43 68/67/45 70/69/45
f 69/68/46 67/70/44 70/70/46
f 71/63/47 70/69/45 68/67/45
f 70/70/46 72/64/48 69/68/46
f 70/69/45 71/63/47 73/65/47
f 72/64/48 70/70/46 73/66/48
f 74/61/49 73/65/47 71/63/47
f 73/66/48 75/62/50 72/64/48
f 73/65/47 74/61/49 76/59/49
f 75/62/50 73/66/48 76/60/50
f 74/61/49 77/55/51 76/59/49
f 77/56/52 75/62/50 76/60/50
f 77/55/51 74/61/49 78/57/51
f 75/62/50 77/56/52 79/58/52
f 78/57/51 80/14/53 77/55/51
f 80/17/53 79/58/52 77/56/52
f 80/14/53 78/57/51 81/16/53
f 79/58/52 80/17/53 82/18/53
f 81/16/15 83/14/15 80/14/15
f 80/17/17 84/18/17 82/18/17
f 83/14/15 81/16/15 85/16/15
f 84/18/17 80/17/17 83/17/17
f 85/16/53 84/15/53 83/14/53
f 84/15/53 85/16/53 86/7/53
usemtl material_1_0
f 3//54 2//55 1//54
f 4//56 1//54 2//55
f 1//54 5//57 3//54
f 1//58 4//56 6//58
f 2//55 7//53 4//56
f 8//57 3//54 5//57
f 5//59 1//58 9//59
f 10//60 6//58 4//56
f 6//58 9//59 1//58
f 10//60 4//56 7//53
f 8//57 5//57 11//61
f 9//59 12//62 5//59
f 13//61 11//61 5//57
f 13//62 5//59 12//62
f 11//61 13//61 14//15
f 12//62 15//17 13//62
f 16//15 14//15 13//61
f 16//17 13//62 15//17
f 16//63 17//63 14//63
f 15//64 18//64 16//64
f 19//63 14//63 17//63
f 17//64 16//64 18//64
f 17//11 20//65 19//11
f 18//12 21//66 17//12
f 22//65 19//11 20//65
f 20//66 17//12 21//66
f 20//65 23//67 22//65
f 21//66 24//68 20//66
f 25//67 22//65 23//67
f 23//68 20//66 24//68
f 23//67 26//69 25//67
f 24//68 27//70 23//68
f 28//69 25//67 26//69
f 26//70 23//68 27//70
f 26//69 29//71 28//69
f 26//70 27//70 29//72
f 30//71 28//69 29//71
f 31//72 29//72 27//70
f 30//71 29//71 32//73
f 31//72 33//74 29//72
f 34//73 32//73 29//71
f 34//74 29//72 33//74
f 32//73 34//73 35//75
f 33//74 36//76 34//74
f 37//75 35//75 34//73
f 37//76 34//74 36//76
f 35//75 37//75 38//15
f 36//76 39//17 37//76
f 40//15 38//15 37//75
f 40//17 37//76 39//17
f 40//53 41//53 38//53
f 40//53 39//53 41//53
f 42//53 38//53 41//53
f 43//53 41//53 39//53
f 41//11 44//77 42//11
f 43//12 45//78 41//12
f 46//77 42//11 44//77
f 44//78 41//12 45//78
f 44//77 47//79 46//77
f 45//78 48//80 44//78
f 49//79 46//77 47//79
f 47//80 44//78 48//80
f 47//79 50//81 49//79
f 48//80 51//82 47//80
f 52//81 49//79 50//81
f 50//82 47//80 51//82
f 50//81 53//83 52//81
f 50//82 51//82 53//84
f 54//83 52//81 53//83
f 55//84 53//84 51//82
f 53//83 56//85 54//83
f 53//84 55//84 56//86
f 57//85 54//83 56//85
f 58//86 56//86 55//84
f 56//85 59//87 57//85
f 56//86 58//86 59//88
f 60//87 57//85 59//87
f 61//88 59//88 58//86
f 60//87 59//87 62//89
f 61//88 63//90 59//88
f 64//89 62//89 59//87
f 64//90 59//88 63//90
f 62//89 64//89 65//91
f 63//90 66//92 64//90
f 67//91 65//91 64//89
f 67//92 64//90 66//92
f 65//91 67//91 68//93
f 66//92 69//94 67//92
f 70//93 68//93 67//91
f 70//94 67//92 69//94
f 68//93 70//93 71//95
f 69//94 72//96 70//94
f 73//95 71//95 70//93
f 73//96 70//94 72//96
f 71//95 73//95 74//97
f 72//96 75//98 73//96
f 76//97 74//97 73//95
f 76//98 73//96 75//98
f 76//97 77//99 74//97
f 76//98 75//98 77//100
f 78//99 74//97 77//99
f 79//100 77//100 75//98
f 77//99 80//6 78//99
f 77//100 79//100 80//6
f 81//6 78//99 80//6
f 82//6 80//6 79//100
f 80//11 83//11 81//11
f 82//12 84//12 80//12
f 85//11 81//11 83//11
f 83//12 80//12 84//12
f 83//6 84//6 85//6
f 86//6 85//6 84//6
