# SSTK version 0.8.0
# 17
mtllib original-17.mtl
o Obj_000024_1/Obj_000024/mesh21/mesh21-geometry#mesh21-geometry
v 0.151459 -0.274649 0.096303
v -0.137592 -0.273575 -0.045217
v -0.137592 -0.274649 0.096303
v 0.151459 -0.273575 -0.045217
v -0.137592 -0.132795 -0.021214
v 0.151459 -0.271456 0.184780
v 0.151459 -0.132795 -0.021214
v -0.137592 -0.247944 -0.177778
v -0.137592 -0.271456 0.184780
v -0.137592 -0.182229 -0.073335
v 0.151459 -0.182229 -0.073335
v 0.151459 -0.247944 -0.177778
v -0.137592 -0.205364 -0.101575
v -0.137592 -0.247593 0.233001
v 0.151459 -0.247593 0.233001
v 0.151459 -0.205364 -0.101576
v -0.137592 -0.245425 -0.189513
v -0.137592 -0.211293 -0.120527
v -0.137592 -0.132795 0.373090
v 0.151459 -0.247593 0.373090
v 0.151459 -0.211293 -0.120527
v 0.151459 -0.245425 -0.189513
v -0.137592 -0.190687 -0.272474
v -0.137592 -0.209110 -0.140954
v -0.137592 -0.247593 0.373090
v 0.151459 -0.132795 0.373090
v 0.151459 -0.209110 -0.140954
v 0.151459 -0.190687 -0.272474
v -0.137592 -0.214876 -0.272474
v 0.151459 -0.214876 -0.272474
vn -0.44729890249824317 0.894293805062752 -0.01273899722316623
vn 0 0.9950747921517844 0.09912697929465634
vn 0 0.9998985491773426 -0.014243993577833207
vn -0.44872195002292253 0.8892699009562364 0.08858699013349183
vn 0 -0.9998985491773426 0.014243993577833207
vn 0 -0.9950747921517844 -0.09912697929465634
vn 0.44729890249824317 -0.894293805062752 0.01273899722316623
vn 0.44872195002292253 -0.8892699009562364 -0.08858699013349183
vn -1 0 0
vn -0.4553289234441886 0.8631278548797368 -0.21837096328463776
vn 0.4553289234441886 -0.8631278548797368 0.21837096328463776
vn 1 0 0
vn 0 0.9798236622195681 0.19986393109971992
vn 0 -0.9798236622195681 -0.19986393109971992
vn 0 0.969454284971129 -0.24527207209773594
vn 0 -0.969454284971129 0.24527207209773594
vn -0.4472319559807496 0.8763719137422221 0.17876198240517413
vn 0.4472319559807496 -0.8763719137422221 -0.17876198240517413
vn -0.45679111929078803 0.866196226206741 -0.20259805290838695
vn 0.45679111929078803 -0.866196226206741 0.20259805290838695
vn 0.4481090546339073 0.8586341046855349 0.24888903034480148
vn -0.4481090546339073 -0.8586341046855349 -0.24888903034480148
vn 0 0.973720324049796 -0.22774707579321435
vn 0 -0.973720324049796 0.22774707579321435
vn 0 0.7421784065327867 -0.6702023671074682
vn -0.5773502691896258 0.577350269189626 -0.5773502691896257
vn 0.5773502691896258 -0.577350269189626 0.5773502691896257
vn -0.4481090546339073 0.8586341046855349 0.24888903034480148
vn 0.4481090546339073 -0.8586341046855349 -0.24888903034480148
vn -0.6060547377568384 0.6001947402924911 -0.5219807741360969
vn -0.7071068505130315 0.7002698519584172 0.09809197926272033
vn 0 0.9543808684743957 -0.2985919588502983
vn 0 1 0
vn -0.7071067811865476 0 -0.7071067811865476
vn 0.7071067811865476 0 0.7071067811865476
vn -0.7071068505130315 -0.7002698519584172 -0.09809197926272033
vn 0.7071068505130315 0.7002698519584172 0.09809197926272033
vn -0.606054105058882 -0.6001951040432302 0.5219810904849077
vn 0.606054105058882 0.6001951040432302 -0.5219810904849077
vn 0.5205010255334387 0.4884380239605719 0.7003620343566108
vn -0.5205010255334387 -0.4884380239605719 -0.7003620343566108
vn 0 0.9943378466388113 0.10626498361027487
vn 0 0 -1
vn 0 0.7071067811865478 -0.7071067811865476
vn 0 -0.7071067811865478 0.7071067811865476
vn 0 0 1
vn -0.5205010255334387 0.4884380239605719 0.7003620343566108
vn 0.5205010255334387 -0.4884380239605719 -0.7003620343566108
vn 0.7071068505130315 -0.7002698519584172 -0.09809197926272033
vn 0.6060547377568384 -0.6001947402924911 0.5219807741360969
vn 0 -0.7421784065327867 0.6702023671074682
vn 0 -0.9543808684743957 0.2985919588502983
vn 0 -1 0
vn 0 -0.9943378466388113 -0.10626498361027487
usemtl material_0_0
f 1//1 2//2 3//3
f 2//2 1//1 4//4
f 3//5 2//6 1//7
f 4//8 1//7 2//6
f 2//9 3//9 5//9
f 3//3 6//10 1//1
f 1//7 6//11 3//5
f 1//1 7//9 4//4
f 4//8 7//12 1//7
f 4//4 8//13 2//2
f 2//6 8//14 4//8
f 3//9 9//9 5//9
f 10//9 2//9 5//9
f 6//10 3//3 9//15
f 9//16 3//5 6//11
f 6//10 7//9 1//1
f 1//7 7//12 6//11
f 4//4 7//9 11//9
f 11//12 7//12 4//8
f 8//13 4//4 12//17
f 12//18 4//8 8//14
f 8//9 2//9 13//9
f 9//9 14//9 5//9
f 13//9 2//9 10//9
f 10//9 5//9 13//9
f 9//15 15//19 6//10
f 6//11 15//20 9//16
f 15//19 7//9 6//10
f 6//11 7//12 15//20
f 4//4 11//9 16//9
f 16//12 11//12 4//8
f 4//4 16//9 12//17
f 12//18 16//12 4//8
f 12//17 17//21 8//13
f 8//14 17//22 12//18
f 18//9 8//9 13//9
f 5//9 14//9 19//9
f 15//19 9//15 14//23
f 14//24 9//16 15//20
f 13//25 5//25 16//25
f 20//26 7//9 15//19
f 15//20 7//12 20//27
f 7//25 16//25 5//25
f 12//17 16//9 21//9
f 21//12 16//12 12//18
f 17//21 12//17 22//28
f 22//29 12//18 17//22
f 17//22 8//9 23//30
f 24//31 8//9 18//9
f 18//32 13//32 21//32
f 25//9 19//9 14//9
f 5//33 19//33 7//33
f 14//23 20//26 15//19
f 15//20 20//27 14//24
f 16//32 21//32 13//32
f 7//9 20//26 26//34
f 26//35 20//27 7//12
f 12//17 21//9 27//36
f 27//37 21//12 12//18
f 12//17 28//38 22//28
f 22//29 28//39 12//18
f 22//28 29//40 17//21
f 17//22 29//41 22//29
f 23//30 8//9 24//31
f 29//41 17//22 23//30
f 24//42 18//42 27//42
f 21//42 27//42 18//42
f 19//43 20//26 25//44
f 25//45 20//27 19//46
f 20//26 14//23 25//44
f 25//45 14//24 20//27
f 26//33 7//33 19//33
f 20//26 19//43 26//34
f 26//35 19//46 20//27
f 12//17 27//36 28//38
f 28//39 27//37 12//18
f 22//28 28//38 30//47
f 30//48 28//39 22//29
f 29//40 22//28 30//47
f 30//48 22//29 29//41
f 28//38 24//49 23//50
f 23//30 24//31 28//39
f 30//47 23//50 29//40
f 29//41 23//30 30//48
f 24//49 28//38 27//36
f 27//37 28//39 24//31
f 23//50 30//47 28//38
f 28//39 30//48 23//30
usemtl material_1_0
f 5//12 3//12 2//12
f 5//12 9//12 3//12
f 5//12 2//12 10//12
f 13//12 2//12 8//12
f 5//12 14//12 9//12
f 10//12 2//12 13//12
f 13//12 5//12 10//12
f 16//9 11//9 7//9
f 7//12 11//12 16//12
f 13//12 8//12 18//12
f 19//12 14//12 5//12
f 16//51 5//51 13//51
f 5//51 16//51 7//51
f 23//50 8//12 17//21
f 18//12 8//12 24//49
f 21//52 13//52 18//52
f 14//12 19//12 25//12
f 7//53 19//53 5//53
f 13//52 21//52 16//52
f 24//49 8//12 23//50
f 23//50 17//21 29//40
f 27//54 18//54 24//54
f 18//54 27//54 21//54
f 19//53 7//53 26//53
