# SSTK version 0.8.0
# 6
mtllib original-6.mtl
o Obj_000009_1/Obj_000009/mesh6/mesh6-geometry#mesh6-geometry
v -0.313563 -0.710658 -0.299400
v -0.306579 -0.713359 -0.313733
v -0.307979 -0.693228 -0.315808
v -0.305179 -0.733491 -0.311658
v -0.294877 -0.691185 -0.318583
v -0.315010 -0.690295 -0.301542
v -0.312116 -0.731021 -0.297259
v -0.292009 -0.731785 -0.314336
v -0.292834 -0.671795 -0.258527
v -0.293443 -0.711485 -0.316460
v -0.310513 -0.683922 -0.284505
v -0.281666 -0.686316 -0.312468
v -0.280152 -0.707010 -0.310232
v -0.308963 -0.704796 -0.282217
v -0.278638 -0.727704 -0.307995
v -0.274395 -0.659662 -0.233068
v -0.307413 -0.725671 -0.279929
v -0.259423 -0.672769 -0.285210
v -0.289339 -0.715495 -0.253390
v -0.238295 -0.635468 -0.181826
v -0.270506 -0.705316 -0.227370
v -0.255954 -0.716339 -0.280111
v -0.238667 -0.659032 -0.256300
v -0.196192 -0.631579 -0.199223
v -0.233617 -0.685016 -0.175011
v -0.234751 -0.704814 -0.250566
v -0.165457 -0.586980 -0.079477
v -0.191382 -0.681781 -0.192220
v -0.111913 -0.576673 -0.084599
v -0.159201 -0.644334 -0.070422
v -0.138410 -0.569038 -0.041673
v -0.105315 -0.635715 -0.075059
v -0.045765 -0.507828 0.087036
v -0.131569 -0.629280 -0.031789
v -0.007967 -0.508527 0.058129
v -0.029788 -0.510019 0.068807
v -0.008286 -0.583474 0.058213
v -0.045918 -0.582789 0.087304
vn 0.96131380486245 0.09490798073458345 0.2585889475089056
vn 0.3969799851827224 0.12183499545250867 0.9097049660452629
vn 0.7076139827639388 -0.19472599525686443 0.6792379834551214
vn 0.7336623006240586 0.1207680494856844 0.6686962740037039
vn -0.0725469745320626 -0.1410439504858954 0.9873416533893304
vn 0.9697446410985445 -0.23761691205823474 0.05597797928260963
vn 0.9967466660525447 0.0667209776459742 -0.04521498485128703
vn -0.025534010707012982 0.1016310426162932 0.9944944170149671
vn 0.8242110719841256 -0.41856103655586674 -0.38142203331225766
vn -0.2961130239901899 0.0791710064141975 0.9518660771173372
vn 0.8866852593532595 -0.3958061157723162 -0.23901206991044324
vn -0.44842486609250753 -0.3808808862623191 0.8086067585359071
vn -0.5340610983329407 0.05170800952063452 0.8438631553746301
vn 0.9371085227712893 0.031040017315849287 -0.34765519394141614
vn -0.5658221475822783 0.04700801226100724 0.8231862147100419
vn 0.8208755873588565 -0.41968030029269354 -0.3873392771518102
vn 0.9055848665770219 0.02087899692382463 -0.4236509375820292
vn -0.6172692815060287 -0.40978318688187004 0.6716073062869176
vn 0.8188013593335117 -0.002058000903159941 -0.5740732519338241
vn 0.8226301396316065 -0.41893007110835834 -0.38441806525035915
vn 0.8143618013637438 -0.0029829992723972177 -0.580349858443111
vn -0.7957363482636378 0.007376003228196896 0.6055982650474059
vn -0.6299061182154372 -0.4129150774923994 0.6578141234529749
vn -0.6268540281921336 -0.4119200185256915 0.661344029743287
vn 0.8165960495012374 -0.0022890001387567754 -0.5772050349895931
vn -0.8083752353879897 0.004651001354308872 0.5886491714067169
vn 0.8211198939749533 -0.41947294583660794 -0.38704595002366265
vn -0.805250533855498 0.005558996782000404 0.5929086567762467
vn -0.6296060659962556 -0.41281504327189444 0.6581640689897483
vn 0.814608191956741 -0.0027450006468401353 -0.5800051366741666
vn 0.819983066856912 -0.4200010342445756 -0.38887903170705873
vn -0.8080646877840666 0.004729998172447178 0.5890747723962788
vn 0.7211437511748002 -0.6620097715785328 -0.20419292954477342
vn 0.8131917027158713 -0.0032609988078539276 -0.5819867872390552
vn -0.42520792988959627 -0.6564248917653909 0.6231408972534215
vn 0.20771593173198927 -0.9329156933875122 0.2941469033255473
vn -0.8092676196503775 0.0042559979997132 0.5874247239148502
vn 0.8124569953880879 -0.0036019999795531177 -0.5830099966905438
vn -0.7076139827639388 0.19472599525686443 -0.6792379834551214
vn -0.3969799851827224 -0.12183499545250867 -0.9097049660452629
vn -0.96131380486245 -0.09490798073458345 -0.2585889475089056
vn -0.7336623006240586 -0.1207680494856844 -0.6686962740037039
vn 0.0725469745320626 0.1410439504858954 -0.9873416533893304
vn -0.9697446410985445 0.23761691205823474 -0.05597797928260963
vn -0.9967466660525447 -0.0667209776459742 0.04521498485128703
vn 0.025534010707012982 -0.1016310426162932 -0.9944944170149671
vn -0.8242110719841256 0.41856103655586674 0.38142203331225766
vn 0.2961130239901899 -0.0791710064141975 -0.9518660771173372
vn -0.8866852593532595 0.3958061157723162 0.23901206991044324
vn 0.44842486609250753 0.3808808862623191 -0.8086067585359071
vn 0.5340610983329407 -0.05170800952063452 -0.8438631553746301
vn -0.9371085227712893 -0.031040017315849287 0.34765519394141614
vn 0.5658221475822783 -0.04700801226100724 -0.8231862147100419
vn -0.8208755873588565 0.41968030029269354 0.3873392771518102
vn -0.9055848665770219 -0.02087899692382463 0.4236509375820292
vn 0.6172692815060287 0.40978318688187004 -0.6716073062869176
vn -0.8188013593335117 0.002058000903159941 0.5740732519338241
vn -0.8226301396316065 0.41893007110835834 0.38441806525035915
vn -0.8143618013637438 0.0029829992723972177 0.580349858443111
vn 0.7957363482636378 -0.007376003228196896 -0.6055982650474059
vn 0.6299061182154372 0.4129150774923994 -0.6578141234529749
vn 0.6268540281921336 0.4119200185256915 -0.661344029743287
vn -0.8165960495012374 0.0022890001387567754 0.5772050349895931
vn 0.8083752353879897 -0.004651001354308872 -0.5886491714067169
vn -0.8211198939749533 0.41947294583660794 0.38704595002366265
vn 0.805250533855498 -0.005558996782000404 -0.5929086567762467
vn 0.6296060659962556 0.41281504327189444 -0.6581640689897483
vn -0.814608191956741 0.0027450006468401353 0.5800051366741666
vn -0.819983066856912 0.4200010342445756 0.38887903170705873
vn 0.8080646877840666 -0.004729998172447178 -0.5890747723962788
vn -0.7211437511748002 0.6620097715785328 0.20419292954477342
vn -0.8131917027158713 0.0032609988078539276 0.5819867872390552
vn 0.42520792988959627 0.6564248917653909 -0.6231408972534215
vn -0.20771593173198927 0.9329156933875122 -0.2941469033255473
vn 0.8092676196503775 -0.0042559979997132 -0.5874247239148502
vn -0.8124569953880879 0.0036019999795531177 0.5830099966905438
usemtl material_0_0
f 1//1 2//2 3//3
f 2//2 1//1 4//4
f 5//5 3//3 2//2
f 3//3 6//6 1//1
f 4//4 1//1 7//7
f 2//2 4//4 8//8
f 9//9 3//3 5//5
f 2//2 10//10 5//5
f 3//3 11//11 6//6
f 6//6 7//7 1//1
f 10//10 2//2 8//8
f 11//11 3//3 9//9
f 9//9 5//5 12//12
f 5//5 10//10 13//13
f 6//6 11//11 14//14
f 7//7 6//6 14//14
f 10//10 8//8 15//15
f 9//9 14//14 11//11
f 12//12 5//5 13//13
f 9//9 12//12 16//16
f 13//13 10//10 15//15
f 7//7 14//14 17//17
f 9//9 17//17 14//14
f 15//15 12//12 13//13
f 16//16 12//12 18//18
f 16//16 19//19 9//9
f 17//17 9//9 19//19
f 15//15 18//18 12//12
f 16//16 18//18 20//20
f 19//19 16//16 21//21
f 18//18 15//15 22//22
f 20//20 18//18 23//23
f 20//20 21//21 16//16
f 22//22 23//23 18//18
f 20//20 23//23 24//24
f 21//21 20//20 25//25
f 23//23 22//22 26//26
f 26//26 24//24 23//23
f 20//20 24//24 27//27
f 27//27 25//25 20//20
f 24//24 26//26 28//28
f 27//27 24//24 29//29
f 25//25 27//27 30//30
f 28//28 29//29 24//24
f 27//27 29//29 31//31
f 31//31 30//30 27//27
f 29//29 28//28 32//32
f 31//31 29//29 33//33
f 30//30 31//31 34//34
f 32//32 35//35 29//29
f 33//33 29//29 36//36
f 33//33 34//34 31//31
f 35//35 32//32 37//37
f 36//36 29//29 35//35
f 34//34 33//33 38//38
usemtl material_1_0
f 3//39 2//40 1//41
f 4//42 1//41 2//40
f 2//40 3//39 5//43
f 1//41 6//44 3//39
f 7//45 1//41 4//42
f 8//46 4//42 2//40
f 5//43 3//39 9//47
f 5//43 10//48 2//40
f 6//44 11//49 3//39
f 1//41 7//45 6//44
f 8//46 2//40 10//48
f 9//47 3//39 11//49
f 12//50 5//43 9//47
f 13//51 10//48 5//43
f 14//52 11//49 6//44
f 14//52 6//44 7//45
f 15//53 8//46 10//48
f 11//49 14//52 9//47
f 13//51 5//43 12//50
f 16//54 12//50 9//47
f 15//53 10//48 13//51
f 17//55 14//52 7//45
f 14//52 17//55 9//47
f 13//51 12//50 15//53
f 18//56 12//50 16//54
f 9//47 19//57 16//54
f 19//57 9//47 17//55
f 12//50 18//56 15//53
f 20//58 18//56 16//54
f 21//59 16//54 19//57
f 22//60 15//53 18//56
f 23//61 18//56 20//58
f 16//54 21//59 20//58
f 18//56 23//61 22//60
f 24//62 23//61 20//58
f 25//63 20//58 21//59
f 26//64 22//60 23//61
f 23//61 24//62 26//64
f 27//65 24//62 20//58
f 20//58 25//63 27//65
f 28//66 26//64 24//62
f 29//67 24//62 27//65
f 30//68 27//65 25//63
f 24//62 29//67 28//66
f 31//69 29//67 27//65
f 27//65 30//68 31//69
f 32//70 28//66 29//67
f 33//71 29//67 31//69
f 34//72 31//69 30//68
f 29//67 35//73 32//70
f 36//74 29//67 33//71
f 31//69 34//72 33//71
f 37//75 32//70 35//73
f 35//73 29//67 36//74
f 38//76 33//71 34//72
