# SSTK version 0.8.0
# 31
mtllib original-31.mtl
o Obj_000023_1/Obj_000023/mesh36/mesh36-geometry#mesh36-geometry
v 0.029356 -0.683922 0.630954
v 0.023023 -0.700477 0.646089
v 0.022979 -0.690295 0.647381
v 0.029447 -0.704796 0.628192
v 0.016791 -0.692411 0.652779
v 0.033556 -0.507828 0.174756
v 0.023068 -0.710658 0.644798
v 0.030322 -0.671795 0.599546
v 0.016834 -0.702508 0.651517
v 0.030370 -0.659662 0.568111
v 0.023112 -0.720840 0.643506
v 0.016878 -0.712606 0.650256
v 0.029538 -0.725671 0.625430
v 0.008906 -0.693228 0.654789
v 0.009915 -0.510019 0.180113
v 0.031283 -0.635468 0.505437
v 0.016922 -0.722703 0.648994
v 0.030514 -0.715495 0.593336
v 0.008993 -0.713359 0.652288
v 0.008950 -0.703293 0.653538
v 0.032515 -0.586980 0.379821
v 0.030572 -0.705316 0.561216
v 0.023156 -0.731021 0.642215
v 0.016966 -0.732801 0.647732
v 0.009037 -0.723425 0.651037
v -0.003325 -0.691185 0.649333
v 0.032985 -0.560977 0.312456
v 0.031505 -0.685016 0.497174
v -0.003237 -0.711485 0.646773
v -0.010419 -0.686316 0.636621
v 0.033268 -0.622517 0.299983
v 0.032776 -0.644334 0.368818
v 0.009080 -0.733491 0.649786
v -0.003149 -0.731785 0.644212
v -0.010329 -0.707010 0.633922
v -0.012191 -0.659032 0.565906
v 0.033837 -0.582789 0.174629
v -0.010239 -0.727704 0.631223
v -0.013004 -0.631579 0.494763
v -0.012392 -0.672769 0.601495
v -0.013302 -0.614558 0.450660
v -0.011989 -0.704814 0.558965
v -0.012201 -0.716339 0.595331
v -0.013814 -0.576673 0.352492
v -0.012779 -0.681781 0.486271
v -0.013919 -0.563659 0.318772
v -0.013064 -0.667501 0.441205
v -0.014014 -0.508527 0.175926
v -0.013544 -0.635715 0.340897
v -0.013639 -0.624797 0.306441
v -0.013707 -0.583474 0.176045
vn -0.9012377108879455 -0.26744691420451455 -0.3409438906270927
vn -0.8284430823132803 0.0670270066597368 -0.5560480552483814
vn -0.6967411170824774 -0.34863205858518176 -0.6269031053466875
vn 0.6967411170824774 0.34863205858518176 0.6269031053466875
vn 0.8284430823132803 -0.0670270066597368 0.5560480552483814
vn 0.9012377108879455 0.26744691420451455 0.3409438906270927
vn -0.9624843335427475 0.031039010756369348 -0.2695560934129283
vn 0.9624843335427475 -0.031039010756369348 0.2695560934129283
vn -0.48768502954761767 -0.1940160117549453 -0.8511880515713577
vn 0.48768502954761767 0.1940160117549453 0.8511880515713577
vn -0.7034690835854981 -0.6620490786640141 -0.25850003071471717
vn 0.7034690835854981 0.6620490786640141 0.25850003071471717
vn -0.7562938988211182 0.0787519894643628 -0.6494749131116282
vn 0.7562938988211182 -0.0787519894643628 0.6494749131116282
vn -0.8909950540522167 -0.4185610253920054 -0.17588201066988263
vn 0.8909950540522167 0.4185610253920054 0.17588201066988263
vn -0.406485973392242 0.11127199271635835 -0.9068559406390257
vn 0.406485973392242 -0.11127199271635835 0.9068559406390257
vn -0.8917748827400824 -0.4196799448160778 -0.16913397776049025
vn 0.8917748827400824 0.4196799448160778 0.16913397776049025
vn -0.8301092322807828 0.06670801866620717 -0.553596154907021
vn 0.8301092322807828 -0.06670801866620717 0.553596154907021
vn -0.522192069128574 0.10371301372968542 -0.8464981120606971
vn 0.522192069128574 -0.10371301372968542 0.8464981120606971
vn -0.9697574944940187 0.027289013915081133 -0.24254012367487868
vn 0.9697574944940187 -0.027289013915081133 0.24254012367487868
vn 0.07204497724787556 -0.30042790512353035 -0.9510796996447985
vn -0.07204497724787556 0.30042790512353035 0.9510796996447985
vn 0.004849997212404279 -0.9329154637953297 -0.36006279304946864
vn -0.004849997212404279 0.9329154637953297 0.36006279304946864
vn -0.8914762939817402 -0.418934138151724 -0.1725230568928517
vn 0.8914762939817402 0.418934138151724 0.1725230568928517
vn -0.5837181697426417 0.09851102864656819 -0.8059582343690618
vn 0.5837181697426417 -0.09851102864656819 0.8059582343690618
vn -0.9998560117803036 -0.0020580000242473528 -0.016844000198456013
vn 0.9998560117803036 0.0020580000242473528 0.016844000198456013
vn -0.03267900295212322 0.12327701113647606 -0.9918340895993201
vn 0.03267900295212322 -0.12327701113647606 0.9918340895993201
vn 0.26371700412163307 0.12054700188402931 -0.9570380149575473
vn -0.26371700412163307 -0.12054700188402931 0.9570380149575473
vn -0.8918112797518783 -0.41950413159406186 -0.1693780531321252
vn 0.8918112797518783 0.41950413159406186 0.1693780531321252
vn -0.9999536244904856 -0.0029829988798035873 -0.009156996561301197
vn 0.9999536244904856 0.0029829988798035873 0.009156996561301197
vn -0.8306931950293405 0.06651201561562647 -0.5527431297724944
vn 0.8306931950293405 -0.06651201561562647 0.5527431297724944
vn -0.5513632446967164 0.10152004505491073 -0.8280653674979759
vn 0.5513632446967164 -0.10152004505491073 0.8280653674979759
vn 0.1601230570007761 0.1229470437668196 -0.9794103486515374
vn -0.1601230570007761 -0.1229470437668196 0.9794103486515374
vn 0.6388100645016136 -0.1410410142411233 -0.7563260763673822
vn -0.6388100645016136 0.1410410142411233 0.7563260763673822
vn -0.8919849478889029 -0.42004297546046 -0.16711299023700882
vn 0.8919849478889029 0.42004297546046 0.16711299023700882
vn -0.9999127762860398 -0.0022929994869792534 -0.01300699708989934
vn 0.9999127762860398 0.0022929994869792534 0.01300699708989934
vn 0.688778774231786 0.0937239692791157 -0.7188877643626477
vn -0.688778774231786 -0.0937239692791157 0.7188877643626477
vn 0.8380706161624885 -0.38088082555605035 -0.390598821105195
vn -0.8380706161624885 0.38088082555605035 0.390598821105195
vn -0.9999710481251076 -0.0032950001585768268 -0.006859000330099686
vn 0.9999710481251076 0.0032950001585768268 0.006859000330099686
vn -0.999951745434317 -0.0027739992938008956 -0.009423997600857844
vn 0.999951745434317 0.0027739992938008956 0.009423997600857844
vn 0.08816099157330834 0.12349798819569256 -0.9884209055237689
vn -0.08816099157330834 -0.12349798819569256 0.9884209055237689
vn 0.6055489009876157 0.10159998338754066 -0.7892958709434267
vn -0.6055489009876157 -0.10159998338754066 0.7892958709434267
vn 0.9280750309652239 0.051707001725204225 -0.3687860123045455
vn -0.9280750309652239 -0.051707001725204225 0.3687860123045455
vn 0.8962582257325216 -0.4129151039972241 -0.1619330407846228
vn -0.8962582257325216 0.4129151039972241 0.1619330407846228
vn -0.9999777095235174 -0.00361899894874248 -0.0056109983701005985
vn 0.9999777095235174 0.00361899894874248 0.0056109983701005985
vn 0.9416167843420034 0.047006989234014064 -0.3333889236441102
vn -0.9416167843420034 -0.047006989234014064 0.3333889236441102
vn 0.8958121162289421 -0.411851053436442 -0.16703102167177544
vn -0.8958121162289421 0.411851053436442 0.16703102167177544
vn 0.8941418599684544 -0.4097839358237428 -0.18051997172876955
vn -0.8941418599684544 0.4097839358237428 0.18051997172876955
vn 0.8960788857297877 -0.4123099474212081 -0.16444797902918404
vn -0.8960788857297877 0.4123099474212081 0.16444797902918404
vn 0.9999886051555772 0.004650998163558388 -0.0010759995751427264
vn -0.9999886051555772 -0.004650998163558388 0.0010759995751427264
vn 0.9997259696133297 0.0073749997758368905 -0.02221699932471432
vn -0.9997259696133297 -0.0073749997758368905 0.02221699932471432
vn 0.8962252114168636 -0.4125900973287776 -0.16294103843730676
vn -0.8962252114168636 0.4125900973287776 0.16294103843730676
vn 0.9999606522722432 0.005610998048823462 -0.006870997610669398
vn -0.9999606522722432 -0.005610998048823462 0.006870997610669398
vn 0.8963402053564945 -0.4130500946320592 -0.1611330369164693
vn -0.8963402053564945 0.4130500946320592 0.1611330369164693
vn 0.9999786270250414 0.005224998051164917 -0.00392999853417763
vn -0.9999786270250414 -0.005224998051164917 0.00392999853417763
vn 0.7103241251783006 -0.6564891156911175 -0.25389304474281366
vn -0.7103241251783006 0.6564891156911175 0.25389304474281366
vn 0.9999851266451243 0.004984000631208768 -0.0022150002805231567
vn -0.9999851266451243 -0.004984000631208768 0.0022150002805231567
vn 0.9999897339402668 0.004527998795269481 -0.00017099995450332964
vn -0.9999897339402668 -0.004527998795269481 0.00017099995450332964
vn 0.9999906451818822 0.004230998498751032 0.0008989996810156421
vn -0.9999906451818822 -0.004230998498751032 -0.0008989996810156421
usemtl material_0_0
f 1//1 2//2 3//3
f 3//4 2//5 1//6
f 4//7 2//2 1//1
f 1//6 2//5 4//8
f 3//3 2//2 5//9
f 5//10 2//5 3//4
f 3//3 6//11 1//1
f 1//6 6//12 3//4
f 4//7 7//13 2//2
f 2//5 7//14 4//8
f 8//15 4//7 1//1
f 1//6 4//8 8//16
f 2//2 9//17 5//9
f 5//10 9//18 2//5
f 5//9 6//11 3//3
f 3//4 6//12 5//10
f 1//1 6//11 10//19
f 10//20 6//12 1//6
f 7//13 4//7 11//21
f 11//22 4//8 7//14
f 2//2 7//13 12//23
f 12//24 7//14 2//5
f 4//7 8//15 13//25
f 13//26 8//16 4//8
f 1//1 10//19 8//15
f 8//16 10//20 1//6
f 9//17 2//2 12//23
f 12//24 2//5 9//18
f 9//17 14//27 5//9
f 5//10 14//28 9//18
f 5//9 15//29 6//11
f 6//12 15//30 5//10
f 10//19 6//11 16//31
f 16//32 6//12 10//20
f 13//25 11//21 4//7
f 4//8 11//22 13//26
f 7//13 11//21 17//33
f 17//34 11//22 7//14
f 7//13 17//33 12//23
f 12//24 17//34 7//14
f 13//25 8//15 18//35
f 18//36 8//16 13//26
f 10//19 18//35 8//15
f 8//16 18//36 10//20
f 12//23 19//37 9//17
f 9//18 19//38 12//24
f 9//17 20//39 14//27
f 14//28 20//40 9//18
f 14//27 15//29 5//9
f 5//10 15//30 14//28
f 16//31 6//11 21//41
f 21//42 6//12 16//32
f 16//31 22//43 10//19
f 10//20 22//44 16//32
f 13//25 23//45 11//21
f 11//22 23//46 13//26
f 11//21 24//47 17//33
f 17//34 24//48 11//22
f 17//33 25//49 12//23
f 12//24 25//50 17//34
f 18//35 10//19 22//43
f 22//44 10//20 18//36
f 19//37 12//23 25//49
f 25//50 12//24 19//38
f 20//39 9//17 19//37
f 19//38 9//18 20//40
f 26//51 14//27 20//39
f 20//40 14//28 26//52
f 26//51 15//29 14//27
f 14//28 15//30 26//52
f 21//41 6//11 27//53
f 27//54 6//12 21//42
f 21//41 28//55 16//31
f 16//32 28//56 21//42
f 22//43 16//31 28//55
f 28//56 16//32 22//44
f 11//21 23//45 24//47
f 24//48 23//46 11//22
f 24//47 25//49 17//33
f 17//34 25//50 24//48
f 29//57 19//37 25//49
f 25//50 19//38 29//58
f 19//37 29//57 20//39
f 20//40 29//58 19//38
f 26//51 20//39 29//57
f 29//58 20//40 26//52
f 30//59 15//29 26//51
f 26//52 15//30 30//60
f 6//11 31//61 27//53
f 27//54 31//62 6//12
f 27//53 32//63 21//41
f 21//42 32//64 27//54
f 28//55 21//41 32//63
f 32//64 21//42 28//56
f 25//49 24//47 33//65
f 33//66 24//48 25//50
f 29//57 25//49 34//67
f 34//68 25//50 29//58
f 35//69 26//51 29//57
f 29//58 26//52 35//70
f 36//71 15//29 30//59
f 30//60 15//30 36//72
f 35//69 30//59 26//51
f 26//52 30//60 35//70
f 31//61 6//11 37//73
f 37//74 6//12 31//62
f 32//63 27//53 31//61
f 31//62 27//54 32//64
f 25//49 33//65 34//67
f 34//68 33//66 25//50
f 38//75 29//57 34//67
f 34//68 29//58 38//76
f 38//75 35//69 29//57
f 29//58 35//70 38//76
f 39//77 15//29 36//71
f 36//72 15//30 39//78
f 30//59 40//79 36//71
f 36//72 40//80 30//60
f 35//69 40//79 30//59
f 30//60 40//80 35//70
f 40//79 35//69 38//75
f 38//76 35//70 40//80
f 41//81 15//29 39//77
f 39//78 15//30 41//82
f 42//83 39//77 36//71
f 36//72 39//78 42//84
f 43//85 36//71 40//79
f 40//80 36//72 43//86
f 40//79 38//75 43//85
f 43//86 38//76 40//80
f 44//87 15//29 41//81
f 41//82 15//30 44//88
f 45//89 41//81 39//77
f 39//78 41//82 45//90
f 39//77 42//83 45//89
f 45//90 42//84 39//78
f 36//71 43//85 42//83
f 42//84 43//86 36//72
f 46//91 15//29 44//87
f 44//88 15//30 46//92
f 47//93 44//87 41//81
f 41//82 44//88 47//94
f 41//81 45//89 47//93
f 47//94 45//90 41//82
f 15//29 46//91 48//95
f 48//96 46//92 15//30
f 49//97 46//91 44//87
f 44//88 46//92 49//98
f 44//87 47//93 49//97
f 49//98 47//94 44//88
f 50//99 48//95 46//91
f 46//92 48//96 50//100
f 46//91 49//97 50//99
f 50//100 49//98 46//92
f 48//95 50//99 51//101
f 51//102 50//100 48//96
