# Blender v2.82 (sub 6) OBJ File: 'cup.blend'
# www.blender.org
o wall0_Plane
v -0.044723 0.044723 -0.074297
v -0.051631 0.051631 -0.074297
v 0.051631 0.051631 -0.074297
v 0.044723 0.044723 -0.074297
v -0.062514 0.062514 0.089599
v 0.062514 0.062514 0.089599
v 0.072171 0.072171 0.089599
v -0.072171 0.072171 0.089599
vt 0.066900 0.066900
vt 0.000000 0.000000
vt 0.000000 1.000000
vt 0.066900 0.933100
vt 0.066900 0.066900
vt 0.066900 0.933100
vt 0.000000 1.000000
vt 0.000000 0.000000
vn 0.0000 0.0000 -1.0000
vn 0.0000 0.0000 1.0000
vn 0.0000 0.9922 -0.1244
vn 0.0000 -0.9942 0.1079
vn -0.7071 -0.7071 -0.0000
vn 0.7071 -0.7071 0.0000
s 1
f 1/1/1 2/2/1 3/3/1 4/4/1
f 5/5/2 6/6/2 7/7/2 8/8/2
f 3/3/3 2/2/3 8/8/3 7/7/3
f 1/1/4 4/4/4 6/6/4 5/5/4
f 2/2/5 1/1/5 5/5/5 8/8/5
f 3/3/6 7/7/6 6/6/6 4/4/6
o bottom_Plane.001
v -0.051631 0.051631 -0.074297
v 0.051631 0.051631 -0.074297
v 0.051631 -0.051631 -0.074297
v -0.051631 -0.051631 -0.074297
v -0.051631 0.051631 -0.080683
v -0.051631 -0.051631 -0.080683
v 0.051631 -0.051631 -0.080683
v 0.051631 0.051631 -0.080683
vt 0.000000 0.000000
vt 1.000000 0.000000
vt 1.000000 1.000000
vt 0.000000 1.000000
vt 0.000000 0.000000
vt 0.000000 1.000000
vt 1.000000 1.000000
vt 1.000000 0.000000
vn 0.0000 0.0000 1.0000
vn 0.0000 0.0000 -1.0000
vn 1.0000 0.0000 0.0000
vn -1.0000 0.0000 0.0000
vn 0.0000 -1.0000 0.0000
vn 0.0000 1.0000 0.0000
s 1
f 9/9/7 12/10/7 11/11/7 10/12/7
f 13/13/8 16/14/8 15/15/8 14/16/8
f 11/11/9 15/15/9 16/14/9 10/12/9
f 9/9/10 13/13/10 14/16/10 12/10/10
f 12/10/11 14/16/11 15/15/11 11/11/11
f 10/12/12 16/14/12 13/13/12 9/9/12
o wall1_Plane.002
v -0.044723 -0.044723 -0.074297
v -0.051631 -0.051631 -0.074297
v -0.051631 0.051631 -0.074297
v -0.044723 0.044723 -0.074297
v -0.062514 -0.062514 0.089599
v -0.062514 0.062514 0.089599
v -0.072171 0.072171 0.089599
v -0.072171 -0.072171 0.089599
vt 0.933100 0.066900
vt 1.000000 0.000000
vt 0.000000 0.000000
vt 0.066900 0.066900
vt 0.933100 0.066900
vt 0.066900 0.066900
vt 0.000000 0.000000
vt 1.000000 0.000000
vn -0.0000 0.0000 -1.0000
vn -0.0000 0.0000 1.0000
vn -0.9922 0.0000 -0.1244
vn 0.9942 0.0000 0.1079
s 1
f 17/17/13 18/18/13 19/19/13 20/20/13
f 21/21/14 22/22/14 23/23/14 24/24/14
f 19/19/15 18/18/15 24/24/15 23/23/15
f 17/17/16 20/20/16 22/22/16 21/21/16
o wall2_Plane.003
v 0.044723 -0.044723 -0.074297
v 0.051631 -0.051631 -0.074297
v -0.051631 -0.051631 -0.074297
v -0.044723 -0.044723 -0.074297
v 0.062514 -0.062514 0.089599
v -0.062514 -0.062514 0.089599
v -0.072171 -0.072171 0.089599
v 0.072171 -0.072171 0.089599
vt 0.933100 0.933100
vt 1.000000 1.000000
vt 1.000000 0.000000
vt 0.933100 0.066900
vt 0.933100 0.933100
vt 0.933100 0.066900
vt 1.000000 0.000000
vt 1.000000 1.000000
vn 0.0000 0.0000 -1.0000
vn 0.0000 0.0000 1.0000
vn 0.0000 -0.9922 -0.1244
vn 0.0000 0.9942 0.1079
s 1
f 25/25/17 26/26/17 27/27/17 28/28/17
f 29/29/18 30/30/18 31/31/18 32/32/18
f 27/27/19 26/26/19 32/32/19 31/31/19
f 25/25/20 28/28/20 30/30/20 29/29/20
o wall3_Plane.004
v 0.044723 0.044723 -0.074297
v 0.051631 0.051631 -0.074297
v 0.051631 -0.051631 -0.074297
v 0.044723 -0.044723 -0.074297
v 0.062514 0.062514 0.089599
v 0.062514 -0.062514 0.089599
v 0.072171 -0.072171 0.089599
v 0.072171 0.072171 0.089599
vt 0.066900 0.933100
vt 0.000000 1.000000
vt 1.000000 1.000000
vt 0.933100 0.933100
vt 0.066900 0.933100
vt 0.933100 0.933100
vt 1.000000 1.000000
vt 0.000000 1.000000
vn 0.0000 0.0000 -1.0000
vn 0.0000 0.0000 1.0000
vn 0.9922 0.0000 -0.1244
vn -0.9942 0.0000 0.1079
s 1
f 33/33/21 34/34/21 35/35/21 36/36/21
f 37/37/22 38/38/22 39/39/22 40/40/22
f 35/35/23 34/34/23 40/40/23 39/39/23
f 33/33/24 36/36/24 38/38/24 37/37/24
