# SSTK version 0.8.0
# 115
mtllib original-115.mtl
o Componente_3_8/Componente_3/mesh8/mesh8-geometry#mesh8-geometry
v 0.450092 0.004096 -0.291198
v 0.401061 0.004831 -0.294883
v 0.401061 0.004096 -0.291198
v 0.450092 0.004831 -0.294883
v 0.401061 0.003201 -0.332117
v 0.450092 0.003201 -0.287550
v 0.450092 0.003201 -0.332117
v 0.401061 0.005404 -0.298595
v 0.401061 0.003201 -0.287550
v 0.450092 0.005404 -0.298595
v 0.401061 0.001730 -0.287550
v 0.401061 0.005814 -0.302329
v 0.450092 0.001730 -0.332117
v 0.450092 0.005814 -0.302329
v 0.401061 0.001730 -0.332117
v 0.401061 0.006061 -0.306078
v 0.450092 0.001730 -0.287550
v 0.450092 0.004096 -0.328469
v 0.450092 0.006061 -0.306078
v 0.399660 0.001730 -0.333518
v 0.401061 0.006143 -0.309834
v 0.451493 0.001730 -0.286149
v 0.401061 0.004096 -0.328469
v 0.450092 0.004831 -0.324785
v 0.450092 0.006143 -0.309834
v 0.451493 0.001730 -0.333518
v 0.399660 0.001730 -0.286149
v 0.401061 0.006061 -0.313590
v 0.401061 0.004831 -0.324785
v 0.450092 0.005404 -0.321072
v 0.450092 0.006061 -0.313590
v 0.451493 0.003201 -0.333518
v 0.399660 0.003201 -0.286149
v 0.401061 0.005814 -0.317338
v 0.401061 0.005404 -0.321072
v 0.450092 0.005814 -0.317338
v 0.399660 0.003201 -0.333518
v 0.451493 0.003201 -0.286149
vn 0 0.97616604383913 0.21702500974648511
vn 0 0.9847244280716186 0.174120075692103
vn 0 -0.97616604383913 -0.21702500974648511
vn 0 -0.9847244280716186 -0.174120075692103
vn -1 0 0
vn 1 0 0
vn 0 0.9711852007920753 0.2383260492737968
vn 0 -0.9711852007920753 -0.2383260492737968
vn 0 0.9913978244765006 0.1308829768276293
vn 0 -0.9913978244765006 -0.1308829768276293
vn 0 1 0
vn 0 -1 0
vn 0 0 1
vn 0 0 -1
vn 0 0.9961738259126621 0.08739398472737837
vn 0 -0.9961738259126621 -0.08739398472737837
vn 0 0.9711852007920754 -0.23832604927379641
vn 0 0.97616604383913 -0.21702500974648467
vn 0 -0.9711852007920754 0.23832604927379641
vn 0 -0.97616604383913 0.21702500974648467
vn 0 0.9990429920226418 0.04373899965074431
vn 0 -0.9990429920226418 -0.04373899965074431
vn 0 0.9847244280716186 -0.17412007569210255
vn 0 -0.9847244280716186 0.17412007569210255
vn 0 0.9990429920226418 -0.04373899965074387
vn 0 -0.9990429920226418 0.04373899965074387
vn 0 0.9913978244765006 -0.13088297682762887
vn 0 -0.9913978244765006 0.13088297682762887
vn 0 0.9961738259126621 -0.08739398472737793
vn 0 -0.9961738259126621 0.08739398472737793
usemtl material_0_0
f 1//1 2//2 3//1
f 2//2 1//1 4//2
f 3//3 2//4 1//3
f 4//4 1//3 2//4
f 5//5 3//5 2//5
f 2//6 3//6 5//6
f 3//1 6//7 1//1
f 1//3 6//8 3//3
f 1//6 7//6 4//6
f 4//5 7//5 1//5
f 4//2 8//9 2//2
f 2//4 8//10 4//4
f 3//5 5//5 9//5
f 9//6 5//6 3//6
f 5//5 2//5 8//5
f 8//6 2//6 5//6
f 6//7 3//1 9//7
f 9//8 3//3 6//8
f 7//6 1//6 6//6
f 6//5 1//5 7//5
f 4//6 7//6 10//6
f 10//5 7//5 4//5
f 8//9 4//2 10//9
f 10//10 4//4 8//10
f 6//11 5//11 9//11
f 9//12 5//12 6//12
f 5//5 11//5 9//5
f 9//6 11//6 5//6
f 5//5 8//5 12//5
f 12//6 8//6 5//6
f 11//13 6//13 9//13
f 9//14 6//14 11//14
f 6//6 13//6 7//6
f 7//5 13//5 6//5
f 5//11 6//11 7//11
f 7//12 6//12 5//12
f 10//6 7//6 14//6
f 14//5 7//5 10//5
f 10//9 12//15 8//9
f 8//10 12//16 10//10
f 11//5 5//5 15//5
f 15//6 5//6 11//6
f 5//5 12//5 16//5
f 16//6 12//6 5//6
f 6//13 11//13 17//13
f 17//14 11//14 6//14
f 13//6 6//6 17//6
f 17//5 6//5 13//5
f 13//14 5//14 7//14
f 7//13 5//13 13//13
f 5//17 18//18 7//17
f 7//19 18//20 5//19
f 14//6 7//6 19//6
f 19//5 7//5 14//5
f 12//15 10//9 14//15
f 14//16 10//10 12//16
f 5//14 13//14 15//14
f 15//13 13//13 5//13
f 15//11 20//11 11//11
f 11//12 20//12 15//12
f 14//15 16//21 12//15
f 12//16 16//22 14//16
f 5//5 16//5 21//5
f 21//6 16//6 5//6
f 11//11 22//11 17//11
f 17//12 22//12 11//12
f 17//11 22//11 13//11
f 13//12 22//12 17//12
f 18//18 5//17 23//18
f 23//20 5//19 18//20
f 24//6 7//6 18//6
f 18//5 7//5 24//5
f 19//6 7//6 25//6
f 25//5 7//5 19//5
f 16//21 14//15 19//21
f 19//22 14//16 16//22
f 26//11 15//11 13//11
f 13//12 15//12 26//12
f 20//11 15//11 26//11
f 26//12 15//12 20//12
f 27//11 11//11 20//11
f 20//12 11//12 27//12
f 19//21 21//11 16//21
f 16//22 21//12 19//22
f 5//5 21//5 28//5
f 28//6 21//6 5//6
f 11//11 27//11 22//11
f 22//12 27//12 11//12
f 26//11 13//11 22//11
f 22//12 13//12 26//12
f 5//5 29//5 23//5
f 23//6 29//6 5//6
f 23//18 24//23 18//18
f 18//20 24//24 23//20
f 30//6 7//6 24//6
f 24//5 7//5 30//5
f 25//6 7//6 31//6
f 31//5 7//5 25//5
f 21//11 19//21 25//11
f 25//12 19//22 21//12
f 32//13 20//13 26//13
f 26//14 20//14 32//14
f 20//6 33//6 27//6
f 27//5 33//5 20//5
f 25//11 28//25 21//11
f 21//12 28//26 25//12
f 5//5 28//5 34//5
f 34//6 28//6 5//6
f 33//14 22//14 27//14
f 27//13 22//13 33//13
f 22//5 32//5 26//5
f 26//6 32//6 22//6
f 5//5 35//5 29//5
f 29//6 35//6 5//6
f 24//23 23//18 29//23
f 29//24 23//20 24//24
f 36//6 7//6 30//6
f 30//5 7//5 36//5
f 29//23 30//27 24//23
f 24//24 30//28 29//24
f 31//6 7//6 36//6
f 36//5 7//5 31//5
f 28//25 25//11 31//25
f 31//26 25//12 28//26
f 20//13 32//13 37//13
f 37//14 32//14 20//14
f 33//6 20//6 37//6
f 37//5 20//5 33//5
f 31//25 34//29 28//25
f 28//26 34//30 31//26
f 5//5 34//5 35//5
f 35//6 34//6 5//6
f 22//14 33//14 38//14
f 38//13 33//13 22//13
f 32//5 22//5 38//5
f 38//6 22//6 32//6
f 30//27 29//23 35//27
f 35//28 29//24 30//28
f 35//27 36//29 30//27
f 30//28 36//30 35//28
f 34//29 31//25 36//29
f 36//30 31//26 34//30
f 36//29 35//27 34//29
f 34//30 35//28 36//30
