# SSTK version 0.8.0
# 2
mtllib original-2.mtl
o Group2/mesh2/mesh2-geometry#mesh2-geometry
v 0.032940 -0.001702 0.275470
v -0.492591 -0.001702 0.187215
v -0.492591 -0.001702 0.275470
v 0.032940 -0.001702 0.187215
v -0.482785 0.013007 0.255104
v 0.023134 0.013007 0.255104
v -0.482785 0.013007 0.187215
v 0.023134 0.013007 0.187215
vn 0 1 0
vn 0 -1 0
vn -0.8320502943378437 0.5547001962252291 0
vn 0.8320502943378437 -0.5547001962252291 0
vn 0 0.5854909554669739 0.8106789383389518
vn 0 -0.5854909554669739 -0.8106789383389518
vn 0.8320502943378437 0.5547001962252291 0
vn -0.8320502943378437 -0.5547001962252291 0
vn 0 0 -1
vn 0 0 1
usemtl material_0_0
f 1//1 2//1 3//1
f 2//1 1//1 4//1
f 3//2 2//2 1//2
f 4//2 1//2 2//2
f 5//3 2//3 3//3
f 3//4 2//4 5//4
f 6//5 3//5 1//5
f 1//6 3//6 6//6
f 4//7 6//7 1//7
f 1//8 6//8 4//8
f 7//9 4//9 2//9
f 2//10 4//10 7//10
f 2//3 5//3 7//3
f 7//4 5//4 2//4
f 3//5 6//5 5//5
f 5//6 6//6 3//6
f 6//7 4//7 8//7
f 8//8 4//8 6//8
f 4//9 7//9 8//9
f 8//10 7//10 4//10
f 6//1 7//1 5//1
f 5//2 7//2 6//2
f 7//1 6//1 8//1
f 8//2 6//2 7//2
