# SSTK version 0.8.0
# 48
mtllib original-48.mtl
o RT_11_B1/RT_11_B/mesh35/mesh35-geometry#mesh35-geometry
v -0.171871 -0.339743 0.385754
v -0.569512 -0.442360 0.385754
v -0.569512 -0.339743 0.385754
v -0.171871 -0.442360 0.385754
v -0.569512 -0.339743 0.402830
v -0.171871 -0.367291 0.407271
v -0.171871 -0.442360 0.411408
v -0.569512 -0.367291 0.407271
v -0.171871 -0.339743 0.402830
v -0.171871 -0.367558 0.410411
v -0.569512 -0.442360 0.411408
v -0.171871 -0.369286 0.411408
v -0.569512 -0.367291 0.409413
v -0.171871 -0.367291 0.409413
v -0.171871 -0.368288 0.411141
v -0.569512 -0.369286 0.411408
v -0.569512 -0.367558 0.410411
v -0.569512 -0.368288 0.411141
vt -1.748677 0.463831
vt -1.533833 0.526331
vt -1.533833 0.463831
vt -1.748677 0.526331
vt -1.748677 0.480609
vt -1.533833 0.480609
vt -1.748677 0.480772
vt -1.748677 0.481824
vt -1.748677 0.481217
vt -1.533833 0.481824
vt -1.533833 0.480772
vt -1.533833 0.481217
vn 0 0 -1
vn 0 0 1
vn -1 0 0
vn 1 0 0
vn 0 0.7612999048375177 0.6483999189500155
vn 0 1 0
vn 0 -1 0
vn 0 -0.7612999048375177 -0.6483999189500155
vn 0 0.1591549383639992 0.987253617665872
vn 0 -0.1591549383639992 -0.987253617665872
vn 0 0.13052598533534088 0.9914448886106773
vn 0 -0.13052598533534088 -0.9914448886106773
vn 0 0.9914448886106773 0.13052598533534132
vn 0 -0.9914448886106773 -0.13052598533534132
vn 0 0.8660253028382761 0.500000174843842
vn 0 -0.8660253028382761 -0.500000174843842
vn 0 0.5000001748438415 0.8660253028382763
vn 0 -0.5000001748438415 -0.8660253028382763
usemtl material_0_0
f 1/1/1 2/2/1 3/3/1
f 2/2/1 1/1/1 4/4/1
f 3/3/2 2/2/2 1/1/2
f 4/4/2 1/1/2 2/2/2
f 2/2/3 5/3/3 3/3/3
f 3/3/4 5/3/4 2/2/4
f 5/3/5 1/1/6 3/3/6
f 3/3/7 1/1/7 5/3/8
f 1/1/4 6/5/4 4/4/4
f 4/4/3 6/5/3 1/1/3
f 7/4/7 2/2/7 4/4/7
f 4/4/6 2/2/6 7/4/6
f 5/3/3 2/2/3 8/6/3
f 8/6/4 2/2/4 5/3/4
f 1/1/6 5/3/5 9/1/5
f 9/1/8 5/3/8 1/1/7
f 6/5/4 1/1/4 9/1/4
f 9/1/3 1/1/3 6/5/3
f 4/4/4 6/5/4 10/7/4
f 10/7/3 6/5/3 4/4/3
f 2/2/7 7/4/7 11/2/7
f 11/2/6 7/4/6 2/2/6
f 4/4/4 12/8/4 7/4/4
f 7/4/3 12/8/3 4/4/3
f 8/6/3 2/2/3 13/6/3
f 13/6/4 2/2/4 8/6/4
f 6/5/9 5/3/5 8/6/9
f 8/6/10 5/3/8 6/5/10
f 5/3/5 6/5/9 9/1/5
f 9/1/8 6/5/10 5/3/8
f 10/7/4 6/5/4 14/5/4
f 14/5/3 6/5/3 10/7/3
f 4/4/4 10/7/4 15/9/4
f 15/9/3 10/7/3 4/4/3
f 7/4/2 16/10/11 11/2/2
f 11/2/1 16/10/12 7/4/1
f 16/10/3 2/2/3 11/2/3
f 11/2/4 2/2/4 16/10/4
f 4/4/4 15/9/4 12/8/4
f 12/8/3 15/9/3 4/4/3
f 16/10/11 7/4/2 12/8/11
f 12/8/12 7/4/1 16/10/12
f 13/6/3 2/2/3 17/11/3
f 17/11/4 2/2/4 13/6/4
f 13/6/13 6/5/6 8/6/6
f 8/6/7 6/5/7 13/6/14
f 6/5/6 13/6/13 14/5/13
f 14/5/14 13/6/14 6/5/7
f 14/5/13 17/11/15 10/7/15
f 10/7/16 17/11/16 14/5/14
f 10/7/15 18/12/17 15/9/17
f 15/9/18 18/12/18 10/7/16
f 18/12/3 2/2/3 16/10/3
f 16/10/4 2/2/4 18/12/4
f 18/12/17 12/8/11 15/9/17
f 15/9/18 12/8/12 18/12/18
f 12/8/11 18/12/17 16/10/11
f 16/10/12 18/12/18 12/8/12
f 17/11/3 2/2/3 18/12/3
f 18/12/4 2/2/4 17/11/4
f 17/11/15 14/5/13 13/6/13
f 13/6/14 14/5/14 17/11/16
f 18/12/17 10/7/15 17/11/15
f 17/11/16 10/7/16 18/12/18
