# SSTK version 0.8.0
# 21
mtllib original-21.mtl
o B1/B/mesh16/mesh16-geometry#mesh16-geometry
v -0.550271 0.551741 0.360099
v -0.652888 0.551741 -0.409527
v -0.652888 0.551741 0.360099
v -0.550271 0.551741 -0.409527
v -0.550271 0.534638 -0.409527
v -0.550271 0.534638 0.360099
v -0.652888 0.534638 -0.409527
v -0.652888 0.534638 0.360099
vt -1.618619 -2.644344
vt -1.556119 -3.113094
vt -1.556119 -2.644344
vt -1.618619 -3.113094
vt -1.629036 -3.113094
vt -1.629036 -2.644344
vt -1.691536 -3.113094
vt -1.691536 -2.644344
vn 0 1 0
vn 1 0 0
vn 0 -1 0
vn -1 0 0
usemtl material_0_0
f 1/1/1 2/2/1 3/3/1
f 2/2/1 1/1/1 4/4/1
f 1/1/2 5/5/2 4/4/2
f 5/5/2 1/1/2 6/6/2
f 6/6/3 7/7/3 5/5/3
f 7/7/3 6/6/3 8/8/3
usemtl material_1_0
f 3//3 2//3 1//3
f 4//3 1//3 2//3
f 4//4 5//4 1//4
f 6//4 1//4 5//4
f 5//1 7//1 6//1
f 8//1 6//1 7//1
